{"glyphs":{"0":{"ha":833,"x_min":72,"x_max":761,"o":"m 417 -12 q 161 117 250 -12 q 72 490 72 246 q 161 864 72 736 q 417 992 250 992 q 673 864 585 992 q 761 492 761 736 q 672 117 761 246 q 417 -12 583 -12 m 417 88 q 590 186 533 88 q 647 492 647 285 q 590 797 647 700 q 417 893 533 893 q 244 796 301 893 q 186 492 186 699 q 244 186 186 285 q 417 88 301 88 z "},"1":{"ha":833,"x_min":176,"x_max":739,"o":"m 176 0 l 176 99 l 407 99 l 407 881 l 468 881 l 199 713 l 199 828 l 439 979 l 522 979 l 522 99 l 739 99 l 739 0 l 176 0 z "},"2":{"ha":833,"x_min":85,"x_max":760,"o":"m 119 0 l 119 86 l 467 449 q 569 584 535 519 q 603 718 603 649 q 550 847 603 803 q 397 890 497 890 q 253 863 319 890 q 126 778 188 836 l 85 868 q 226 958 140 924 q 408 992 313 992 q 638 923 557 992 q 718 728 718 854 q 673 551 718 635 q 542 378 628 467 l 235 67 l 235 99 l 760 99 l 760 0 l 119 0 z "},"3":{"ha":833,"x_min":71,"x_max":747,"o":"m 411 -12 q 222 18 313 -12 q 71 106 132 49 l 114 194 q 254 114 182 139 q 410 89 326 89 q 576 135 519 89 q 633 272 633 182 q 575 403 633 358 q 404 449 517 449 l 257 449 l 257 544 l 394 544 q 549 594 492 544 q 606 731 606 644 q 553 849 606 808 q 404 890 501 890 q 131 778 246 890 l 88 868 q 231 959 144 926 q 411 992 317 992 q 638 925 556 992 q 719 740 719 858 q 668 585 719 650 q 529 497 617 521 l 529 513 q 690 430 633 496 q 747 264 747 364 q 658 62 747 136 q 411 -12 568 -12 z "},"4":{"ha":833,"x_min":69,"x_max":799,"o":"m 536 0 l 536 213 l 69 213 l 69 296 l 554 979 l 649 979 l 649 306 l 799 306 l 799 213 l 649 213 l 649 0 l 536 0 m 536 306 l 536 843 l 567 843 l 164 276 l 164 306 l 536 306 z "},"5":{"ha":833,"x_min":101,"x_max":774,"o":"m 435 -12 q 310 1 371 -12 q 195 42 249 15 q 101 106 142 68 l 144 194 q 283 115 213 140 q 435 89 354 89 q 600 146 540 89 q 660 296 660 203 q 603 453 660 392 q 444 514 546 514 q 315 485 372 514 q 217 397 258 457 l 133 397 l 133 979 l 714 979 l 714 882 l 244 882 l 244 492 l 214 492 q 317 581 251 550 q 467 613 383 613 q 630 574 561 613 q 736 465 699 535 q 774 303 774 396 q 733 138 774 210 q 616 27 692 67 q 435 -12 540 -12 z "},"6":{"ha":833,"x_min":78,"x_max":767,"o":"m 449 -12 q 174 113 271 -12 q 78 465 78 239 q 126 752 78 635 q 265 931 175 869 q 483 992 356 992 q 638 960 560 992 q 765 874 715 929 l 724 785 q 608 865 671 839 q 482 890 546 890 q 265 790 340 890 q 189 488 189 689 l 189 358 l 176 358 q 224 495 186 438 q 325 583 263 553 q 464 614 388 614 q 621 575 553 614 q 728 466 689 536 q 767 306 767 396 q 726 142 767 214 q 614 28 686 69 q 449 -12 542 -12 m 440 85 q 553 112 504 85 q 630 188 603 139 q 657 301 657 238 q 630 414 657 365 q 553 490 603 463 q 440 518 504 518 q 328 490 376 518 q 252 414 279 463 q 225 301 225 365 q 252 188 225 238 q 328 112 279 139 q 440 85 376 85 z "},"7":{"ha":833,"x_min":92,"x_max":743,"o":"m 157 0 l 639 931 l 639 881 l 92 881 l 92 979 l 743 979 l 743 893 l 283 0 l 157 0 z "},"8":{"ha":833,"x_min":65,"x_max":769,"o":"m 417 -12 q 157 59 249 -12 q 65 260 65 131 q 128 428 65 361 q 293 510 190 496 l 293 489 q 144 574 200 508 q 89 731 89 640 q 176 923 89 854 q 417 992 264 992 q 658 923 571 992 q 746 731 746 854 q 694 574 746 640 q 549 490 642 507 l 549 510 q 710 428 650 496 q 769 260 769 361 q 678 59 769 131 q 417 -12 586 -12 m 417 82 q 599 128 539 82 q 660 267 660 174 q 599 403 660 358 q 417 449 539 449 q 234 403 294 449 q 174 267 174 358 q 235 128 174 174 q 417 82 296 82 m 417 543 q 578 590 522 543 q 635 721 635 638 q 578 851 635 804 q 417 897 522 897 q 255 851 311 897 q 199 721 199 804 q 255 590 199 638 q 417 543 311 543 z "},"9":{"ha":833,"x_min":67,"x_max":757,"o":"m 351 -12 q 197 20 275 -12 q 68 106 119 53 l 111 196 q 226 115 164 142 q 353 89 289 89 q 569 190 493 89 q 644 492 644 290 l 644 621 l 658 621 q 610 485 650 543 q 509 396 571 426 q 371 365 447 365 q 213 404 282 365 q 106 514 144 443 q 67 674 67 585 q 108 838 67 767 q 220 951 149 910 q 385 992 292 992 q 660 867 564 992 q 757 514 757 742 q 708 228 757 346 q 569 49 660 110 q 351 -12 479 -12 m 394 461 q 507 489 458 461 q 583 565 556 517 q 610 678 610 614 q 583 792 610 743 q 507 868 556 840 q 394 896 458 896 q 281 868 331 896 q 205 792 232 840 q 178 678 178 743 q 205 565 178 614 q 281 489 232 517 q 394 461 331 461 z "},"A":{"ha":1021,"x_min":25,"x_max":996,"o":"m 25 0 l 457 979 l 557 979 l 996 0 l 876 0 l 754 279 l 806 250 l 207 250 l 263 279 l 143 0 l 25 0 m 506 847 l 281 319 l 247 344 l 764 344 l 739 319 l 508 847 l 506 847 z "},"Á":{"ha":1021,"x_min":25,"x_max":996,"o":"m 25 0 l 457 979 l 557 979 l 996 0 l 876 0 l 754 279 l 806 250 l 207 250 l 263 279 l 143 0 l 25 0 m 506 847 l 281 319 l 247 344 l 764 344 l 739 319 l 508 847 l 506 847 m 465 1063 l 629 1301 l 756 1301 l 551 1063 l 465 1063 z "},"Ă":{"ha":1021,"x_min":25,"x_max":996,"o":"m 25 0 l 457 979 l 557 979 l 996 0 l 876 0 l 754 279 l 806 250 l 207 250 l 263 279 l 143 0 l 25 0 m 506 847 l 281 319 l 247 344 l 764 344 l 739 319 l 508 847 l 506 847 m 508 1056 q 346 1118 410 1056 q 274 1289 282 1181 l 344 1299 q 394 1175 351 1219 q 508 1131 438 1131 q 623 1175 579 1131 q 672 1299 667 1219 l 743 1289 q 671 1118 735 1181 q 508 1056 607 1056 z "},"Ắ":{"ha":1021,"x_min":25,"x_max":996,"o":"m 25 0 l 457 979 l 557 979 l 996 0 l 876 0 l 754 279 l 806 250 l 207 250 l 263 279 l 143 0 l 25 0 m 506 847 l 281 319 l 247 344 l 764 344 l 739 319 l 508 847 l 506 847 m 508 1056 q 357 1111 415 1056 q 290 1264 299 1167 l 354 1271 q 401 1165 363 1203 q 508 1128 440 1128 q 615 1165 576 1128 q 663 1271 654 1203 l 726 1264 q 660 1111 718 1167 q 508 1056 603 1056 m 461 1214 l 581 1411 l 699 1411 l 539 1214 l 461 1214 z "},"Ặ":{"ha":1021,"x_min":25,"x_max":996,"o":"m 25 0 l 457 979 l 557 979 l 996 0 l 876 0 l 754 279 l 806 250 l 207 250 l 263 279 l 143 0 l 25 0 m 506 847 l 281 319 l 247 344 l 764 344 l 739 319 l 508 847 l 506 847 m 444 -260 l 444 -137 l 572 -137 l 572 -260 l 444 -260 m 508 1056 q 346 1118 410 1056 q 274 1289 282 1181 l 344 1299 q 394 1175 351 1219 q 508 1131 438 1131 q 623 1175 579 1131 q 672 1299 667 1219 l 743 1289 q 671 1118 735 1181 q 508 1056 607 1056 z "},"Ằ":{"ha":1021,"x_min":25,"x_max":996,"o":"m 25 0 l 457 979 l 557 979 l 996 0 l 876 0 l 754 279 l 806 250 l 207 250 l 263 279 l 143 0 l 25 0 m 506 847 l 281 319 l 247 344 l 764 344 l 739 319 l 508 847 l 506 847 m 508 1056 q 357 1111 415 1056 q 290 1264 299 1167 l 354 1271 q 401 1165 363 1203 q 508 1128 440 1128 q 615 1165 576 1128 q 663 1271 654 1203 l 726 1264 q 660 1111 718 1167 q 508 1056 603 1056 m 478 1214 l 318 1411 l 436 1411 l 556 1214 l 478 1214 z "},"Ẳ":{"ha":1021,"x_min":25,"x_max":996,"o":"m 25 0 l 457 979 l 557 979 l 996 0 l 876 0 l 754 279 l 806 250 l 207 250 l 263 279 l 143 0 l 25 0 m 506 847 l 281 319 l 247 344 l 764 344 l 739 319 l 508 847 l 506 847 m 508 1056 q 357 1111 415 1056 q 290 1264 299 1167 l 354 1271 q 401 1165 363 1203 q 508 1128 440 1128 q 615 1165 576 1128 q 663 1271 654 1203 l 726 1264 q 660 1112 718 1168 q 508 1056 603 1056 m 474 1214 q 486 1260 474 1243 q 515 1288 499 1278 q 543 1309 531 1299 q 556 1336 556 1319 q 540 1357 556 1351 q 494 1363 525 1363 q 455 1359 476 1363 q 410 1347 433 1356 l 393 1399 q 447 1417 418 1411 q 513 1422 476 1422 q 606 1403 574 1422 q 639 1351 639 1385 q 624 1307 639 1322 q 591 1280 610 1292 q 558 1253 572 1268 q 543 1214 543 1239 l 474 1214 z "},"Ẵ":{"ha":1021,"x_min":25,"x_max":996,"o":"m 25 0 l 457 979 l 557 979 l 996 0 l 876 0 l 754 279 l 806 250 l 207 250 l 263 279 l 143 0 l 25 0 m 506 847 l 281 319 l 247 344 l 764 344 l 739 319 l 508 847 l 506 847 m 508 1056 q 367 1097 425 1056 q 290 1208 310 1138 l 354 1222 q 410 1153 371 1178 q 508 1128 449 1128 q 607 1153 568 1128 q 663 1222 646 1178 l 726 1208 q 650 1097 708 1139 q 508 1056 592 1056 m 351 1276 l 289 1281 q 330 1386 294 1350 q 419 1422 365 1422 q 469 1412 446 1422 q 521 1381 492 1401 q 567 1355 551 1361 q 596 1349 582 1349 q 644 1366 628 1349 q 665 1424 660 1383 l 728 1419 q 689 1314 724 1350 q 599 1278 654 1278 q 548 1290 572 1278 q 489 1324 524 1301 q 457 1342 474 1333 q 421 1351 440 1351 q 374 1334 390 1351 q 351 1276 358 1317 z "},"Ǎ":{"ha":1021,"x_min":25,"x_max":996,"o":"m 25 0 l 457 979 l 557 979 l 996 0 l 876 0 l 754 279 l 806 250 l 207 250 l 263 279 l 143 0 l 25 0 m 506 847 l 281 319 l 247 344 l 764 344 l 739 319 l 508 847 l 506 847 m 456 1063 l 285 1301 l 369 1301 l 508 1136 l 647 1301 l 732 1301 l 561 1063 l 456 1063 z "},"Â":{"ha":1021,"x_min":25,"x_max":996,"o":"m 25 0 l 457 979 l 557 979 l 996 0 l 876 0 l 754 279 l 806 250 l 207 250 l 263 279 l 143 0 l 25 0 m 506 847 l 281 319 l 247 344 l 764 344 l 739 319 l 508 847 l 506 847 m 285 1063 l 456 1301 l 561 1301 l 732 1063 l 647 1063 l 508 1228 l 369 1063 l 285 1063 z "},"Ấ":{"ha":1021,"x_min":25,"x_max":996,"o":"m 25 0 l 457 979 l 557 979 l 996 0 l 876 0 l 754 279 l 806 250 l 207 250 l 263 279 l 143 0 l 25 0 m 506 847 l 281 319 l 247 344 l 764 344 l 739 319 l 508 847 l 506 847 m 303 1063 l 454 1288 l 563 1288 l 714 1063 l 638 1063 l 508 1215 l 379 1063 l 303 1063 m 639 1207 l 758 1415 l 867 1415 l 713 1207 l 639 1207 z "},"Ậ":{"ha":1021,"x_min":25,"x_max":996,"o":"m 25 0 l 457 979 l 557 979 l 996 0 l 876 0 l 754 279 l 806 250 l 207 250 l 263 279 l 143 0 l 25 0 m 506 847 l 281 319 l 247 344 l 764 344 l 739 319 l 508 847 l 506 847 m 444 -260 l 444 -137 l 572 -137 l 572 -260 l 444 -260 m 285 1063 l 456 1301 l 561 1301 l 732 1063 l 647 1063 l 508 1228 l 369 1063 l 285 1063 z "},"Ầ":{"ha":1021,"x_min":25,"x_max":996,"o":"m 25 0 l 457 979 l 557 979 l 996 0 l 876 0 l 754 279 l 806 250 l 207 250 l 263 279 l 143 0 l 25 0 m 506 847 l 281 319 l 247 344 l 764 344 l 739 319 l 508 847 l 506 847 m 303 1063 l 454 1288 l 563 1288 l 714 1063 l 638 1063 l 508 1215 l 379 1063 l 303 1063 m 694 1207 l 540 1415 l 649 1415 l 768 1207 l 694 1207 z "},"Ẩ":{"ha":1021,"x_min":25,"x_max":996,"o":"m 25 0 l 457 979 l 557 979 l 996 0 l 876 0 l 754 279 l 806 250 l 207 250 l 263 279 l 143 0 l 25 0 m 506 847 l 281 319 l 247 344 l 764 344 l 739 319 l 508 847 l 506 847 m 303 1063 l 454 1288 l 563 1288 l 714 1063 l 638 1063 l 508 1215 l 379 1063 l 303 1063 m 649 1207 q 661 1254 649 1236 q 690 1284 674 1272 q 719 1307 707 1296 q 731 1333 731 1318 q 715 1356 731 1350 q 669 1361 700 1361 q 631 1358 651 1361 q 586 1344 610 1354 l 569 1396 q 623 1415 593 1408 q 689 1421 653 1421 q 781 1401 749 1421 q 814 1349 814 1382 q 800 1305 814 1321 q 767 1276 786 1289 q 733 1247 747 1263 q 719 1207 719 1232 l 649 1207 z "},"Ẫ":{"ha":1021,"x_min":25,"x_max":996,"o":"m 25 0 l 457 979 l 557 979 l 996 0 l 876 0 l 754 279 l 806 250 l 207 250 l 263 279 l 143 0 l 25 0 m 506 847 l 281 319 l 247 344 l 764 344 l 739 319 l 508 847 l 506 847 m 303 1063 l 454 1246 l 563 1246 l 714 1063 l 639 1063 l 508 1181 l 378 1063 l 303 1063 m 351 1276 l 289 1281 q 330 1386 294 1350 q 419 1422 365 1422 q 469 1412 446 1422 q 521 1381 492 1401 q 567 1355 551 1361 q 596 1349 582 1349 q 644 1366 628 1349 q 665 1424 660 1383 l 728 1419 q 689 1314 724 1350 q 599 1278 654 1278 q 548 1290 572 1278 q 489 1324 524 1301 q 457 1342 474 1333 q 421 1351 440 1351 q 374 1334 390 1351 q 351 1276 358 1317 z "},"Ȁ":{"ha":1021,"x_min":25,"x_max":996,"o":"m 25 0 l 457 979 l 557 979 l 996 0 l 876 0 l 754 279 l 806 250 l 207 250 l 263 279 l 143 0 l 25 0 m 506 847 l 281 319 l 247 344 l 764 344 l 739 319 l 508 847 l 506 847 m 564 1063 l 399 1301 l 511 1301 l 629 1063 l 564 1063 m 388 1063 l 218 1301 l 329 1301 l 453 1063 l 388 1063 z "},"Ä":{"ha":1021,"x_min":25,"x_max":996,"o":"m 25 0 l 457 979 l 557 979 l 996 0 l 876 0 l 754 279 l 806 250 l 207 250 l 263 279 l 143 0 l 25 0 m 506 847 l 281 319 l 247 344 l 764 344 l 739 319 l 508 847 l 506 847 m 569 1119 l 569 1239 l 689 1239 l 689 1119 l 569 1119 m 328 1119 l 328 1239 l 447 1239 l 447 1119 l 328 1119 z "},"Ȧ":{"ha":1021,"x_min":25,"x_max":996,"o":"m 25 0 l 457 979 l 557 979 l 996 0 l 876 0 l 754 279 l 806 250 l 207 250 l 263 279 l 143 0 l 25 0 m 506 847 l 281 319 l 247 344 l 764 344 l 739 319 l 508 847 l 506 847 m 446 1121 l 446 1243 l 571 1243 l 571 1121 l 446 1121 z "},"Ạ":{"ha":1021,"x_min":25,"x_max":996,"o":"m 25 0 l 457 979 l 557 979 l 996 0 l 876 0 l 754 279 l 806 250 l 207 250 l 263 279 l 143 0 l 25 0 m 506 847 l 281 319 l 247 344 l 764 344 l 739 319 l 508 847 l 506 847 m 444 -260 l 444 -137 l 572 -137 l 572 -260 l 444 -260 z "},"À":{"ha":1021,"x_min":25,"x_max":996,"o":"m 25 0 l 457 979 l 557 979 l 996 0 l 876 0 l 754 279 l 806 250 l 207 250 l 263 279 l 143 0 l 25 0 m 506 847 l 281 319 l 247 344 l 764 344 l 739 319 l 508 847 l 506 847 m 465 1063 l 261 1301 l 388 1301 l 551 1063 l 465 1063 z "},"Ả":{"ha":1021,"x_min":25,"x_max":996,"o":"m 25 0 l 457 979 l 557 979 l 996 0 l 876 0 l 754 279 l 806 250 l 207 250 l 263 279 l 143 0 l 25 0 m 506 847 l 281 319 l 247 344 l 764 344 l 739 319 l 508 847 l 506 847 m 469 1063 l 469 1085 q 483 1130 469 1113 q 513 1160 496 1147 q 544 1183 531 1172 q 557 1211 557 1194 q 541 1235 557 1226 q 493 1243 525 1243 q 451 1239 471 1243 q 404 1222 431 1235 l 386 1282 q 515 1310 438 1310 q 613 1286 578 1310 q 649 1224 649 1263 q 633 1176 649 1194 q 598 1147 618 1158 q 563 1119 578 1135 q 547 1078 547 1104 l 547 1063 l 469 1063 z "},"Ȃ":{"ha":1021,"x_min":25,"x_max":996,"o":"m 25 0 l 457 979 l 557 979 l 996 0 l 876 0 l 754 279 l 806 250 l 207 250 l 263 279 l 143 0 l 25 0 m 506 847 l 281 319 l 247 344 l 764 344 l 739 319 l 508 847 l 506 847 m 344 1056 l 274 1064 q 346 1236 282 1174 q 508 1299 410 1299 q 671 1236 607 1299 q 743 1064 735 1174 l 672 1056 q 623 1180 667 1136 q 508 1224 579 1224 q 394 1180 438 1224 q 344 1056 351 1136 z "},"Ā":{"ha":1021,"x_min":25,"x_max":996,"o":"m 25 0 l 457 979 l 557 979 l 996 0 l 876 0 l 754 279 l 806 250 l 207 250 l 263 279 l 143 0 l 25 0 m 506 847 l 281 319 l 247 344 l 764 344 l 739 319 l 508 847 l 506 847 m 282 1131 l 282 1207 l 735 1207 l 735 1131 l 282 1131 z "},"Ą":{"ha":1021,"x_min":25,"x_max":1051,"o":"m 25 0 l 457 979 l 557 979 l 996 0 l 876 0 l 754 279 l 806 250 l 207 250 l 263 279 l 143 0 l 25 0 m 506 847 l 281 319 l 247 344 l 764 344 l 739 319 l 508 847 l 506 847 m 942 -267 q 835 -231 875 -267 q 794 -132 794 -194 q 831 -27 794 -76 q 928 50 867 22 l 968 0 q 924 -26 946 -8 q 889 -67 903 -43 q 875 -119 875 -90 q 899 -178 875 -158 q 956 -197 922 -197 q 993 -193 975 -197 q 1031 -181 1011 -189 l 1050 -243 q 1003 -260 1031 -254 q 942 -267 975 -267 z "},"Å":{"ha":1021,"x_min":25,"x_max":996,"o":"m 25 0 l 457 979 l 557 979 l 996 0 l 876 0 l 754 279 l 806 250 l 207 250 l 263 279 l 143 0 l 25 0 m 506 847 l 281 319 l 247 344 l 764 344 l 739 319 l 508 847 l 506 847 m 508 1053 q 425 1074 463 1053 q 365 1133 388 1096 q 343 1214 343 1169 q 365 1295 343 1260 q 425 1352 388 1331 q 508 1374 463 1374 q 592 1352 556 1374 q 651 1295 629 1331 q 674 1214 674 1260 q 651 1133 674 1169 q 592 1074 629 1096 q 508 1053 556 1053 m 508 1113 q 581 1142 553 1113 q 608 1214 608 1171 q 581 1285 608 1256 q 508 1314 553 1314 q 437 1285 465 1314 q 408 1214 408 1256 q 437 1142 408 1171 q 508 1113 465 1113 z "},"Ǻ":{"ha":1021,"x_min":25,"x_max":996,"o":"m 25 0 l 457 979 l 557 979 l 996 0 l 876 0 l 754 279 l 806 250 l 207 250 l 263 279 l 143 0 l 25 0 m 506 847 l 281 319 l 247 344 l 764 344 l 739 319 l 508 847 l 506 847 m 508 1053 q 427 1074 464 1053 q 369 1131 390 1094 q 347 1210 347 1167 q 369 1290 347 1256 q 427 1347 390 1325 q 508 1368 464 1368 q 558 1361 535 1368 q 600 1340 581 1354 l 699 1432 l 808 1432 l 646 1293 q 669 1210 669 1257 q 648 1131 669 1167 q 590 1074 626 1094 q 508 1053 554 1053 m 508 1110 q 581 1139 553 1110 q 608 1210 608 1168 q 581 1281 608 1253 q 508 1310 553 1310 q 437 1281 465 1310 q 408 1210 408 1253 q 437 1139 408 1168 q 508 1110 465 1110 z "},"Ã":{"ha":1021,"x_min":25,"x_max":996,"o":"m 25 0 l 457 979 l 557 979 l 996 0 l 876 0 l 754 279 l 806 250 l 207 250 l 263 279 l 143 0 l 25 0 m 506 847 l 281 319 l 247 344 l 764 344 l 739 319 l 508 847 l 506 847 m 282 1088 l 218 1092 q 272 1228 226 1181 q 385 1276 317 1276 q 449 1263 417 1276 q 528 1219 482 1250 q 593 1182 571 1193 q 636 1171 615 1171 q 701 1199 678 1171 q 735 1281 725 1228 l 799 1276 q 746 1140 790 1188 q 633 1092 701 1092 q 568 1106 601 1092 q 485 1151 535 1119 q 424 1187 447 1176 q 381 1197 400 1197 q 315 1169 339 1197 q 282 1088 292 1140 z "},"Æ":{"ha":1397,"x_min":-3,"x_max":1328,"o":"m -3 0 l 596 979 l 1328 979 l 1328 885 l 774 885 l 803 915 l 839 514 l 815 544 l 1297 544 l 1297 449 l 825 449 l 843 463 l 881 63 l 864 96 l 1328 96 l 1328 0 l 778 0 l 753 272 l 789 250 l 256 250 l 294 281 l 125 0 l -3 0 m 654 883 l 317 318 l 303 346 l 763 346 l 750 315 l 699 883 l 654 883 z "},"Ǽ":{"ha":1397,"x_min":-3,"x_max":1328,"o":"m -3 0 l 596 979 l 1328 979 l 1328 885 l 774 885 l 803 915 l 839 514 l 815 544 l 1297 544 l 1297 449 l 825 449 l 843 463 l 881 63 l 864 96 l 1328 96 l 1328 0 l 778 0 l 753 272 l 789 250 l 256 250 l 294 281 l 125 0 l -3 0 m 654 883 l 317 318 l 303 346 l 763 346 l 750 315 l 699 883 l 654 883 m 674 1063 l 838 1301 l 964 1301 l 760 1063 l 674 1063 z "},"B":{"ha":944,"x_min":122,"x_max":864,"o":"m 122 0 l 122 979 l 514 979 q 754 913 669 979 q 839 724 839 846 q 784 571 839 632 q 632 490 729 510 l 632 510 q 802 435 740 497 q 864 269 864 374 q 777 69 864 139 q 532 0 690 0 l 122 0 m 235 93 l 521 93 q 688 134 626 93 q 750 271 750 175 q 688 409 750 368 q 521 450 626 450 l 235 450 l 235 93 m 235 542 l 497 542 q 668 586 611 542 q 725 714 725 631 q 668 844 725 800 q 497 888 611 888 l 235 888 l 235 542 z "},"Ɓ":{"ha":1124,"x_min":-1,"x_max":1042,"o":"m 301 0 l 301 892 l 254 892 q 135 855 174 892 q 97 742 97 818 l 97 679 l -1 679 l -1 746 q 65 921 -1 863 q 268 979 131 979 l 693 979 q 932 913 847 979 q 1017 724 1017 846 q 962 572 1017 633 q 811 490 907 510 l 811 510 q 981 435 921 497 q 1042 269 1042 372 q 955 69 1042 139 q 710 0 868 0 l 301 0 m 413 93 l 699 93 q 872 137 814 93 q 929 271 929 181 q 872 406 929 361 q 700 450 815 450 l 413 450 l 413 93 m 413 542 l 676 542 q 846 586 789 542 q 903 714 903 631 q 846 844 903 800 q 676 888 789 888 l 413 888 l 413 542 z "},"C":{"ha":950,"x_min":86,"x_max":878,"o":"m 549 -12 q 299 49 401 -12 q 141 222 196 110 q 86 490 86 335 q 141 758 86 646 q 299 931 196 869 q 549 992 401 992 q 735 960 653 992 q 878 867 817 928 l 835 775 q 703 860 768 833 q 550 888 638 888 q 294 783 382 888 q 207 490 207 679 q 294 197 207 301 q 550 92 382 92 q 703 119 638 92 q 835 206 768 146 l 878 113 q 735 20 817 53 q 549 -12 653 -12 z "},"Ć":{"ha":950,"x_min":86,"x_max":878,"o":"m 549 -12 q 299 49 401 -12 q 141 222 196 110 q 86 490 86 335 q 141 758 86 646 q 299 931 196 869 q 549 992 401 992 q 735 960 653 992 q 878 867 817 928 l 835 775 q 703 860 768 833 q 550 888 638 888 q 294 783 382 888 q 207 490 207 679 q 294 197 207 301 q 550 92 382 92 q 703 119 638 92 q 835 206 768 146 l 878 113 q 735 20 817 53 q 549 -12 653 -12 m 501 1063 l 665 1301 l 792 1301 l 588 1063 l 501 1063 z "},"Č":{"ha":950,"x_min":86,"x_max":878,"o":"m 549 -12 q 299 49 401 -12 q 141 222 196 110 q 86 490 86 335 q 141 758 86 646 q 299 931 196 869 q 549 992 401 992 q 735 960 653 992 q 878 867 817 928 l 835 775 q 703 860 768 833 q 550 888 638 888 q 294 783 382 888 q 207 490 207 679 q 294 197 207 301 q 550 92 382 92 q 703 119 638 92 q 835 206 768 146 l 878 113 q 735 20 817 53 q 549 -12 653 -12 m 492 1063 l 321 1301 l 406 1301 l 544 1136 l 683 1301 l 768 1301 l 597 1063 l 492 1063 z "},"Ç":{"ha":950,"x_min":86,"x_max":878,"o":"m 549 -12 q 299 49 401 -12 q 141 222 196 110 q 86 490 86 335 q 141 758 86 646 q 299 931 196 869 q 549 992 401 992 q 735 960 653 992 q 878 867 817 928 l 835 775 q 703 860 768 833 q 550 888 638 888 q 294 783 382 888 q 207 490 207 679 q 294 197 207 301 q 550 92 382 92 q 703 119 638 92 q 835 206 768 146 l 878 113 q 735 20 817 53 q 549 -12 653 -12 m 547 -267 q 478 -260 511 -267 q 422 -240 446 -253 l 442 -179 q 490 -196 467 -190 q 543 -201 513 -201 q 603 -188 581 -201 q 625 -150 625 -175 q 572 -111 625 -111 q 542 -113 557 -111 q 507 -124 528 -115 l 483 -101 l 504 28 l 575 28 l 557 -76 l 524 -68 q 556 -61 539 -64 q 586 -58 572 -58 q 669 -83 636 -58 q 703 -153 703 -108 q 660 -235 703 -204 q 547 -267 617 -267 z "},"Ḉ":{"ha":950,"x_min":86,"x_max":878,"o":"m 549 -12 q 299 49 401 -12 q 141 222 196 110 q 86 490 86 335 q 141 758 86 646 q 299 931 196 869 q 549 992 401 992 q 735 960 653 992 q 878 867 817 928 l 835 775 q 703 860 768 833 q 550 888 638 888 q 294 783 382 888 q 207 490 207 679 q 294 197 207 301 q 550 92 382 92 q 703 119 638 92 q 835 206 768 146 l 878 113 q 735 20 817 53 q 549 -12 653 -12 m 547 -267 q 478 -260 511 -267 q 422 -240 446 -253 l 442 -179 q 490 -196 467 -190 q 543 -201 513 -201 q 603 -188 581 -201 q 625 -150 625 -175 q 572 -111 625 -111 q 542 -113 557 -111 q 507 -124 528 -115 l 483 -101 l 504 28 l 575 28 l 557 -76 l 524 -68 q 556 -61 539 -64 q 586 -58 572 -58 q 669 -83 636 -58 q 703 -153 703 -108 q 660 -235 703 -204 q 547 -267 617 -267 m 501 1063 l 665 1301 l 792 1301 l 588 1063 l 501 1063 z "},"Ĉ":{"ha":950,"x_min":86,"x_max":878,"o":"m 549 -12 q 299 49 401 -12 q 141 222 196 110 q 86 490 86 335 q 141 758 86 646 q 299 931 196 869 q 549 992 401 992 q 735 960 653 992 q 878 867 817 928 l 835 775 q 703 860 768 833 q 550 888 638 888 q 294 783 382 888 q 207 490 207 679 q 294 197 207 301 q 550 92 382 92 q 703 119 638 92 q 835 206 768 146 l 878 113 q 735 20 817 53 q 549 -12 653 -12 m 321 1063 l 492 1301 l 597 1301 l 768 1063 l 683 1063 l 544 1228 l 406 1063 l 321 1063 z "},"Ċ":{"ha":950,"x_min":86,"x_max":878,"o":"m 549 -12 q 299 49 401 -12 q 141 222 196 110 q 86 490 86 335 q 141 758 86 646 q 299 931 196 869 q 549 992 401 992 q 735 960 653 992 q 878 867 817 928 l 835 775 q 703 860 768 833 q 550 888 638 888 q 294 783 382 888 q 207 490 207 679 q 294 197 207 301 q 550 92 382 92 q 703 119 638 92 q 835 206 768 146 l 878 113 q 735 20 817 53 q 549 -12 653 -12 m 482 1121 l 482 1243 l 607 1243 l 607 1121 l 482 1121 z "},"D":{"ha":1038,"x_min":122,"x_max":951,"o":"m 122 0 l 122 979 l 447 979 q 722 923 610 979 q 893 758 835 867 q 951 490 951 649 q 893 224 951 333 q 722 57 835 114 q 447 0 610 0 l 122 0 m 238 99 l 439 99 q 736 197 639 99 q 833 490 833 294 q 736 785 833 688 q 439 882 639 882 l 238 882 l 238 99 z "},"Ǆ":{"ha":1843,"x_min":122,"x_max":1794,"o":"m 122 0 l 122 979 l 447 979 q 722 923 610 979 q 893 758 835 867 q 951 490 951 649 q 893 224 951 333 q 722 57 835 114 q 447 0 610 0 l 122 0 m 238 99 l 439 99 q 736 197 639 99 q 833 490 833 294 q 736 785 833 688 q 439 882 639 882 l 238 882 l 238 99 m 1076 0 l 1076 85 l 1669 925 l 1669 881 l 1076 881 l 1076 979 l 1779 979 l 1779 894 l 1185 56 l 1185 99 l 1794 99 l 1794 0 l 1076 0 m 1383 1063 l 1213 1301 l 1297 1301 l 1436 1136 l 1575 1301 l 1660 1301 l 1489 1063 l 1383 1063 z "},"Ð":{"ha":1038,"x_min":3,"x_max":951,"o":"m 122 0 l 122 979 l 447 979 q 722 923 610 979 q 893 758 835 867 q 951 490 951 649 q 893 224 951 333 q 722 57 835 114 q 447 0 610 0 l 122 0 m 238 99 l 439 99 q 736 197 639 99 q 833 490 833 294 q 736 785 833 688 q 439 882 639 882 l 238 882 l 238 99 m 3 453 l 3 542 l 513 542 l 513 453 l 3 453 z "},"Ď":{"ha":1038,"x_min":122,"x_max":951,"o":"m 122 0 l 122 979 l 447 979 q 722 923 610 979 q 893 758 835 867 q 951 490 951 649 q 893 224 951 333 q 722 57 835 114 q 447 0 610 0 l 122 0 m 238 99 l 439 99 q 736 197 639 99 q 833 490 833 294 q 736 785 833 688 q 439 882 639 882 l 238 882 l 238 99 m 475 1063 l 304 1301 l 389 1301 l 528 1136 l 667 1301 l 751 1301 l 581 1063 l 475 1063 z "},"Đ":{"ha":1038,"x_min":3,"x_max":951,"o":"m 122 0 l 122 979 l 447 979 q 722 923 610 979 q 893 758 835 867 q 951 490 951 649 q 893 224 951 333 q 722 57 835 114 q 447 0 610 0 l 122 0 m 238 99 l 439 99 q 736 197 639 99 q 833 490 833 294 q 736 785 833 688 q 439 882 639 882 l 238 882 l 238 99 m 3 453 l 3 542 l 513 542 l 513 453 l 3 453 z "},"Ḍ":{"ha":1038,"x_min":122,"x_max":951,"o":"m 122 0 l 122 979 l 447 979 q 722 923 610 979 q 893 758 835 867 q 951 490 951 649 q 893 224 951 333 q 722 57 835 114 q 447 0 610 0 l 122 0 m 238 99 l 439 99 q 736 197 639 99 q 833 490 833 294 q 736 785 833 688 q 439 882 639 882 l 238 882 l 238 99 m 464 -260 l 464 -137 l 592 -137 l 592 -260 l 464 -260 z "},"Ɗ":{"ha":1217,"x_min":-1,"x_max":1131,"o":"m 301 0 l 301 892 l 254 892 q 135 855 174 892 q 97 742 97 818 l 97 679 l -1 679 l -1 746 q 63 921 -1 863 q 258 979 128 979 l 626 979 q 1000 854 869 979 q 1131 490 1131 729 q 1000 126 1131 251 q 626 0 869 0 l 301 0 m 417 99 l 617 99 q 915 197 817 99 q 1013 490 1013 294 q 915 785 1013 688 q 617 882 817 882 l 417 882 l 417 99 z "},"Ḏ":{"ha":1038,"x_min":122,"x_max":951,"o":"m 122 0 l 122 979 l 447 979 q 722 923 610 979 q 893 758 835 867 q 951 490 951 649 q 893 224 951 333 q 722 57 835 114 q 447 0 610 0 l 122 0 m 238 99 l 439 99 q 736 197 639 99 q 833 490 833 294 q 736 785 833 688 q 439 882 639 882 l 238 882 l 238 99 m 322 -217 l 322 -140 l 733 -140 l 733 -217 l 322 -217 z "},"ǅ":{"ha":1757,"x_min":122,"x_max":1697,"o":"m 122 0 l 122 979 l 447 979 q 722 923 610 979 q 893 758 835 867 q 951 490 951 649 q 893 224 951 333 q 722 57 835 114 q 447 0 610 0 l 122 0 m 238 99 l 439 99 q 736 197 639 99 q 833 490 833 294 q 736 785 833 688 q 439 882 639 882 l 238 882 l 238 99 m 1107 0 l 1107 75 l 1576 639 l 1578 610 l 1107 610 l 1107 697 l 1682 697 l 1682 622 l 1207 56 l 1206 88 l 1697 88 l 1697 0 l 1107 0 m 1342 765 l 1190 1046 l 1268 1046 l 1396 840 l 1524 1046 l 1601 1046 l 1450 765 l 1342 765 z "},"E":{"ha":817,"x_min":122,"x_max":747,"o":"m 122 0 l 122 979 l 747 979 l 747 885 l 235 885 l 235 544 l 717 544 l 717 449 l 235 449 l 235 96 l 747 96 l 747 0 l 122 0 z "},"É":{"ha":817,"x_min":122,"x_max":747,"o":"m 122 0 l 122 979 l 747 979 l 747 885 l 235 885 l 235 544 l 717 544 l 717 449 l 235 449 l 235 96 l 747 96 l 747 0 l 122 0 m 413 1063 l 576 1301 l 703 1301 l 499 1063 l 413 1063 z "},"Ĕ":{"ha":817,"x_min":122,"x_max":747,"o":"m 122 0 l 122 979 l 747 979 l 747 885 l 235 885 l 235 544 l 717 544 l 717 449 l 235 449 l 235 96 l 747 96 l 747 0 l 122 0 m 456 1056 q 293 1118 357 1056 q 221 1289 229 1181 l 292 1299 q 342 1175 299 1219 q 456 1131 385 1131 q 570 1175 526 1131 q 619 1299 614 1219 l 690 1289 q 618 1118 682 1181 q 456 1056 554 1056 z "},"Ě":{"ha":817,"x_min":122,"x_max":747,"o":"m 122 0 l 122 979 l 747 979 l 747 885 l 235 885 l 235 544 l 717 544 l 717 449 l 235 449 l 235 96 l 747 96 l 747 0 l 122 0 m 403 1063 l 232 1301 l 317 1301 l 456 1136 l 594 1301 l 679 1301 l 508 1063 l 403 1063 z "},"Ȩ":{"ha":817,"x_min":122,"x_max":747,"o":"m 122 0 l 122 979 l 747 979 l 747 885 l 235 885 l 235 544 l 717 544 l 717 449 l 235 449 l 235 96 l 747 96 l 747 0 l 122 0 m 460 -267 q 391 -260 424 -267 q 335 -240 358 -253 l 354 -179 q 402 -196 379 -190 q 456 -201 425 -201 q 515 -188 493 -201 q 538 -150 538 -175 q 485 -111 538 -111 q 455 -113 469 -111 q 419 -124 440 -115 l 396 -101 l 417 28 l 488 28 l 469 -76 l 436 -68 q 468 -61 451 -64 q 499 -58 485 -58 q 582 -83 549 -58 q 615 -153 615 -108 q 572 -235 615 -204 q 460 -267 529 -267 z "},"Ḝ":{"ha":817,"x_min":122,"x_max":747,"o":"m 122 0 l 122 979 l 747 979 l 747 885 l 235 885 l 235 544 l 717 544 l 717 449 l 235 449 l 235 96 l 747 96 l 747 0 l 122 0 m 460 -267 q 391 -260 424 -267 q 335 -240 358 -253 l 354 -179 q 402 -196 379 -190 q 456 -201 425 -201 q 515 -188 493 -201 q 538 -150 538 -175 q 485 -111 538 -111 q 455 -113 469 -111 q 419 -124 440 -115 l 396 -101 l 417 28 l 488 28 l 469 -76 l 436 -68 q 468 -61 451 -64 q 499 -58 485 -58 q 582 -83 549 -58 q 615 -153 615 -108 q 572 -235 615 -204 q 460 -267 529 -267 m 456 1056 q 293 1118 357 1056 q 221 1289 229 1181 l 292 1299 q 342 1175 299 1219 q 456 1131 385 1131 q 570 1175 526 1131 q 619 1299 614 1219 l 690 1289 q 618 1118 682 1181 q 456 1056 554 1056 z "},"Ê":{"ha":817,"x_min":122,"x_max":747,"o":"m 122 0 l 122 979 l 747 979 l 747 885 l 235 885 l 235 544 l 717 544 l 717 449 l 235 449 l 235 96 l 747 96 l 747 0 l 122 0 m 232 1063 l 403 1301 l 508 1301 l 679 1063 l 594 1063 l 456 1228 l 317 1063 l 232 1063 z "},"Ế":{"ha":817,"x_min":122,"x_max":813,"o":"m 122 0 l 122 979 l 747 979 l 747 885 l 235 885 l 235 544 l 717 544 l 717 449 l 235 449 l 235 96 l 747 96 l 747 0 l 122 0 m 250 1063 l 401 1288 l 510 1288 l 661 1063 l 585 1063 l 456 1215 l 326 1063 l 250 1063 m 586 1207 l 706 1415 l 814 1415 l 660 1207 l 586 1207 z "},"Ệ":{"ha":817,"x_min":122,"x_max":747,"o":"m 122 0 l 122 979 l 747 979 l 747 885 l 235 885 l 235 544 l 717 544 l 717 449 l 235 449 l 235 96 l 747 96 l 747 0 l 122 0 m 392 -260 l 392 -137 l 519 -137 l 519 -260 l 392 -260 m 232 1063 l 403 1301 l 508 1301 l 679 1063 l 594 1063 l 456 1228 l 317 1063 l 232 1063 z "},"Ề":{"ha":817,"x_min":122,"x_max":747,"o":"m 122 0 l 122 979 l 747 979 l 747 885 l 235 885 l 235 544 l 717 544 l 717 449 l 235 449 l 235 96 l 747 96 l 747 0 l 122 0 m 250 1063 l 401 1288 l 510 1288 l 661 1063 l 585 1063 l 456 1215 l 326 1063 l 250 1063 m 642 1207 l 488 1415 l 596 1415 l 715 1207 l 642 1207 z "},"Ể":{"ha":817,"x_min":122,"x_max":761,"o":"m 122 0 l 122 979 l 747 979 l 747 885 l 235 885 l 235 544 l 717 544 l 717 449 l 235 449 l 235 96 l 747 96 l 747 0 l 122 0 m 250 1063 l 401 1288 l 510 1288 l 661 1063 l 585 1063 l 456 1215 l 326 1063 l 250 1063 m 596 1207 q 608 1254 596 1236 q 638 1284 621 1272 q 666 1307 654 1296 q 678 1333 678 1318 q 663 1356 678 1350 q 617 1361 647 1361 q 578 1358 599 1361 q 533 1344 557 1354 l 517 1396 q 570 1415 540 1408 q 636 1421 600 1421 q 728 1401 696 1421 q 761 1349 761 1382 q 747 1305 761 1321 q 714 1276 733 1289 q 681 1247 694 1263 q 667 1207 667 1232 l 596 1207 z "},"Ễ":{"ha":817,"x_min":122,"x_max":747,"o":"m 122 0 l 122 979 l 747 979 l 747 885 l 235 885 l 235 544 l 717 544 l 717 449 l 235 449 l 235 96 l 747 96 l 747 0 l 122 0 m 250 1063 l 401 1246 l 510 1246 l 661 1063 l 586 1063 l 456 1181 l 325 1063 l 250 1063 m 299 1276 l 236 1281 q 277 1386 242 1350 q 367 1422 313 1422 q 416 1412 393 1422 q 468 1381 439 1401 q 514 1355 499 1361 q 543 1349 529 1349 q 591 1366 575 1349 q 613 1424 607 1383 l 675 1419 q 636 1314 671 1350 q 546 1278 601 1278 q 495 1290 519 1278 q 436 1324 471 1301 q 404 1342 421 1333 q 368 1351 388 1351 q 322 1334 338 1351 q 299 1276 306 1317 z "},"Ȅ":{"ha":817,"x_min":122,"x_max":747,"o":"m 122 0 l 122 979 l 747 979 l 747 885 l 235 885 l 235 544 l 717 544 l 717 449 l 235 449 l 235 96 l 747 96 l 747 0 l 122 0 m 511 1063 l 346 1301 l 458 1301 l 576 1063 l 511 1063 m 335 1063 l 165 1301 l 276 1301 l 400 1063 l 335 1063 z "},"Ë":{"ha":817,"x_min":122,"x_max":747,"o":"m 122 0 l 122 979 l 747 979 l 747 885 l 235 885 l 235 544 l 717 544 l 717 449 l 235 449 l 235 96 l 747 96 l 747 0 l 122 0 m 517 1119 l 517 1239 l 636 1239 l 636 1119 l 517 1119 m 275 1119 l 275 1239 l 394 1239 l 394 1119 l 275 1119 z "},"Ė":{"ha":817,"x_min":122,"x_max":747,"o":"m 122 0 l 122 979 l 747 979 l 747 885 l 235 885 l 235 544 l 717 544 l 717 449 l 235 449 l 235 96 l 747 96 l 747 0 l 122 0 m 393 1121 l 393 1243 l 518 1243 l 518 1121 l 393 1121 z "},"Ẹ":{"ha":817,"x_min":122,"x_max":747,"o":"m 122 0 l 122 979 l 747 979 l 747 885 l 235 885 l 235 544 l 717 544 l 717 449 l 235 449 l 235 96 l 747 96 l 747 0 l 122 0 m 392 -260 l 392 -137 l 519 -137 l 519 -260 l 392 -260 z "},"È":{"ha":817,"x_min":122,"x_max":747,"o":"m 122 0 l 122 979 l 747 979 l 747 885 l 235 885 l 235 544 l 717 544 l 717 449 l 235 449 l 235 96 l 747 96 l 747 0 l 122 0 m 413 1063 l 208 1301 l 335 1301 l 499 1063 l 413 1063 z "},"Ẻ":{"ha":817,"x_min":122,"x_max":747,"o":"m 122 0 l 122 979 l 747 979 l 747 885 l 235 885 l 235 544 l 717 544 l 717 449 l 235 449 l 235 96 l 747 96 l 747 0 l 122 0 m 417 1063 l 417 1085 q 430 1130 417 1113 q 460 1160 443 1147 q 491 1183 478 1172 q 504 1211 504 1194 q 488 1235 504 1226 q 440 1243 472 1243 q 398 1239 418 1243 q 351 1222 378 1235 l 333 1282 q 463 1310 385 1310 q 560 1286 525 1310 q 596 1224 596 1263 q 581 1176 596 1194 q 545 1147 565 1158 q 510 1119 525 1135 q 494 1078 494 1104 l 494 1063 l 417 1063 z "},"Ȇ":{"ha":817,"x_min":122,"x_max":747,"o":"m 122 0 l 122 979 l 747 979 l 747 885 l 235 885 l 235 544 l 717 544 l 717 449 l 235 449 l 235 96 l 747 96 l 747 0 l 122 0 m 292 1056 l 221 1064 q 293 1236 229 1174 q 456 1299 357 1299 q 618 1236 554 1299 q 690 1064 682 1174 l 619 1056 q 570 1180 614 1136 q 456 1224 526 1224 q 342 1180 385 1224 q 292 1056 299 1136 z "},"Ē":{"ha":817,"x_min":122,"x_max":747,"o":"m 122 0 l 122 979 l 747 979 l 747 885 l 235 885 l 235 544 l 717 544 l 717 449 l 235 449 l 235 96 l 747 96 l 747 0 l 122 0 m 229 1131 l 229 1207 l 682 1207 l 682 1131 l 229 1131 z "},"Ḗ":{"ha":817,"x_min":122,"x_max":747,"o":"m 122 0 l 122 979 l 747 979 l 747 885 l 235 885 l 235 544 l 717 544 l 717 449 l 235 449 l 235 96 l 747 96 l 747 0 l 122 0 m 250 1097 l 250 1174 l 661 1174 l 661 1097 l 250 1097 m 417 1225 l 536 1421 l 654 1421 l 494 1225 l 417 1225 z "},"Ḕ":{"ha":817,"x_min":122,"x_max":747,"o":"m 122 0 l 122 979 l 747 979 l 747 885 l 235 885 l 235 544 l 717 544 l 717 449 l 235 449 l 235 96 l 747 96 l 747 0 l 122 0 m 417 1225 l 257 1421 l 375 1421 l 494 1225 l 417 1225 m 250 1097 l 250 1174 l 661 1174 l 661 1097 l 250 1097 z "},"Ę":{"ha":817,"x_min":122,"x_max":783,"o":"m 122 0 l 122 979 l 747 979 l 747 885 l 235 885 l 235 544 l 717 544 l 717 449 l 235 449 l 235 96 l 747 96 l 747 0 l 122 0 m 675 -267 q 568 -231 608 -267 q 528 -132 528 -194 q 564 -27 528 -76 q 661 50 600 22 l 701 0 q 658 -26 679 -8 q 622 -67 636 -43 q 608 -119 608 -90 q 632 -178 608 -158 q 689 -197 656 -197 q 726 -193 708 -197 q 764 -181 744 -189 l 783 -243 q 736 -260 764 -254 q 675 -267 708 -267 z "},"Ẽ":{"ha":817,"x_min":122,"x_max":747,"o":"m 122 0 l 122 979 l 747 979 l 747 885 l 235 885 l 235 544 l 717 544 l 717 449 l 235 449 l 235 96 l 747 96 l 747 0 l 122 0 m 229 1088 l 165 1092 q 219 1228 174 1181 q 332 1276 264 1276 q 397 1263 364 1276 q 475 1219 429 1250 q 540 1182 518 1193 q 583 1171 563 1171 q 649 1199 625 1171 q 682 1281 672 1228 l 746 1276 q 693 1140 738 1188 q 581 1092 649 1092 q 515 1106 549 1092 q 432 1151 482 1119 q 371 1187 394 1176 q 328 1197 347 1197 q 263 1169 286 1197 q 229 1088 239 1140 z "},"F":{"ha":781,"x_min":122,"x_max":733,"o":"m 122 0 l 122 979 l 733 979 l 733 885 l 238 885 l 238 542 l 703 542 l 703 447 l 238 447 l 238 0 l 122 0 z "},"G":{"ha":1015,"x_min":86,"x_max":904,"o":"m 572 -12 q 303 47 411 -12 q 140 219 194 107 q 86 489 86 332 q 143 757 86 644 q 307 931 200 869 q 565 992 414 992 q 751 960 672 992 q 892 868 829 929 l 849 778 q 760 842 803 818 q 672 877 718 865 q 565 889 626 889 q 299 784 392 889 q 207 488 207 679 q 297 192 207 294 q 575 89 386 89 q 708 102 644 89 q 831 140 771 115 l 806 78 l 806 422 l 556 422 l 556 513 l 904 513 l 904 58 q 753 7 844 26 q 572 -12 663 -12 z "},"Ğ":{"ha":1015,"x_min":86,"x_max":904,"o":"m 572 -12 q 303 47 411 -12 q 140 219 194 107 q 86 489 86 332 q 143 757 86 644 q 307 931 200 869 q 565 992 414 992 q 751 960 672 992 q 892 868 829 929 l 849 778 q 760 842 803 818 q 672 877 718 865 q 565 889 626 889 q 299 784 392 889 q 207 488 207 679 q 297 192 207 294 q 575 89 386 89 q 708 102 644 89 q 831 140 771 115 l 806 78 l 806 422 l 556 422 l 556 513 l 904 513 l 904 58 q 753 7 844 26 q 572 -12 663 -12 m 556 1056 q 393 1118 457 1056 q 321 1289 329 1181 l 392 1299 q 442 1175 399 1219 q 556 1131 485 1131 q 670 1175 626 1131 q 719 1299 714 1219 l 790 1289 q 718 1118 782 1181 q 556 1056 654 1056 z "},"Ǧ":{"ha":1015,"x_min":86,"x_max":904,"o":"m 572 -12 q 303 47 411 -12 q 140 219 194 107 q 86 489 86 332 q 143 757 86 644 q 307 931 200 869 q 565 992 414 992 q 751 960 672 992 q 892 868 829 929 l 849 778 q 760 842 803 818 q 672 877 718 865 q 565 889 626 889 q 299 784 392 889 q 207 488 207 679 q 297 192 207 294 q 575 89 386 89 q 708 102 644 89 q 831 140 771 115 l 806 78 l 806 422 l 556 422 l 556 513 l 904 513 l 904 58 q 753 7 844 26 q 572 -12 663 -12 m 503 1063 l 332 1301 l 417 1301 l 556 1136 l 694 1301 l 779 1301 l 608 1063 l 503 1063 z "},"Ĝ":{"ha":1015,"x_min":86,"x_max":904,"o":"m 572 -12 q 303 47 411 -12 q 140 219 194 107 q 86 489 86 332 q 143 757 86 644 q 307 931 200 869 q 565 992 414 992 q 751 960 672 992 q 892 868 829 929 l 849 778 q 760 842 803 818 q 672 877 718 865 q 565 889 626 889 q 299 784 392 889 q 207 488 207 679 q 297 192 207 294 q 575 89 386 89 q 708 102 644 89 q 831 140 771 115 l 806 78 l 806 422 l 556 422 l 556 513 l 904 513 l 904 58 q 753 7 844 26 q 572 -12 663 -12 m 332 1063 l 503 1301 l 608 1301 l 779 1063 l 694 1063 l 556 1228 l 417 1063 l 332 1063 z "},"Ģ":{"ha":1015,"x_min":86,"x_max":904,"o":"m 572 -12 q 303 47 411 -12 q 140 219 194 107 q 86 489 86 332 q 143 757 86 644 q 307 931 200 869 q 565 992 414 992 q 751 960 672 992 q 892 868 829 929 l 849 778 q 760 842 803 818 q 672 877 718 865 q 565 889 626 889 q 299 784 392 889 q 207 488 207 679 q 297 192 207 294 q 575 89 386 89 q 708 102 644 89 q 831 140 771 115 l 806 78 l 806 422 l 556 422 l 556 513 l 904 513 l 904 58 q 753 7 844 26 q 572 -12 663 -12 m 569 -372 l 519 -336 q 562 -274 551 -303 q 572 -211 572 -244 l 601 -225 l 504 -225 l 504 -111 l 642 -111 l 642 -194 q 624 -291 642 -246 q 569 -372 607 -336 z "},"Ġ":{"ha":1015,"x_min":86,"x_max":904,"o":"m 572 -12 q 303 47 411 -12 q 140 219 194 107 q 86 489 86 332 q 143 757 86 644 q 307 931 200 869 q 565 992 414 992 q 751 960 672 992 q 892 868 829 929 l 849 778 q 760 842 803 818 q 672 877 718 865 q 565 889 626 889 q 299 784 392 889 q 207 488 207 679 q 297 192 207 294 q 575 89 386 89 q 708 102 644 89 q 831 140 771 115 l 806 78 l 806 422 l 556 422 l 556 513 l 904 513 l 904 58 q 753 7 844 26 q 572 -12 663 -12 m 493 1121 l 493 1243 l 618 1243 l 618 1121 l 493 1121 z "},"Ḡ":{"ha":1015,"x_min":86,"x_max":904,"o":"m 572 -12 q 303 47 411 -12 q 140 219 194 107 q 86 489 86 332 q 143 757 86 644 q 307 931 200 869 q 565 992 414 992 q 751 960 672 992 q 892 868 829 929 l 849 778 q 760 842 803 818 q 672 877 718 865 q 565 889 626 889 q 299 784 392 889 q 207 488 207 679 q 297 192 207 294 q 575 89 386 89 q 708 102 644 89 q 831 140 771 115 l 806 78 l 806 422 l 556 422 l 556 513 l 904 513 l 904 58 q 753 7 844 26 q 572 -12 663 -12 m 329 1131 l 329 1207 l 782 1207 l 782 1131 l 329 1131 z "},"H":{"ha":1064,"x_min":122,"x_max":942,"o":"m 122 0 l 122 979 l 238 979 l 238 546 l 828 546 l 828 979 l 942 979 l 942 0 l 828 0 l 828 447 l 238 447 l 238 0 l 122 0 z "},"Ħ":{"ha":1100,"x_min":13,"x_max":1089,"o":"m 142 0 l 142 721 l 13 721 l 13 811 l 142 811 l 142 979 l 257 979 l 257 811 l 844 811 l 844 979 l 960 979 l 960 811 l 1089 811 l 1089 721 l 960 721 l 960 0 l 844 0 l 844 439 l 257 439 l 257 0 l 142 0 m 257 539 l 844 539 l 844 721 l 257 721 l 257 539 z "},"Ḫ":{"ha":1064,"x_min":122,"x_max":942,"o":"m 122 0 l 122 979 l 238 979 l 238 546 l 828 546 l 828 979 l 942 979 l 942 0 l 828 0 l 828 447 l 238 447 l 238 0 l 122 0 m 533 -299 q 382 -243 440 -299 q 319 -90 324 -187 l 390 -83 q 433 -187 396 -150 q 533 -224 469 -224 q 634 -187 597 -224 q 676 -83 671 -150 l 747 -90 q 685 -243 743 -187 q 533 -299 628 -299 z "},"Ĥ":{"ha":1064,"x_min":122,"x_max":942,"o":"m 122 0 l 122 979 l 238 979 l 238 546 l 828 546 l 828 979 l 942 979 l 942 0 l 828 0 l 828 447 l 238 447 l 238 0 l 122 0 m 310 1063 l 481 1301 l 586 1301 l 757 1063 l 672 1063 l 533 1228 l 394 1063 l 310 1063 z "},"Ḥ":{"ha":1064,"x_min":122,"x_max":942,"o":"m 122 0 l 122 979 l 238 979 l 238 546 l 828 546 l 828 979 l 942 979 l 942 0 l 828 0 l 828 447 l 238 447 l 238 0 l 122 0 m 469 -260 l 469 -137 l 597 -137 l 597 -260 l 469 -260 z "},"I":{"ha":360,"x_min":122,"x_max":238,"o":"m 122 0 l 122 979 l 238 979 l 238 0 l 122 0 z "},"Ĳ":{"ha":817,"x_min":122,"x_max":694,"o":"m 122 0 l 122 979 l 238 979 l 238 0 l 122 0 m 469 -258 q 419 -256 447 -258 q 361 -247 390 -254 l 361 -151 q 410 -160 388 -157 q 451 -164 433 -164 q 547 -124 515 -164 q 579 1 579 -85 l 579 979 l 694 979 l 694 0 q 670 -142 694 -83 q 597 -229 646 -200 q 469 -258 547 -258 z "},"Í":{"ha":360,"x_min":122,"x_max":426,"o":"m 122 0 l 122 979 l 238 979 l 238 0 l 122 0 m 136 1063 l 300 1301 l 426 1301 l 222 1063 l 136 1063 z "},"Ĭ":{"ha":360,"x_min":-56,"x_max":414,"o":"m 122 0 l 122 979 l 238 979 l 238 0 l 122 0 m 179 1056 q 17 1118 81 1056 q -56 1289 -47 1181 l 15 1299 q 65 1175 22 1219 q 179 1131 108 1131 q 294 1175 250 1131 q 343 1299 338 1219 l 414 1289 q 342 1118 406 1181 q 179 1056 278 1056 z "},"Î":{"ha":360,"x_min":-43,"x_max":403,"o":"m 122 0 l 122 979 l 238 979 l 238 0 l 122 0 m -44 1063 l 126 1301 l 232 1301 l 403 1063 l 318 1063 l 179 1228 l 40 1063 l -44 1063 z "},"Ȉ":{"ha":360,"x_min":-111,"x_max":301,"o":"m 122 0 l 122 979 l 238 979 l 238 0 l 122 0 m 235 1063 l 69 1301 l 182 1301 l 300 1063 l 235 1063 m 58 1063 l -111 1301 l 0 1301 l 124 1063 l 58 1063 z "},"Ï":{"ha":360,"x_min":-1,"x_max":361,"o":"m 122 0 l 122 979 l 238 979 l 238 0 l 122 0 m 240 1119 l 240 1239 l 360 1239 l 360 1119 l 240 1119 m -1 1119 l -1 1239 l 118 1239 l 118 1119 l -1 1119 z "},"Ḯ":{"ha":360,"x_min":-1,"x_max":379,"o":"m 122 0 l 122 979 l 238 979 l 238 0 l 122 0 m 140 1225 l 260 1421 l 378 1421 l 218 1225 l 140 1225 m -1 1071 l -1 1172 l 118 1172 l 118 1071 l -1 1071 m 240 1071 l 240 1172 l 360 1172 l 360 1071 l 240 1071 z "},"İ":{"ha":360,"x_min":117,"x_max":242,"o":"m 122 0 l 122 979 l 238 979 l 238 0 l 122 0 m 117 1121 l 117 1243 l 242 1243 l 242 1121 l 117 1121 z "},"Ị":{"ha":360,"x_min":117,"x_max":243,"o":"m 122 0 l 122 979 l 238 979 l 238 0 l 122 0 m 115 -260 l 115 -137 l 243 -137 l 243 -260 l 115 -260 z "},"Ì":{"ha":360,"x_min":-68,"x_max":238,"o":"m 122 0 l 122 979 l 238 979 l 238 0 l 122 0 m 136 1063 l -68 1301 l 58 1301 l 222 1063 l 136 1063 z "},"Ỉ":{"ha":360,"x_min":57,"x_max":321,"o":"m 122 0 l 122 979 l 238 979 l 238 0 l 122 0 m 140 1063 l 140 1085 q 153 1130 140 1113 q 184 1160 167 1147 q 215 1183 201 1172 q 228 1211 228 1194 q 212 1235 228 1226 q 164 1243 196 1243 q 122 1239 142 1243 q 75 1222 101 1235 l 57 1282 q 186 1310 108 1310 q 284 1286 249 1310 q 319 1224 319 1263 q 304 1176 319 1194 q 269 1147 289 1158 q 233 1119 249 1135 q 218 1078 218 1104 l 218 1063 l 140 1063 z "},"Ȋ":{"ha":360,"x_min":-56,"x_max":414,"o":"m 122 0 l 122 979 l 238 979 l 238 0 l 122 0 m 15 1056 l -56 1064 q 17 1236 -47 1174 q 179 1299 81 1299 q 342 1236 278 1299 q 414 1064 406 1174 l 343 1056 q 294 1180 338 1136 q 179 1224 250 1224 q 65 1180 108 1224 q 15 1056 22 1136 z "},"Ī":{"ha":360,"x_min":-47,"x_max":407,"o":"m 122 0 l 122 979 l 238 979 l 238 0 l 122 0 m -47 1131 l -47 1207 l 406 1207 l 406 1131 l -47 1131 z "},"Į":{"ha":360,"x_min":46,"x_max":301,"o":"m 122 0 l 122 979 l 238 979 l 238 0 l 122 0 m 193 -267 q 86 -231 126 -267 q 46 -132 46 -194 q 82 -27 46 -76 q 179 50 118 22 l 219 0 q 176 -26 197 -8 q 140 -67 154 -43 q 126 -119 126 -90 q 150 -178 126 -158 q 207 -197 174 -197 q 244 -193 226 -197 q 282 -181 263 -189 l 301 -243 q 254 -260 282 -254 q 193 -267 226 -267 z "},"Ĩ":{"ha":360,"x_min":-110,"x_max":469,"o":"m 122 0 l 122 979 l 238 979 l 238 0 l 122 0 m -47 1088 l -111 1092 q -58 1228 -103 1181 q 56 1276 -12 1276 q 120 1263 88 1276 q 199 1219 153 1250 q 264 1182 242 1193 q 307 1171 286 1171 q 372 1199 349 1171 q 406 1281 396 1228 l 469 1276 q 417 1140 461 1188 q 304 1092 372 1092 q 239 1106 272 1092 q 156 1151 206 1119 q 94 1187 118 1176 q 51 1197 71 1197 q -14 1169 10 1197 q -47 1088 -37 1140 z "},"J":{"ha":457,"x_min":1,"x_max":335,"o":"m 110 -258 q 59 -256 88 -258 q 1 -247 31 -254 l 1 -151 q 51 -160 28 -157 q 92 -164 74 -164 q 188 -124 156 -164 q 219 1 219 -85 l 219 979 l 335 979 l 335 0 q 310 -142 335 -83 q 237 -229 286 -200 q 110 -258 188 -258 z "},"Ĵ":{"ha":457,"x_min":1,"x_max":500,"o":"m 110 -258 q 59 -256 88 -258 q 1 -247 31 -254 l 1 -151 q 51 -160 28 -157 q 92 -164 74 -164 q 188 -124 156 -164 q 219 1 219 -85 l 219 979 l 335 979 l 335 0 q 310 -142 335 -83 q 237 -229 286 -200 q 110 -258 188 -258 m 54 1063 l 225 1301 l 331 1301 l 501 1063 l 417 1063 l 278 1228 l 139 1063 l 54 1063 z "},"K":{"ha":881,"x_min":122,"x_max":896,"o":"m 122 0 l 122 979 l 238 979 l 238 535 l 240 535 l 710 979 l 857 979 l 317 474 l 318 532 l 896 0 l 744 0 l 240 461 l 238 461 l 238 0 l 122 0 z "},"Ķ":{"ha":881,"x_min":122,"x_max":896,"o":"m 122 0 l 122 979 l 238 979 l 238 535 l 240 535 l 710 979 l 857 979 l 317 474 l 318 532 l 896 0 l 744 0 l 240 461 l 238 461 l 238 0 l 122 0 m 444 -372 l 394 -336 q 437 -274 426 -303 q 447 -211 447 -244 l 476 -225 l 379 -225 l 379 -111 l 517 -111 l 517 -194 q 499 -291 517 -246 q 444 -372 482 -336 z "},"L":{"ha":757,"x_min":122,"x_max":732,"o":"m 122 0 l 122 979 l 238 979 l 238 100 l 732 100 l 732 0 l 122 0 z "},"Ǉ":{"ha":1269,"x_min":122,"x_max":1147,"o":"m 122 0 l 122 979 l 238 979 l 238 100 l 732 100 l 732 0 l 122 0 m 922 -258 q 872 -256 900 -258 q 814 -247 843 -254 l 814 -151 q 863 -160 840 -157 q 904 -164 886 -164 q 1000 -124 968 -164 q 1032 1 1032 -85 l 1032 979 l 1147 979 l 1147 0 q 1123 -142 1147 -83 q 1049 -229 1099 -200 q 922 -258 1000 -258 z "},"Ĺ":{"ha":757,"x_min":122,"x_max":732,"o":"m 122 0 l 122 979 l 238 979 l 238 100 l 732 100 l 732 0 l 122 0 m 136 1063 l 300 1301 l 426 1301 l 222 1063 l 136 1063 z "},"Ľ":{"ha":757,"x_min":122,"x_max":732,"o":"m 122 0 l 122 979 l 238 979 l 238 100 l 732 100 l 732 0 l 122 0 m 392 667 l 392 979 l 492 979 l 463 667 l 392 667 z "},"Ļ":{"ha":757,"x_min":122,"x_max":732,"o":"m 122 0 l 122 979 l 238 979 l 238 100 l 732 100 l 732 0 l 122 0 m 424 -372 l 374 -336 q 416 -274 406 -303 q 426 -211 426 -244 l 456 -225 l 358 -225 l 358 -111 l 496 -111 l 496 -194 q 478 -291 496 -246 q 424 -372 461 -336 z "},"Ŀ":{"ha":757,"x_min":122,"x_max":732,"o":"m 122 0 l 122 979 l 238 979 l 238 100 l 732 100 l 732 0 l 122 0 m 493 475 l 493 606 l 635 606 l 635 475 l 493 475 z "},"Ḷ":{"ha":757,"x_min":122,"x_max":732,"o":"m 122 0 l 122 979 l 238 979 l 238 100 l 732 100 l 732 0 l 122 0 m 364 -260 l 364 -137 l 492 -137 l 492 -260 l 364 -260 z "},"ǈ":{"ha":1088,"x_min":122,"x_max":999,"o":"m 122 0 l 122 979 l 238 979 l 238 100 l 732 100 l 732 0 l 122 0 m 775 -306 q 726 -301 756 -306 q 678 -289 697 -296 l 678 -194 q 717 -205 694 -200 q 758 -210 739 -210 q 845 -173 817 -210 q 874 -53 874 -136 l 874 697 l 986 697 l 986 -64 q 934 -244 986 -183 q 775 -306 882 -306 m 861 856 l 861 982 l 999 982 l 999 856 l 861 856 z "},"Ḻ":{"ha":757,"x_min":122,"x_max":732,"o":"m 122 0 l 122 979 l 238 979 l 238 100 l 732 100 l 732 0 l 122 0 m 222 -217 l 222 -140 l 633 -140 l 633 -217 l 222 -217 z "},"Ł":{"ha":757,"x_min":-29,"x_max":732,"o":"m 122 0 l 122 979 l 238 979 l 238 100 l 732 100 l 732 0 l 122 0 m 17 353 l -29 433 l 471 721 l 517 640 l 17 353 z "},"M":{"ha":1192,"x_min":124,"x_max":1069,"o":"m 124 0 l 124 979 l 224 979 l 617 92 l 576 92 l 969 979 l 1069 979 l 1069 0 l 964 0 l 964 831 l 1006 831 l 635 0 l 558 0 l 186 831 l 228 831 l 228 0 l 124 0 z "},"Ṃ":{"ha":1192,"x_min":124,"x_max":1069,"o":"m 124 0 l 124 979 l 224 979 l 617 92 l 576 92 l 969 979 l 1069 979 l 1069 0 l 964 0 l 964 831 l 1006 831 l 635 0 l 558 0 l 186 831 l 228 831 l 228 0 l 124 0 m 532 -260 l 532 -137 l 660 -137 l 660 -260 l 532 -260 z "},"N":{"ha":1038,"x_min":122,"x_max":915,"o":"m 122 0 l 122 979 l 213 979 l 840 146 l 808 146 l 808 979 l 915 979 l 915 0 l 826 0 l 199 833 l 229 833 l 229 0 l 122 0 z "},"Ǌ":{"ha":1494,"x_min":122,"x_max":1372,"o":"m 122 0 l 122 979 l 213 979 l 840 146 l 808 146 l 808 979 l 915 979 l 915 0 l 826 0 l 199 833 l 229 833 l 229 0 l 122 0 m 1147 -258 q 1097 -256 1125 -258 q 1039 -247 1068 -254 l 1039 -151 q 1088 -160 1065 -157 q 1129 -164 1111 -164 q 1225 -124 1193 -164 q 1257 1 1257 -85 l 1257 979 l 1372 979 l 1372 0 q 1348 -142 1372 -83 q 1274 -229 1324 -200 q 1147 -258 1225 -258 z "},"Ń":{"ha":1038,"x_min":122,"x_max":915,"o":"m 122 0 l 122 979 l 213 979 l 840 146 l 808 146 l 808 979 l 915 979 l 915 0 l 826 0 l 199 833 l 229 833 l 229 0 l 122 0 m 478 1063 l 642 1301 l 768 1301 l 564 1063 l 478 1063 z "},"Ň":{"ha":1038,"x_min":122,"x_max":915,"o":"m 122 0 l 122 979 l 213 979 l 840 146 l 808 146 l 808 979 l 915 979 l 915 0 l 826 0 l 199 833 l 229 833 l 229 0 l 122 0 m 468 1063 l 297 1301 l 382 1301 l 521 1136 l 660 1301 l 744 1301 l 574 1063 l 468 1063 z "},"Ņ":{"ha":1038,"x_min":122,"x_max":915,"o":"m 122 0 l 122 979 l 213 979 l 840 146 l 808 146 l 808 979 l 915 979 l 915 0 l 826 0 l 199 833 l 229 833 l 229 0 l 122 0 m 517 -372 l 467 -336 q 509 -274 499 -303 q 519 -211 519 -244 l 549 -225 l 451 -225 l 451 -111 l 589 -111 l 589 -194 q 572 -291 589 -246 q 517 -372 554 -336 z "},"Ṅ":{"ha":1038,"x_min":122,"x_max":915,"o":"m 122 0 l 122 979 l 213 979 l 840 146 l 808 146 l 808 979 l 915 979 l 915 0 l 826 0 l 199 833 l 229 833 l 229 0 l 122 0 m 458 1121 l 458 1243 l 583 1243 l 583 1121 l 458 1121 z "},"Ṇ":{"ha":1038,"x_min":122,"x_max":915,"o":"m 122 0 l 122 979 l 213 979 l 840 146 l 808 146 l 808 979 l 915 979 l 915 0 l 826 0 l 199 833 l 229 833 l 229 0 l 122 0 m 457 -260 l 457 -137 l 585 -137 l 585 -260 l 457 -260 z "},"Ŋ":{"ha":1038,"x_min":122,"x_max":915,"o":"m 615 -268 l 607 -181 l 671 -175 q 773 -131 738 -171 q 808 -21 808 -92 l 808 53 l 826 0 l 199 833 l 229 833 l 229 0 l 122 0 l 122 979 l 213 979 l 840 146 l 808 146 l 808 979 l 915 979 l 915 -8 q 890 -144 915 -89 q 811 -229 864 -200 q 678 -264 758 -258 l 615 -268 z "},"ǋ":{"ha":1368,"x_min":122,"x_max":1278,"o":"m 122 0 l 122 979 l 213 979 l 840 146 l 808 146 l 808 979 l 915 979 l 915 0 l 826 0 l 199 833 l 229 833 l 229 0 l 122 0 m 1056 -306 q 1007 -301 1036 -306 q 958 -289 978 -296 l 958 -194 q 997 -205 975 -200 q 1039 -210 1019 -210 q 1126 -173 1097 -210 q 1154 -53 1154 -136 l 1154 697 l 1267 697 l 1267 -64 q 1215 -244 1267 -183 q 1056 -306 1163 -306 m 1142 856 l 1142 982 l 1279 982 l 1279 856 l 1142 856 z "},"Ṉ":{"ha":1038,"x_min":122,"x_max":915,"o":"m 122 0 l 122 979 l 213 979 l 840 146 l 808 146 l 808 979 l 915 979 l 915 0 l 826 0 l 199 833 l 229 833 l 229 0 l 122 0 m 315 -217 l 315 -140 l 726 -140 l 726 -217 l 315 -217 z "},"Ñ":{"ha":1038,"x_min":122,"x_max":915,"o":"m 122 0 l 122 979 l 213 979 l 840 146 l 808 146 l 808 979 l 915 979 l 915 0 l 826 0 l 199 833 l 229 833 l 229 0 l 122 0 m 294 1088 l 231 1092 q 284 1228 239 1181 q 397 1276 329 1276 q 462 1263 429 1276 q 540 1219 494 1250 q 606 1182 583 1193 q 649 1171 628 1171 q 714 1199 690 1171 q 747 1281 738 1228 l 811 1276 q 758 1140 803 1188 q 646 1092 714 1092 q 581 1106 614 1092 q 497 1151 547 1119 q 436 1187 460 1176 q 393 1197 413 1197 q 328 1169 351 1197 q 294 1088 304 1140 z "},"O":{"ha":1072,"x_min":86,"x_max":986,"o":"m 86 490 q 140 758 86 646 q 294 931 193 869 q 536 992 394 992 q 775 931 674 992 q 931 758 876 869 q 986 492 986 646 q 931 224 986 336 q 774 49 875 111 q 536 -12 674 -12 q 294 49 394 -12 q 140 224 194 111 q 86 490 86 336 m 207 490 q 290 195 207 301 q 536 89 374 89 q 778 195 692 89 q 865 490 865 301 q 779 785 865 681 q 536 890 693 890 q 290 785 374 890 q 207 490 207 681 z "},"Ó":{"ha":1072,"x_min":86,"x_max":986,"o":"m 86 490 q 140 758 86 646 q 294 931 193 869 q 536 992 394 992 q 775 931 674 992 q 931 758 876 869 q 986 492 986 646 q 931 224 986 336 q 774 49 875 111 q 536 -12 674 -12 q 294 49 394 -12 q 140 224 194 111 q 86 490 86 336 m 207 490 q 290 195 207 301 q 536 89 374 89 q 778 195 692 89 q 865 490 865 301 q 779 785 865 681 q 536 890 693 890 q 290 785 374 890 q 207 490 207 681 m 493 1063 l 657 1301 l 783 1301 l 579 1063 l 493 1063 z "},"Ŏ":{"ha":1072,"x_min":86,"x_max":986,"o":"m 86 490 q 140 758 86 646 q 294 931 193 869 q 536 992 394 992 q 775 931 674 992 q 931 758 876 869 q 986 492 986 646 q 931 224 986 336 q 774 49 875 111 q 536 -12 674 -12 q 294 49 394 -12 q 140 224 194 111 q 86 490 86 336 m 207 490 q 290 195 207 301 q 536 89 374 89 q 778 195 692 89 q 865 490 865 301 q 779 785 865 681 q 536 890 693 890 q 290 785 374 890 q 207 490 207 681 m 536 1056 q 374 1118 438 1056 q 301 1289 310 1181 l 372 1299 q 422 1175 379 1219 q 536 1131 465 1131 q 651 1175 607 1131 q 700 1299 694 1219 l 771 1289 q 699 1118 763 1181 q 536 1056 635 1056 z "},"Ô":{"ha":1072,"x_min":86,"x_max":986,"o":"m 86 490 q 140 758 86 646 q 294 931 193 869 q 536 992 394 992 q 775 931 674 992 q 931 758 876 869 q 986 492 986 646 q 931 224 986 336 q 774 49 875 111 q 536 -12 674 -12 q 294 49 394 -12 q 140 224 194 111 q 86 490 86 336 m 207 490 q 290 195 207 301 q 536 89 374 89 q 778 195 692 89 q 865 490 865 301 q 779 785 865 681 q 536 890 693 890 q 290 785 374 890 q 207 490 207 681 m 313 1063 l 483 1301 l 589 1301 l 760 1063 l 675 1063 l 536 1228 l 397 1063 l 313 1063 z "},"Ố":{"ha":1072,"x_min":86,"x_max":986,"o":"m 86 490 q 140 758 86 646 q 294 931 193 869 q 536 992 394 992 q 775 931 674 992 q 931 758 876 869 q 986 492 986 646 q 931 224 986 336 q 774 49 875 111 q 536 -12 674 -12 q 294 49 394 -12 q 140 224 194 111 q 86 490 86 336 m 207 490 q 290 195 207 301 q 536 89 374 89 q 778 195 692 89 q 865 490 865 301 q 779 785 865 681 q 536 890 693 890 q 290 785 374 890 q 207 490 207 681 m 331 1063 l 482 1288 l 590 1288 l 742 1063 l 665 1063 l 536 1215 l 407 1063 l 331 1063 m 667 1207 l 786 1415 l 894 1415 l 740 1207 l 667 1207 z "},"Ộ":{"ha":1072,"x_min":86,"x_max":986,"o":"m 86 490 q 140 758 86 646 q 294 931 193 869 q 536 992 394 992 q 775 931 674 992 q 931 758 876 869 q 986 492 986 646 q 931 224 986 336 q 774 49 875 111 q 536 -12 674 -12 q 294 49 394 -12 q 140 224 194 111 q 86 490 86 336 m 207 490 q 290 195 207 301 q 536 89 374 89 q 778 195 692 89 q 865 490 865 301 q 779 785 865 681 q 536 890 693 890 q 290 785 374 890 q 207 490 207 681 m 472 -260 l 472 -137 l 600 -137 l 600 -260 l 472 -260 m 313 1063 l 483 1301 l 589 1301 l 760 1063 l 675 1063 l 536 1228 l 397 1063 l 313 1063 z "},"Ồ":{"ha":1072,"x_min":86,"x_max":986,"o":"m 86 490 q 140 758 86 646 q 294 931 193 869 q 536 992 394 992 q 775 931 674 992 q 931 758 876 869 q 986 492 986 646 q 931 224 986 336 q 774 49 875 111 q 536 -12 674 -12 q 294 49 394 -12 q 140 224 194 111 q 86 490 86 336 m 207 490 q 290 195 207 301 q 536 89 374 89 q 778 195 692 89 q 865 490 865 301 q 779 785 865 681 q 536 890 693 890 q 290 785 374 890 q 207 490 207 681 m 331 1063 l 482 1288 l 590 1288 l 742 1063 l 665 1063 l 536 1215 l 407 1063 l 331 1063 m 722 1207 l 568 1415 l 676 1415 l 796 1207 l 722 1207 z "},"Ổ":{"ha":1072,"x_min":86,"x_max":986,"o":"m 86 490 q 140 758 86 646 q 294 931 193 869 q 536 992 394 992 q 775 931 674 992 q 931 758 876 869 q 986 492 986 646 q 931 224 986 336 q 774 49 875 111 q 536 -12 674 -12 q 294 49 394 -12 q 140 224 194 111 q 86 490 86 336 m 207 490 q 290 195 207 301 q 536 89 374 89 q 778 195 692 89 q 865 490 865 301 q 779 785 865 681 q 536 890 693 890 q 290 785 374 890 q 207 490 207 681 m 331 1063 l 482 1288 l 590 1288 l 742 1063 l 665 1063 l 536 1215 l 407 1063 l 331 1063 m 676 1207 q 689 1254 676 1236 q 718 1284 701 1272 q 747 1307 735 1296 q 758 1333 758 1318 q 743 1356 758 1350 q 697 1361 728 1361 q 658 1358 679 1361 q 614 1344 638 1354 l 597 1396 q 651 1415 621 1408 q 717 1421 681 1421 q 809 1401 776 1421 q 842 1349 842 1382 q 828 1305 842 1321 q 794 1276 814 1289 q 761 1247 775 1263 q 747 1207 747 1232 l 676 1207 z "},"Ỗ":{"ha":1072,"x_min":86,"x_max":986,"o":"m 86 490 q 140 758 86 646 q 294 931 193 869 q 536 992 394 992 q 775 931 674 992 q 931 758 876 869 q 986 492 986 646 q 931 224 986 336 q 774 49 875 111 q 536 -12 674 -12 q 294 49 394 -12 q 140 224 194 111 q 86 490 86 336 m 207 490 q 290 195 207 301 q 536 89 374 89 q 778 195 692 89 q 865 490 865 301 q 779 785 865 681 q 536 890 693 890 q 290 785 374 890 q 207 490 207 681 m 331 1063 l 482 1246 l 590 1246 l 742 1063 l 667 1063 l 536 1181 l 406 1063 l 331 1063 m 379 1276 l 317 1281 q 358 1386 322 1350 q 447 1422 393 1422 q 497 1412 474 1422 q 549 1381 519 1401 q 594 1355 579 1361 q 624 1349 610 1349 q 672 1366 656 1349 q 693 1424 688 1383 l 756 1419 q 717 1314 751 1350 q 626 1278 682 1278 q 576 1290 600 1278 q 517 1324 551 1301 q 485 1342 501 1333 q 449 1351 468 1351 q 402 1334 418 1351 q 379 1276 386 1317 z "},"Ȍ":{"ha":1072,"x_min":86,"x_max":986,"o":"m 86 490 q 140 758 86 646 q 294 931 193 869 q 536 992 394 992 q 775 931 674 992 q 931 758 876 869 q 986 492 986 646 q 931 224 986 336 q 774 49 875 111 q 536 -12 674 -12 q 294 49 394 -12 q 140 224 194 111 q 86 490 86 336 m 207 490 q 290 195 207 301 q 536 89 374 89 q 778 195 692 89 q 865 490 865 301 q 779 785 865 681 q 536 890 693 890 q 290 785 374 890 q 207 490 207 681 m 592 1063 l 426 1301 l 539 1301 l 657 1063 l 592 1063 m 415 1063 l 246 1301 l 357 1301 l 481 1063 l 415 1063 z "},"Ö":{"ha":1072,"x_min":86,"x_max":986,"o":"m 86 490 q 140 758 86 646 q 294 931 193 869 q 536 992 394 992 q 775 931 674 992 q 931 758 876 869 q 986 492 986 646 q 931 224 986 336 q 774 49 875 111 q 536 -12 674 -12 q 294 49 394 -12 q 140 224 194 111 q 86 490 86 336 m 207 490 q 290 195 207 301 q 536 89 374 89 q 778 195 692 89 q 865 490 865 301 q 779 785 865 681 q 536 890 693 890 q 290 785 374 890 q 207 490 207 681 m 597 1119 l 597 1239 l 717 1239 l 717 1119 l 597 1119 m 356 1119 l 356 1239 l 475 1239 l 475 1119 l 356 1119 z "},"Ȫ":{"ha":1072,"x_min":86,"x_max":986,"o":"m 86 490 q 140 758 86 646 q 294 931 193 869 q 536 992 394 992 q 775 931 674 992 q 931 758 876 869 q 986 492 986 646 q 931 224 986 336 q 774 49 875 111 q 536 -12 674 -12 q 294 49 394 -12 q 140 224 194 111 q 86 490 86 336 m 207 490 q 290 195 207 301 q 536 89 374 89 q 778 195 692 89 q 865 490 865 301 q 779 785 865 681 q 536 890 693 890 q 290 785 374 890 q 207 490 207 681 m 331 1286 l 331 1363 l 742 1363 l 742 1286 l 331 1286 m 356 1108 l 356 1208 l 475 1208 l 475 1108 l 356 1108 m 597 1108 l 597 1208 l 717 1208 l 717 1108 l 597 1108 z "},"Ȱ":{"ha":1072,"x_min":86,"x_max":986,"o":"m 86 490 q 140 758 86 646 q 294 931 193 869 q 536 992 394 992 q 775 931 674 992 q 931 758 876 869 q 986 492 986 646 q 931 224 986 336 q 774 49 875 111 q 536 -12 674 -12 q 294 49 394 -12 q 140 224 194 111 q 86 490 86 336 m 207 490 q 290 195 207 301 q 536 89 374 89 q 778 195 692 89 q 865 490 865 301 q 779 785 865 681 q 536 890 693 890 q 290 785 374 890 q 207 490 207 681 m 331 1286 l 331 1363 l 742 1363 l 742 1286 l 331 1286 m 476 1108 l 476 1208 l 597 1208 l 597 1108 l 476 1108 z "},"Ọ":{"ha":1072,"x_min":86,"x_max":986,"o":"m 86 490 q 140 758 86 646 q 294 931 193 869 q 536 992 394 992 q 775 931 674 992 q 931 758 876 869 q 986 492 986 646 q 931 224 986 336 q 774 49 875 111 q 536 -12 674 -12 q 294 49 394 -12 q 140 224 194 111 q 86 490 86 336 m 207 490 q 290 195 207 301 q 536 89 374 89 q 778 195 692 89 q 865 490 865 301 q 779 785 865 681 q 536 890 693 890 q 290 785 374 890 q 207 490 207 681 m 472 -260 l 472 -137 l 600 -137 l 600 -260 l 472 -260 z "},"Ò":{"ha":1072,"x_min":86,"x_max":986,"o":"m 86 490 q 140 758 86 646 q 294 931 193 869 q 536 992 394 992 q 775 931 674 992 q 931 758 876 869 q 986 492 986 646 q 931 224 986 336 q 774 49 875 111 q 536 -12 674 -12 q 294 49 394 -12 q 140 224 194 111 q 86 490 86 336 m 207 490 q 290 195 207 301 q 536 89 374 89 q 778 195 692 89 q 865 490 865 301 q 779 785 865 681 q 536 890 693 890 q 290 785 374 890 q 207 490 207 681 m 493 1063 l 289 1301 l 415 1301 l 579 1063 l 493 1063 z "},"Ỏ":{"ha":1072,"x_min":86,"x_max":986,"o":"m 86 490 q 140 758 86 646 q 294 931 193 869 q 536 992 394 992 q 775 931 674 992 q 931 758 876 869 q 986 492 986 646 q 931 224 986 336 q 774 49 875 111 q 536 -12 674 -12 q 294 49 394 -12 q 140 224 194 111 q 86 490 86 336 m 207 490 q 290 195 207 301 q 536 89 374 89 q 778 195 692 89 q 865 490 865 301 q 779 785 865 681 q 536 890 693 890 q 290 785 374 890 q 207 490 207 681 m 497 1063 l 497 1085 q 510 1130 497 1113 q 541 1160 524 1147 q 572 1183 558 1172 q 585 1211 585 1194 q 569 1235 585 1226 q 521 1243 553 1243 q 478 1239 499 1243 q 432 1222 458 1235 l 414 1282 q 543 1310 465 1310 q 641 1286 606 1310 q 676 1224 676 1263 q 661 1176 676 1194 q 626 1147 646 1158 q 590 1119 606 1135 q 575 1078 575 1104 l 575 1063 l 497 1063 z "},"Ơ":{"ha":1072,"x_min":86,"x_max":989,"o":"m 86 490 q 140 758 86 646 q 294 931 193 869 q 536 992 394 992 q 775 931 674 992 q 931 758 876 869 q 986 492 986 646 q 931 224 986 336 q 774 49 875 111 q 536 -12 674 -12 q 294 49 394 -12 q 140 224 194 111 q 86 490 86 336 m 207 490 q 290 195 207 301 q 536 89 374 89 q 778 195 692 89 q 865 490 865 301 q 779 785 865 681 q 536 890 693 890 q 290 785 374 890 q 207 490 207 681 m 689 910 l 621 985 q 683 981 657 982 q 736 979 710 979 q 828 995 796 979 q 875 1047 861 1011 q 889 1136 889 1082 l 889 1160 l 989 1160 l 989 1121 q 965 1010 989 1058 q 896 936 940 963 q 790 910 851 910 l 689 910 z "},"Ớ":{"ha":1072,"x_min":86,"x_max":989,"o":"m 86 490 q 140 758 86 646 q 294 931 193 869 q 536 992 394 992 q 775 931 674 992 q 931 758 876 869 q 986 492 986 646 q 931 224 986 336 q 774 49 875 111 q 536 -12 674 -12 q 294 49 394 -12 q 140 224 194 111 q 86 490 86 336 m 207 490 q 290 195 207 301 q 536 89 374 89 q 778 195 692 89 q 865 490 865 301 q 779 785 865 681 q 536 890 693 890 q 290 785 374 890 q 207 490 207 681 m 689 910 l 621 985 q 683 981 657 982 q 736 979 710 979 q 828 995 796 979 q 875 1047 861 1011 q 889 1136 889 1082 l 889 1160 l 989 1160 l 989 1121 q 965 1010 989 1058 q 896 936 940 963 q 790 910 851 910 l 689 910 m 504 1063 l 668 1301 l 794 1301 l 590 1063 l 504 1063 z "},"Ợ":{"ha":1072,"x_min":86,"x_max":989,"o":"m 86 490 q 140 758 86 646 q 294 931 193 869 q 536 992 394 992 q 775 931 674 992 q 931 758 876 869 q 986 492 986 646 q 931 224 986 336 q 774 49 875 111 q 536 -12 674 -12 q 294 49 394 -12 q 140 224 194 111 q 86 490 86 336 m 207 490 q 290 195 207 301 q 536 89 374 89 q 778 195 692 89 q 865 490 865 301 q 779 785 865 681 q 536 890 693 890 q 290 785 374 890 q 207 490 207 681 m 689 910 l 621 985 q 683 981 657 982 q 736 979 710 979 q 828 995 796 979 q 875 1047 861 1011 q 889 1136 889 1082 l 889 1160 l 989 1160 l 989 1121 q 965 1010 989 1058 q 896 936 940 963 q 790 910 851 910 l 689 910 m 485 -260 l 485 -137 l 613 -137 l 613 -260 l 485 -260 z "},"Ờ":{"ha":1072,"x_min":86,"x_max":989,"o":"m 86 490 q 140 758 86 646 q 294 931 193 869 q 536 992 394 992 q 775 931 674 992 q 931 758 876 869 q 986 492 986 646 q 931 224 986 336 q 774 49 875 111 q 536 -12 674 -12 q 294 49 394 -12 q 140 224 194 111 q 86 490 86 336 m 207 490 q 290 195 207 301 q 536 89 374 89 q 778 195 692 89 q 865 490 865 301 q 779 785 865 681 q 536 890 693 890 q 290 785 374 890 q 207 490 207 681 m 689 910 l 621 985 q 683 981 657 982 q 736 979 710 979 q 828 995 796 979 q 875 1047 861 1011 q 889 1136 889 1082 l 889 1160 l 989 1160 l 989 1121 q 965 1010 989 1058 q 896 936 940 963 q 790 910 851 910 l 689 910 m 504 1063 l 300 1301 l 426 1301 l 590 1063 l 504 1063 z "},"Ở":{"ha":1072,"x_min":86,"x_max":989,"o":"m 86 490 q 140 758 86 646 q 294 931 193 869 q 536 992 394 992 q 775 931 674 992 q 931 758 876 869 q 986 492 986 646 q 931 224 986 336 q 774 49 875 111 q 536 -12 674 -12 q 294 49 394 -12 q 140 224 194 111 q 86 490 86 336 m 207 490 q 290 195 207 301 q 536 89 374 89 q 778 195 692 89 q 865 490 865 301 q 779 785 865 681 q 536 890 693 890 q 290 785 374 890 q 207 490 207 681 m 689 910 l 621 985 q 683 981 657 982 q 736 979 710 979 q 828 995 796 979 q 875 1047 861 1011 q 889 1136 889 1082 l 889 1160 l 989 1160 l 989 1121 q 965 1010 989 1058 q 896 936 940 963 q 790 910 851 910 l 689 910 m 508 1063 l 508 1085 q 522 1130 508 1113 q 552 1160 535 1147 q 583 1183 569 1172 q 596 1211 596 1194 q 580 1235 596 1226 q 532 1243 564 1243 q 490 1239 510 1243 q 443 1222 469 1235 l 425 1282 q 554 1310 476 1310 q 652 1286 617 1310 q 688 1224 688 1263 q 672 1176 688 1194 q 637 1147 657 1158 q 601 1119 617 1135 q 586 1078 586 1104 l 586 1063 l 508 1063 z "},"Ỡ":{"ha":1072,"x_min":86,"x_max":989,"o":"m 86 490 q 140 758 86 646 q 294 931 193 869 q 536 992 394 992 q 775 931 674 992 q 931 758 876 869 q 986 492 986 646 q 931 224 986 336 q 774 49 875 111 q 536 -12 674 -12 q 294 49 394 -12 q 140 224 194 111 q 86 490 86 336 m 207 490 q 290 195 207 301 q 536 89 374 89 q 778 195 692 89 q 865 490 865 301 q 779 785 865 681 q 536 890 693 890 q 290 785 374 890 q 207 490 207 681 m 689 910 l 621 985 q 683 981 657 982 q 736 979 710 979 q 828 995 796 979 q 875 1047 861 1011 q 889 1136 889 1082 l 889 1160 l 989 1160 l 989 1121 q 965 1010 989 1058 q 896 936 940 963 q 790 910 851 910 l 689 910 m 335 1088 l 271 1092 q 322 1228 279 1181 q 432 1276 365 1276 q 494 1262 465 1276 q 557 1219 524 1247 q 608 1183 588 1194 q 650 1171 629 1171 q 715 1199 692 1171 q 746 1281 738 1228 l 810 1276 q 759 1140 801 1188 q 650 1092 717 1092 q 586 1107 615 1092 q 524 1149 557 1122 q 472 1186 494 1175 q 431 1197 450 1197 q 367 1169 390 1197 q 335 1088 344 1140 z "},"Ő":{"ha":1072,"x_min":86,"x_max":986,"o":"m 86 490 q 140 758 86 646 q 294 931 193 869 q 536 992 394 992 q 775 931 674 992 q 931 758 876 869 q 986 492 986 646 q 931 224 986 336 q 774 49 875 111 q 536 -12 674 -12 q 294 49 394 -12 q 140 224 194 111 q 86 490 86 336 m 207 490 q 290 195 207 301 q 536 89 374 89 q 778 195 692 89 q 865 490 865 301 q 779 785 865 681 q 536 890 693 890 q 290 785 374 890 q 207 490 207 681 m 415 1063 l 533 1301 l 646 1301 l 481 1063 l 415 1063 m 592 1063 l 715 1301 l 826 1301 l 657 1063 l 592 1063 z "},"Ȏ":{"ha":1072,"x_min":86,"x_max":986,"o":"m 86 490 q 140 758 86 646 q 294 931 193 869 q 536 992 394 992 q 775 931 674 992 q 931 758 876 869 q 986 492 986 646 q 931 224 986 336 q 774 49 875 111 q 536 -12 674 -12 q 294 49 394 -12 q 140 224 194 111 q 86 490 86 336 m 207 490 q 290 195 207 301 q 536 89 374 89 q 778 195 692 89 q 865 490 865 301 q 779 785 865 681 q 536 890 693 890 q 290 785 374 890 q 207 490 207 681 m 372 1056 l 301 1064 q 374 1236 310 1174 q 536 1299 438 1299 q 699 1236 635 1299 q 771 1064 763 1174 l 700 1056 q 651 1180 694 1136 q 536 1224 607 1224 q 422 1180 465 1224 q 372 1056 379 1136 z "},"Ō":{"ha":1072,"x_min":86,"x_max":986,"o":"m 86 490 q 140 758 86 646 q 294 931 193 869 q 536 992 394 992 q 775 931 674 992 q 931 758 876 869 q 986 492 986 646 q 931 224 986 336 q 774 49 875 111 q 536 -12 674 -12 q 294 49 394 -12 q 140 224 194 111 q 86 490 86 336 m 207 490 q 290 195 207 301 q 536 89 374 89 q 778 195 692 89 q 865 490 865 301 q 779 785 865 681 q 536 890 693 890 q 290 785 374 890 q 207 490 207 681 m 310 1131 l 310 1207 l 763 1207 l 763 1131 l 310 1131 z "},"Ṓ":{"ha":1072,"x_min":86,"x_max":986,"o":"m 86 490 q 140 758 86 646 q 294 931 193 869 q 536 992 394 992 q 775 931 674 992 q 931 758 876 869 q 986 492 986 646 q 931 224 986 336 q 774 49 875 111 q 536 -12 674 -12 q 294 49 394 -12 q 140 224 194 111 q 86 490 86 336 m 207 490 q 290 195 207 301 q 536 89 374 89 q 778 195 692 89 q 865 490 865 301 q 779 785 865 681 q 536 890 693 890 q 290 785 374 890 q 207 490 207 681 m 331 1097 l 331 1174 l 742 1174 l 742 1097 l 331 1097 m 497 1225 l 617 1421 l 735 1421 l 575 1225 l 497 1225 z "},"Ṑ":{"ha":1072,"x_min":86,"x_max":986,"o":"m 86 490 q 140 758 86 646 q 294 931 193 869 q 536 992 394 992 q 775 931 674 992 q 931 758 876 869 q 986 492 986 646 q 931 224 986 336 q 774 49 875 111 q 536 -12 674 -12 q 294 49 394 -12 q 140 224 194 111 q 86 490 86 336 m 207 490 q 290 195 207 301 q 536 89 374 89 q 778 195 692 89 q 865 490 865 301 q 779 785 865 681 q 536 890 693 890 q 290 785 374 890 q 207 490 207 681 m 497 1225 l 338 1421 l 456 1421 l 575 1225 l 497 1225 m 331 1097 l 331 1174 l 742 1174 l 742 1097 l 331 1097 z "},"Ǫ":{"ha":1072,"x_min":86,"x_max":986,"o":"m 86 490 q 140 758 86 646 q 294 931 193 869 q 536 992 394 992 q 775 931 674 992 q 931 758 876 869 q 986 492 986 646 q 931 224 986 336 q 774 49 875 111 q 536 -12 674 -12 q 294 49 394 -12 q 140 224 194 111 q 86 490 86 336 m 207 490 q 290 195 207 301 q 536 89 374 89 q 778 195 692 89 q 865 490 865 301 q 779 785 865 681 q 536 890 693 890 q 290 785 374 890 q 207 490 207 681 m 594 -267 q 488 -231 528 -267 q 447 -132 447 -194 q 483 -27 447 -76 q 581 50 519 22 l 621 0 q 577 -26 599 -8 q 542 -67 556 -43 q 528 -119 528 -90 q 551 -178 528 -158 q 608 -197 575 -197 q 646 -193 628 -197 q 683 -181 664 -189 l 703 -243 q 656 -260 683 -254 q 594 -267 628 -267 z "},"Ø":{"ha":1072,"x_min":86,"x_max":986,"o":"m 86 490 q 140 758 86 646 q 294 931 193 869 q 536 992 394 992 q 775 931 674 992 q 931 758 876 869 q 986 492 986 646 q 931 224 986 336 q 774 49 875 111 q 536 -12 674 -12 q 294 49 394 -12 q 140 224 194 111 q 86 490 86 336 m 207 490 q 290 195 207 301 q 536 89 374 89 q 778 195 692 89 q 865 490 865 301 q 779 785 865 681 q 536 890 693 890 q 290 785 374 890 q 207 490 207 681 m 343 64 l 268 -65 l 190 -19 l 265 110 l 301 161 l 713 865 l 736 917 l 811 1044 l 889 999 l 814 869 l 778 819 l 367 114 l 343 64 z "},"Ǿ":{"ha":1072,"x_min":86,"x_max":986,"o":"m 86 490 q 140 758 86 646 q 294 931 193 869 q 536 992 394 992 q 775 931 674 992 q 931 758 876 869 q 986 492 986 646 q 931 224 986 336 q 774 49 875 111 q 536 -12 674 -12 q 294 49 394 -12 q 140 224 194 111 q 86 490 86 336 m 207 490 q 290 195 207 301 q 536 89 374 89 q 778 195 692 89 q 865 490 865 301 q 779 785 865 681 q 536 890 693 890 q 290 785 374 890 q 207 490 207 681 m 343 64 l 268 -65 l 190 -19 l 265 110 l 301 161 l 713 865 l 736 917 l 811 1044 l 889 999 l 814 869 l 778 819 l 367 114 l 343 64 m 493 1063 l 657 1301 l 783 1301 l 579 1063 l 493 1063 z "},"Õ":{"ha":1072,"x_min":86,"x_max":986,"o":"m 86 490 q 140 758 86 646 q 294 931 193 869 q 536 992 394 992 q 775 931 674 992 q 931 758 876 869 q 986 492 986 646 q 931 224 986 336 q 774 49 875 111 q 536 -12 674 -12 q 294 49 394 -12 q 140 224 194 111 q 86 490 86 336 m 207 490 q 290 195 207 301 q 536 89 374 89 q 778 195 692 89 q 865 490 865 301 q 779 785 865 681 q 536 890 693 890 q 290 785 374 890 q 207 490 207 681 m 310 1088 l 246 1092 q 299 1228 254 1181 q 413 1276 344 1276 q 477 1263 444 1276 q 556 1219 510 1250 q 621 1182 599 1193 q 664 1171 643 1171 q 729 1199 706 1171 q 763 1281 753 1228 l 826 1276 q 774 1140 818 1188 q 661 1092 729 1092 q 596 1106 629 1092 q 513 1151 563 1119 q 451 1187 475 1176 q 408 1197 428 1197 q 343 1169 367 1197 q 310 1088 319 1140 z "},"Ṍ":{"ha":1072,"x_min":86,"x_max":986,"o":"m 86 490 q 140 758 86 646 q 294 931 193 869 q 536 992 394 992 q 775 931 674 992 q 931 758 876 869 q 986 492 986 646 q 931 224 986 336 q 774 49 875 111 q 536 -12 674 -12 q 294 49 394 -12 q 140 224 194 111 q 86 490 86 336 m 207 490 q 290 195 207 301 q 536 89 374 89 q 778 195 692 89 q 865 490 865 301 q 779 785 865 681 q 536 890 693 890 q 290 785 374 890 q 207 490 207 681 m 497 1225 l 617 1421 l 735 1421 l 575 1225 l 497 1225 m 626 1067 q 577 1076 601 1067 q 522 1107 553 1086 q 478 1133 494 1128 q 449 1139 463 1139 q 402 1121 418 1139 q 379 1064 386 1103 l 317 1067 q 358 1173 322 1138 q 447 1208 393 1208 q 492 1200 471 1208 q 546 1171 514 1192 q 592 1143 575 1150 q 624 1136 608 1136 q 672 1153 656 1136 q 693 1211 688 1171 l 756 1207 q 715 1101 750 1136 q 626 1067 681 1067 z "},"Ṏ":{"ha":1072,"x_min":86,"x_max":986,"o":"m 86 490 q 140 758 86 646 q 294 931 193 869 q 536 992 394 992 q 775 931 674 992 q 931 758 876 869 q 986 492 986 646 q 931 224 986 336 q 774 49 875 111 q 536 -12 674 -12 q 294 49 394 -12 q 140 224 194 111 q 86 490 86 336 m 207 490 q 290 195 207 301 q 536 89 374 89 q 778 195 692 89 q 865 490 865 301 q 779 785 865 681 q 536 890 693 890 q 290 785 374 890 q 207 490 207 681 m 626 1067 q 577 1076 601 1067 q 522 1107 553 1086 q 478 1133 494 1128 q 449 1139 463 1139 q 402 1121 418 1139 q 379 1064 386 1103 l 317 1067 q 358 1173 322 1138 q 447 1208 393 1208 q 492 1200 471 1208 q 546 1171 514 1192 q 592 1143 575 1150 q 624 1136 608 1136 q 672 1153 656 1136 q 693 1211 688 1171 l 756 1207 q 715 1101 750 1136 q 626 1067 681 1067 m 356 1265 l 356 1368 l 475 1368 l 475 1265 l 356 1265 m 597 1265 l 597 1368 l 717 1368 l 717 1265 l 597 1265 z "},"Ȭ":{"ha":1072,"x_min":86,"x_max":986,"o":"m 86 490 q 140 758 86 646 q 294 931 193 869 q 536 992 394 992 q 775 931 674 992 q 931 758 876 869 q 986 492 986 646 q 931 224 986 336 q 774 49 875 111 q 536 -12 674 -12 q 294 49 394 -12 q 140 224 194 111 q 86 490 86 336 m 207 490 q 290 195 207 301 q 536 89 374 89 q 778 195 692 89 q 865 490 865 301 q 779 785 865 681 q 536 890 693 890 q 290 785 374 890 q 207 490 207 681 m 331 1286 l 331 1363 l 742 1363 l 742 1286 l 331 1286 m 626 1067 q 577 1076 601 1067 q 522 1107 553 1086 q 478 1133 494 1128 q 449 1139 463 1139 q 402 1121 418 1139 q 379 1064 386 1103 l 317 1067 q 358 1173 322 1138 q 447 1208 393 1208 q 492 1200 471 1208 q 546 1171 514 1192 q 592 1143 575 1150 q 624 1136 608 1136 q 672 1153 656 1136 q 693 1211 688 1171 l 756 1207 q 715 1101 750 1136 q 626 1067 681 1067 z "},"Œ":{"ha":1467,"x_min":86,"x_max":1397,"o":"m 776 0 l 776 979 l 1397 979 l 1397 885 l 889 885 l 889 544 l 1368 544 l 1368 449 l 889 449 l 889 96 l 1397 96 l 1397 0 l 776 0 m 529 -12 q 291 49 390 -12 q 139 224 192 111 q 86 490 86 336 q 138 758 86 646 q 290 931 190 869 q 529 992 389 992 q 678 974 608 992 q 797 910 747 956 l 797 776 q 690 865 757 839 q 536 890 624 890 q 290 785 374 890 q 207 490 207 681 q 290 195 207 301 q 536 89 374 89 q 694 119 626 89 q 803 215 763 150 l 803 83 q 726 31 769 51 q 633 -1 683 10 q 529 -12 583 -12 z "},"P":{"ha":904,"x_min":122,"x_max":842,"o":"m 122 0 l 122 979 l 521 979 q 758 905 675 979 q 842 699 842 831 q 758 494 842 569 q 521 418 675 418 l 238 418 l 238 0 l 122 0 m 238 514 l 510 514 q 672 563 617 514 q 726 699 726 611 q 672 836 726 788 q 510 885 617 885 l 238 885 l 238 514 z "},"Þ":{"ha":906,"x_min":122,"x_max":842,"o":"m 122 0 l 122 979 l 238 979 l 238 792 l 518 792 q 756 717 671 792 q 842 511 842 643 q 756 306 842 381 q 518 231 671 231 l 238 231 l 238 0 l 122 0 m 238 326 l 510 326 q 672 375 617 326 q 726 511 726 424 q 672 649 726 600 q 510 697 617 697 l 238 697 l 238 326 z "},"Q":{"ha":1072,"x_min":86,"x_max":986,"o":"m 800 -265 q 717 -197 760 -239 q 635 -104 674 -156 q 569 -1 597 -53 l 671 36 q 764 -95 707 -36 q 879 -197 821 -154 l 800 -265 m 86 490 q 140 758 86 646 q 294 931 193 869 q 536 992 394 992 q 775 931 674 992 q 931 758 876 869 q 986 492 986 646 q 931 224 986 336 q 774 49 875 111 q 536 -12 674 -12 q 294 49 394 -12 q 140 224 194 111 q 86 490 86 336 m 207 490 q 290 195 207 301 q 536 89 374 89 q 778 195 692 89 q 865 490 865 301 q 779 785 865 681 q 536 890 693 890 q 290 785 374 890 q 207 490 207 681 z "},"R":{"ha":961,"x_min":122,"x_max":906,"o":"m 122 0 l 122 979 l 522 979 q 761 906 676 979 q 846 703 846 833 q 808 556 846 617 q 701 464 769 496 q 540 432 632 432 l 565 450 l 593 450 q 695 422 650 450 q 767 329 740 394 l 906 0 l 779 0 l 646 324 q 575 405 622 386 q 457 424 528 424 l 238 424 l 238 0 l 122 0 m 238 514 l 506 514 q 674 562 617 514 q 732 700 732 610 q 674 838 732 790 q 506 885 617 885 l 238 885 l 238 514 z "},"Ŕ":{"ha":961,"x_min":122,"x_max":906,"o":"m 122 0 l 122 979 l 522 979 q 761 906 676 979 q 846 703 846 833 q 808 556 846 617 q 701 464 769 496 q 540 432 632 432 l 565 450 l 593 450 q 695 422 650 450 q 767 329 740 394 l 906 0 l 779 0 l 646 324 q 575 405 622 386 q 457 424 528 424 l 238 424 l 238 0 l 122 0 m 238 514 l 506 514 q 674 562 617 514 q 732 700 732 610 q 674 838 732 790 q 506 885 617 885 l 238 885 l 238 514 m 438 1063 l 601 1301 l 728 1301 l 524 1063 l 438 1063 z "},"Ř":{"ha":961,"x_min":122,"x_max":906,"o":"m 122 0 l 122 979 l 522 979 q 761 906 676 979 q 846 703 846 833 q 808 556 846 617 q 701 464 769 496 q 540 432 632 432 l 565 450 l 593 450 q 695 422 650 450 q 767 329 740 394 l 906 0 l 779 0 l 646 324 q 575 405 622 386 q 457 424 528 424 l 238 424 l 238 0 l 122 0 m 238 514 l 506 514 q 674 562 617 514 q 732 700 732 610 q 674 838 732 790 q 506 885 617 885 l 238 885 l 238 514 m 428 1063 l 257 1301 l 342 1301 l 481 1136 l 619 1301 l 704 1301 l 533 1063 l 428 1063 z "},"Ŗ":{"ha":961,"x_min":122,"x_max":906,"o":"m 122 0 l 122 979 l 522 979 q 761 906 676 979 q 846 703 846 833 q 808 556 846 617 q 701 464 769 496 q 540 432 632 432 l 565 450 l 593 450 q 695 422 650 450 q 767 329 740 394 l 906 0 l 779 0 l 646 324 q 575 405 622 386 q 457 424 528 424 l 238 424 l 238 0 l 122 0 m 238 514 l 506 514 q 674 562 617 514 q 732 700 732 610 q 674 838 732 790 q 506 885 617 885 l 238 885 l 238 514 m 476 -372 l 426 -336 q 469 -274 458 -303 q 479 -211 479 -244 l 508 -225 l 411 -225 l 411 -111 l 549 -111 l 549 -194 q 531 -291 549 -246 q 476 -372 514 -336 z "},"Ȑ":{"ha":961,"x_min":122,"x_max":906,"o":"m 122 0 l 122 979 l 522 979 q 761 906 676 979 q 846 703 846 833 q 808 556 846 617 q 701 464 769 496 q 540 432 632 432 l 565 450 l 593 450 q 695 422 650 450 q 767 329 740 394 l 906 0 l 779 0 l 646 324 q 575 405 622 386 q 457 424 528 424 l 238 424 l 238 0 l 122 0 m 238 514 l 506 514 q 674 562 617 514 q 732 700 732 610 q 674 838 732 790 q 506 885 617 885 l 238 885 l 238 514 m 536 1063 l 371 1301 l 483 1301 l 601 1063 l 536 1063 m 360 1063 l 190 1301 l 301 1301 l 425 1063 l 360 1063 z "},"Ṛ":{"ha":961,"x_min":122,"x_max":906,"o":"m 122 0 l 122 979 l 522 979 q 761 906 676 979 q 846 703 846 833 q 808 556 846 617 q 701 464 769 496 q 540 432 632 432 l 565 450 l 593 450 q 695 422 650 450 q 767 329 740 394 l 906 0 l 779 0 l 646 324 q 575 405 622 386 q 457 424 528 424 l 238 424 l 238 0 l 122 0 m 238 514 l 506 514 q 674 562 617 514 q 732 700 732 610 q 674 838 732 790 q 506 885 617 885 l 238 885 l 238 514 m 417 -260 l 417 -137 l 544 -137 l 544 -260 l 417 -260 z "},"Ȓ":{"ha":961,"x_min":122,"x_max":906,"o":"m 122 0 l 122 979 l 522 979 q 761 906 676 979 q 846 703 846 833 q 808 556 846 617 q 701 464 769 496 q 540 432 632 432 l 565 450 l 593 450 q 695 422 650 450 q 767 329 740 394 l 906 0 l 779 0 l 646 324 q 575 405 622 386 q 457 424 528 424 l 238 424 l 238 0 l 122 0 m 238 514 l 506 514 q 674 562 617 514 q 732 700 732 610 q 674 838 732 790 q 506 885 617 885 l 238 885 l 238 514 m 317 1056 l 246 1064 q 318 1236 254 1174 q 481 1299 382 1299 q 643 1236 579 1299 q 715 1064 707 1174 l 644 1056 q 595 1180 639 1136 q 481 1224 551 1224 q 367 1180 410 1224 q 317 1056 324 1136 z "},"Ṟ":{"ha":961,"x_min":122,"x_max":906,"o":"m 122 0 l 122 979 l 522 979 q 761 906 676 979 q 846 703 846 833 q 808 556 846 617 q 701 464 769 496 q 540 432 632 432 l 565 450 l 593 450 q 695 422 650 450 q 767 329 740 394 l 906 0 l 779 0 l 646 324 q 575 405 622 386 q 457 424 528 424 l 238 424 l 238 0 l 122 0 m 238 514 l 506 514 q 674 562 617 514 q 732 700 732 610 q 674 838 732 790 q 506 885 617 885 l 238 885 l 238 514 m 275 -217 l 275 -140 l 686 -140 l 686 -217 l 275 -217 z "},"S":{"ha":865,"x_min":68,"x_max":801,"o":"m 442 -12 q 231 18 324 -12 q 68 106 138 49 l 110 197 q 208 137 158 161 q 314 101 257 113 q 442 89 371 89 q 625 135 565 89 q 685 257 685 181 q 643 357 685 322 q 497 413 601 392 l 351 442 q 151 532 217 469 q 85 701 85 594 q 130 854 85 789 q 257 956 175 919 q 447 992 339 992 q 638 960 551 992 q 785 869 724 929 l 744 781 q 608 865 679 839 q 446 890 536 890 q 266 841 332 890 q 200 707 200 792 q 242 601 200 639 q 379 543 283 563 l 526 514 q 735 426 668 485 q 801 263 801 368 q 758 119 801 182 q 633 22 714 57 q 442 -12 553 -12 z "},"Ś":{"ha":865,"x_min":68,"x_max":801,"o":"m 442 -12 q 231 18 324 -12 q 68 106 138 49 l 110 197 q 208 137 158 161 q 314 101 257 113 q 442 89 371 89 q 625 135 565 89 q 685 257 685 181 q 643 357 685 322 q 497 413 601 392 l 351 442 q 151 532 217 469 q 85 701 85 594 q 130 854 85 789 q 257 956 175 919 q 447 992 339 992 q 638 960 551 992 q 785 869 724 929 l 744 781 q 608 865 679 839 q 446 890 536 890 q 266 841 332 890 q 200 707 200 792 q 242 601 200 639 q 379 543 283 563 l 526 514 q 735 426 668 485 q 801 263 801 368 q 758 119 801 182 q 633 22 714 57 q 442 -12 553 -12 m 403 1063 l 567 1301 l 693 1301 l 489 1063 l 403 1063 z "},"Ṥ":{"ha":865,"x_min":68,"x_max":801,"o":"m 442 -12 q 231 18 324 -12 q 68 106 138 49 l 110 197 q 208 137 158 161 q 314 101 257 113 q 442 89 371 89 q 625 135 565 89 q 685 257 685 181 q 643 357 685 322 q 497 413 601 392 l 351 442 q 151 532 217 469 q 85 701 85 594 q 130 854 85 789 q 257 956 175 919 q 447 992 339 992 q 638 960 551 992 q 785 869 724 929 l 744 781 q 608 865 679 839 q 446 890 536 890 q 266 841 332 890 q 200 707 200 792 q 242 601 200 639 q 379 543 283 563 l 526 514 q 735 426 668 485 q 801 263 801 368 q 758 119 801 182 q 633 22 714 57 q 442 -12 553 -12 m 326 1306 l 326 1407 l 446 1407 l 446 1306 l 326 1306 m 403 1063 l 567 1301 l 693 1301 l 489 1063 l 403 1063 z "},"Š":{"ha":865,"x_min":68,"x_max":801,"o":"m 442 -12 q 231 18 324 -12 q 68 106 138 49 l 110 197 q 208 137 158 161 q 314 101 257 113 q 442 89 371 89 q 625 135 565 89 q 685 257 685 181 q 643 357 685 322 q 497 413 601 392 l 351 442 q 151 532 217 469 q 85 701 85 594 q 130 854 85 789 q 257 956 175 919 q 447 992 339 992 q 638 960 551 992 q 785 869 724 929 l 744 781 q 608 865 679 839 q 446 890 536 890 q 266 841 332 890 q 200 707 200 792 q 242 601 200 639 q 379 543 283 563 l 526 514 q 735 426 668 485 q 801 263 801 368 q 758 119 801 182 q 633 22 714 57 q 442 -12 553 -12 m 393 1063 l 222 1301 l 307 1301 l 446 1136 l 585 1301 l 669 1301 l 499 1063 l 393 1063 z "},"Ṧ":{"ha":865,"x_min":68,"x_max":801,"o":"m 442 -12 q 231 18 324 -12 q 68 106 138 49 l 110 197 q 208 137 158 161 q 314 101 257 113 q 442 89 371 89 q 625 135 565 89 q 685 257 685 181 q 643 357 685 322 q 497 413 601 392 l 351 442 q 151 532 217 469 q 85 701 85 594 q 130 854 85 789 q 257 956 175 919 q 447 992 339 992 q 638 960 551 992 q 785 869 724 929 l 744 781 q 608 865 679 839 q 446 890 536 890 q 266 841 332 890 q 200 707 200 792 q 242 601 200 639 q 379 543 283 563 l 526 514 q 735 426 668 485 q 801 263 801 368 q 758 119 801 182 q 633 22 714 57 q 442 -12 553 -12 m 392 1063 l 240 1285 l 318 1285 l 446 1136 l 574 1285 l 651 1285 l 500 1063 l 392 1063 m 386 1347 l 386 1449 l 507 1449 l 507 1347 l 386 1347 z "},"Ş":{"ha":865,"x_min":68,"x_max":801,"o":"m 442 -12 q 231 18 324 -12 q 68 106 138 49 l 110 197 q 208 137 158 161 q 314 101 257 113 q 442 89 371 89 q 625 135 565 89 q 685 257 685 181 q 643 357 685 322 q 497 413 601 392 l 351 442 q 151 532 217 469 q 85 701 85 594 q 130 854 85 789 q 257 956 175 919 q 447 992 339 992 q 638 960 551 992 q 785 869 724 929 l 744 781 q 608 865 679 839 q 446 890 536 890 q 266 841 332 890 q 200 707 200 792 q 242 601 200 639 q 379 543 283 563 l 526 514 q 735 426 668 485 q 801 263 801 368 q 758 119 801 182 q 633 22 714 57 q 442 -12 553 -12 m 454 -267 q 385 -260 418 -267 q 329 -240 353 -253 l 349 -179 q 397 -196 374 -190 q 450 -201 419 -201 q 510 -188 488 -201 q 532 -150 532 -175 q 479 -111 532 -111 q 449 -113 464 -111 q 414 -124 435 -115 l 390 -101 l 411 28 l 482 28 l 464 -76 l 431 -68 q 463 -61 446 -64 q 493 -58 479 -58 q 576 -83 543 -58 q 610 -153 610 -108 q 567 -235 610 -204 q 454 -267 524 -267 z "},"Ŝ":{"ha":865,"x_min":68,"x_max":801,"o":"m 442 -12 q 231 18 324 -12 q 68 106 138 49 l 110 197 q 208 137 158 161 q 314 101 257 113 q 442 89 371 89 q 625 135 565 89 q 685 257 685 181 q 643 357 685 322 q 497 413 601 392 l 351 442 q 151 532 217 469 q 85 701 85 594 q 130 854 85 789 q 257 956 175 919 q 447 992 339 992 q 638 960 551 992 q 785 869 724 929 l 744 781 q 608 865 679 839 q 446 890 536 890 q 266 841 332 890 q 200 707 200 792 q 242 601 200 639 q 379 543 283 563 l 526 514 q 735 426 668 485 q 801 263 801 368 q 758 119 801 182 q 633 22 714 57 q 442 -12 553 -12 m 222 1063 l 393 1301 l 499 1301 l 669 1063 l 585 1063 l 446 1228 l 307 1063 l 222 1063 z "},"Ș":{"ha":865,"x_min":68,"x_max":801,"o":"m 442 -12 q 231 18 324 -12 q 68 106 138 49 l 110 197 q 208 137 158 161 q 314 101 257 113 q 442 89 371 89 q 625 135 565 89 q 685 257 685 181 q 643 357 685 322 q 497 413 601 392 l 351 442 q 151 532 217 469 q 85 701 85 594 q 130 854 85 789 q 257 956 175 919 q 447 992 339 992 q 638 960 551 992 q 785 869 724 929 l 744 781 q 608 865 679 839 q 446 890 536 890 q 266 841 332 890 q 200 707 200 792 q 242 601 200 639 q 379 543 283 563 l 526 514 q 735 426 668 485 q 801 263 801 368 q 758 119 801 182 q 633 22 714 57 q 442 -12 553 -12 m 446 -372 l 396 -336 q 438 -274 428 -303 q 449 -211 449 -244 l 478 -225 l 381 -225 l 381 -111 l 518 -111 l 518 -194 q 501 -291 518 -246 q 446 -372 483 -336 z "},"Ṡ":{"ha":865,"x_min":68,"x_max":801,"o":"m 442 -12 q 231 18 324 -12 q 68 106 138 49 l 110 197 q 208 137 158 161 q 314 101 257 113 q 442 89 371 89 q 625 135 565 89 q 685 257 685 181 q 643 357 685 322 q 497 413 601 392 l 351 442 q 151 532 217 469 q 85 701 85 594 q 130 854 85 789 q 257 956 175 919 q 447 992 339 992 q 638 960 551 992 q 785 869 724 929 l 744 781 q 608 865 679 839 q 446 890 536 890 q 266 841 332 890 q 200 707 200 792 q 242 601 200 639 q 379 543 283 563 l 526 514 q 735 426 668 485 q 801 263 801 368 q 758 119 801 182 q 633 22 714 57 q 442 -12 553 -12 m 383 1121 l 383 1243 l 508 1243 l 508 1121 l 383 1121 z "},"Ṣ":{"ha":865,"x_min":68,"x_max":801,"o":"m 442 -12 q 231 18 324 -12 q 68 106 138 49 l 110 197 q 208 137 158 161 q 314 101 257 113 q 442 89 371 89 q 625 135 565 89 q 685 257 685 181 q 643 357 685 322 q 497 413 601 392 l 351 442 q 151 532 217 469 q 85 701 85 594 q 130 854 85 789 q 257 956 175 919 q 447 992 339 992 q 638 960 551 992 q 785 869 724 929 l 744 781 q 608 865 679 839 q 446 890 536 890 q 266 841 332 890 q 200 707 200 792 q 242 601 200 639 q 379 543 283 563 l 526 514 q 735 426 668 485 q 801 263 801 368 q 758 119 801 182 q 633 22 714 57 q 442 -12 553 -12 m 386 -260 l 386 -137 l 514 -137 l 514 -260 l 386 -260 z "},"Ṩ":{"ha":865,"x_min":68,"x_max":801,"o":"m 442 -12 q 231 18 324 -12 q 68 106 138 49 l 110 197 q 208 137 158 161 q 314 101 257 113 q 442 89 371 89 q 625 135 565 89 q 685 257 685 181 q 643 357 685 322 q 497 413 601 392 l 351 442 q 151 532 217 469 q 85 701 85 594 q 130 854 85 789 q 257 956 175 919 q 447 992 339 992 q 638 960 551 992 q 785 869 724 929 l 744 781 q 608 865 679 839 q 446 890 536 890 q 266 841 332 890 q 200 707 200 792 q 242 601 200 639 q 379 543 283 563 l 526 514 q 735 426 668 485 q 801 263 801 368 q 758 119 801 182 q 633 22 714 57 q 442 -12 553 -12 m 386 -260 l 386 -137 l 514 -137 l 514 -260 l 386 -260 m 383 1121 l 383 1243 l 508 1243 l 508 1121 l 383 1121 z "},"ẞ":{"ha":965,"x_min":122,"x_max":883,"o":"m 568 -12 q 424 9 488 -12 q 308 75 361 31 l 351 161 q 449 101 401 118 q 560 85 496 85 q 716 133 663 85 q 769 267 769 181 q 713 399 769 354 q 536 444 656 444 l 363 444 l 363 539 l 501 539 q 659 585 603 539 q 715 717 715 631 q 661 849 715 804 q 493 894 607 894 q 293 831 351 894 q 235 638 235 767 l 235 0 l 122 0 l 122 640 q 215 903 122 814 q 499 992 307 992 q 744 923 660 992 q 829 732 829 854 q 779 576 829 642 q 643 490 729 511 l 643 513 q 818 434 753 500 q 883 261 883 368 q 801 59 883 131 q 568 -12 718 -12 z "},"Ə":{"ha":1042,"x_min":86,"x_max":956,"o":"m 517 -12 q 269 50 364 -12 q 130 226 174 113 q 86 490 86 339 l 86 540 l 858 540 l 858 446 l 172 446 l 203 490 q 233 269 203 358 q 331 133 263 179 q 514 88 399 88 q 753 192 669 88 q 838 492 838 297 q 748 787 838 683 q 482 890 658 890 q 363 878 415 890 q 264 842 310 867 q 171 776 218 817 l 125 867 q 283 960 194 928 q 493 992 371 992 q 742 931 639 992 q 901 759 846 871 q 956 492 956 647 q 903 223 956 336 q 751 49 850 110 q 517 -12 653 -12 z "},"T":{"ha":839,"x_min":14,"x_max":819,"o":"m 360 0 l 360 882 l 14 882 l 14 979 l 819 979 l 819 882 l 475 882 l 475 0 l 360 0 z "},"Ŧ":{"ha":839,"x_min":14,"x_max":819,"o":"m 360 0 l 360 882 l 14 882 l 14 979 l 819 979 l 819 882 l 475 882 l 475 0 l 360 0 m 164 453 l 164 542 l 674 542 l 674 453 l 164 453 z "},"Ť":{"ha":839,"x_min":14,"x_max":819,"o":"m 360 0 l 360 882 l 14 882 l 14 979 l 819 979 l 819 882 l 475 882 l 475 0 l 360 0 m 367 1063 l 196 1301 l 281 1301 l 419 1136 l 558 1301 l 643 1301 l 472 1063 l 367 1063 z "},"Ţ":{"ha":839,"x_min":14,"x_max":819,"o":"m 360 0 l 360 882 l 14 882 l 14 979 l 819 979 l 819 882 l 475 882 l 475 0 l 360 0 m 424 -267 q 355 -260 388 -267 q 299 -240 322 -253 l 318 -179 q 366 -196 343 -190 q 419 -201 389 -201 q 479 -188 457 -201 q 501 -150 501 -175 q 449 -111 501 -111 q 419 -113 433 -111 q 383 -124 404 -115 l 360 -101 l 381 28 l 451 28 l 433 -76 l 400 -68 q 432 -61 415 -64 q 463 -58 449 -58 q 546 -83 513 -58 q 579 -153 579 -108 q 536 -235 579 -204 q 424 -267 493 -267 z "},"Ț":{"ha":839,"x_min":14,"x_max":819,"o":"m 360 0 l 360 882 l 14 882 l 14 979 l 819 979 l 819 882 l 475 882 l 475 0 l 360 0 m 415 -372 l 365 -336 q 408 -274 397 -303 q 418 -211 418 -244 l 447 -225 l 350 -225 l 350 -111 l 488 -111 l 488 -194 q 470 -291 488 -246 q 415 -372 453 -336 z "},"Ṭ":{"ha":839,"x_min":14,"x_max":819,"o":"m 360 0 l 360 882 l 14 882 l 14 979 l 819 979 l 819 882 l 475 882 l 475 0 l 360 0 m 356 -260 l 356 -137 l 483 -137 l 483 -260 l 356 -260 z "},"Ṯ":{"ha":839,"x_min":14,"x_max":819,"o":"m 360 0 l 360 882 l 14 882 l 14 979 l 819 979 l 819 882 l 475 882 l 475 0 l 360 0 m 214 -217 l 214 -140 l 625 -140 l 625 -217 l 214 -217 z "},"U":{"ha":1014,"x_min":117,"x_max":900,"o":"m 508 -12 q 213 89 310 -12 q 117 388 117 190 l 117 979 l 231 979 l 231 393 q 297 165 231 242 q 508 89 364 89 q 715 165 644 89 q 786 393 786 242 l 786 979 l 900 979 l 900 388 q 801 89 900 190 q 508 -12 701 -12 z "},"Ú":{"ha":1014,"x_min":117,"x_max":900,"o":"m 508 -12 q 213 89 310 -12 q 117 388 117 190 l 117 979 l 231 979 l 231 393 q 297 165 231 242 q 508 89 364 89 q 715 165 644 89 q 786 393 786 242 l 786 979 l 900 979 l 900 388 q 801 89 900 190 q 508 -12 701 -12 m 465 1063 l 629 1301 l 756 1301 l 551 1063 l 465 1063 z "},"Ŭ":{"ha":1014,"x_min":117,"x_max":900,"o":"m 508 -12 q 213 89 310 -12 q 117 388 117 190 l 117 979 l 231 979 l 231 393 q 297 165 231 242 q 508 89 364 89 q 715 165 644 89 q 786 393 786 242 l 786 979 l 900 979 l 900 388 q 801 89 900 190 q 508 -12 701 -12 m 508 1056 q 346 1118 410 1056 q 274 1289 282 1181 l 344 1299 q 394 1175 351 1219 q 508 1131 438 1131 q 623 1175 579 1131 q 672 1299 667 1219 l 743 1289 q 671 1118 735 1181 q 508 1056 607 1056 z "},"Û":{"ha":1014,"x_min":117,"x_max":900,"o":"m 508 -12 q 213 89 310 -12 q 117 388 117 190 l 117 979 l 231 979 l 231 393 q 297 165 231 242 q 508 89 364 89 q 715 165 644 89 q 786 393 786 242 l 786 979 l 900 979 l 900 388 q 801 89 900 190 q 508 -12 701 -12 m 285 1063 l 456 1301 l 561 1301 l 732 1063 l 647 1063 l 508 1228 l 369 1063 l 285 1063 z "},"Ȕ":{"ha":1014,"x_min":117,"x_max":900,"o":"m 508 -12 q 213 89 310 -12 q 117 388 117 190 l 117 979 l 231 979 l 231 393 q 297 165 231 242 q 508 89 364 89 q 715 165 644 89 q 786 393 786 242 l 786 979 l 900 979 l 900 388 q 801 89 900 190 q 508 -12 701 -12 m 564 1063 l 399 1301 l 511 1301 l 629 1063 l 564 1063 m 388 1063 l 218 1301 l 329 1301 l 453 1063 l 388 1063 z "},"Ü":{"ha":1014,"x_min":117,"x_max":900,"o":"m 508 -12 q 213 89 310 -12 q 117 388 117 190 l 117 979 l 231 979 l 231 393 q 297 165 231 242 q 508 89 364 89 q 715 165 644 89 q 786 393 786 242 l 786 979 l 900 979 l 900 388 q 801 89 900 190 q 508 -12 701 -12 m 569 1119 l 569 1239 l 689 1239 l 689 1119 l 569 1119 m 328 1119 l 328 1239 l 447 1239 l 447 1119 l 328 1119 z "},"Ụ":{"ha":1014,"x_min":117,"x_max":900,"o":"m 508 -12 q 213 89 310 -12 q 117 388 117 190 l 117 979 l 231 979 l 231 393 q 297 165 231 242 q 508 89 364 89 q 715 165 644 89 q 786 393 786 242 l 786 979 l 900 979 l 900 388 q 801 89 900 190 q 508 -12 701 -12 m 444 -260 l 444 -137 l 572 -137 l 572 -260 l 444 -260 z "},"Ù":{"ha":1014,"x_min":117,"x_max":900,"o":"m 508 -12 q 213 89 310 -12 q 117 388 117 190 l 117 979 l 231 979 l 231 393 q 297 165 231 242 q 508 89 364 89 q 715 165 644 89 q 786 393 786 242 l 786 979 l 900 979 l 900 388 q 801 89 900 190 q 508 -12 701 -12 m 465 1063 l 261 1301 l 388 1301 l 551 1063 l 465 1063 z "},"Ủ":{"ha":1014,"x_min":117,"x_max":900,"o":"m 508 -12 q 213 89 310 -12 q 117 388 117 190 l 117 979 l 231 979 l 231 393 q 297 165 231 242 q 508 89 364 89 q 715 165 644 89 q 786 393 786 242 l 786 979 l 900 979 l 900 388 q 801 89 900 190 q 508 -12 701 -12 m 469 1063 l 469 1085 q 483 1130 469 1113 q 513 1160 496 1147 q 544 1183 531 1172 q 557 1211 557 1194 q 541 1235 557 1226 q 493 1243 525 1243 q 451 1239 471 1243 q 404 1222 431 1235 l 386 1282 q 515 1310 438 1310 q 613 1286 578 1310 q 649 1224 649 1263 q 633 1176 649 1194 q 598 1147 618 1158 q 563 1119 578 1135 q 547 1078 547 1104 l 547 1063 l 469 1063 z "},"Ư":{"ha":1014,"x_min":117,"x_max":1074,"o":"m 508 -12 q 213 89 310 -12 q 117 388 117 190 l 117 979 l 231 979 l 231 393 q 297 165 231 242 q 508 89 364 89 q 715 165 644 89 q 786 393 786 242 l 786 979 l 900 979 l 900 388 q 801 89 900 190 q 508 -12 701 -12 m 878 910 l 821 949 l 821 979 q 913 997 881 981 q 960 1047 946 1013 q 974 1136 974 1082 l 974 1160 l 1074 1160 l 1074 1121 q 1051 1013 1074 1058 q 984 940 1028 967 q 878 910 940 914 z "},"Ứ":{"ha":1014,"x_min":117,"x_max":1074,"o":"m 508 -12 q 213 89 310 -12 q 117 388 117 190 l 117 979 l 231 979 l 231 393 q 297 165 231 242 q 508 89 364 89 q 715 165 644 89 q 786 393 786 242 l 786 979 l 900 979 l 900 388 q 801 89 900 190 q 508 -12 701 -12 m 878 910 l 821 949 l 821 979 q 913 997 881 981 q 960 1047 946 1013 q 974 1136 974 1082 l 974 1160 l 1074 1160 l 1074 1121 q 1051 1013 1074 1058 q 984 940 1028 967 q 878 910 940 914 m 479 1063 l 643 1301 l 769 1301 l 565 1063 l 479 1063 z "},"Ự":{"ha":1014,"x_min":117,"x_max":1074,"o":"m 508 -12 q 213 89 310 -12 q 117 388 117 190 l 117 979 l 231 979 l 231 393 q 297 165 231 242 q 508 89 364 89 q 715 165 644 89 q 786 393 786 242 l 786 979 l 900 979 l 900 388 q 801 89 900 190 q 508 -12 701 -12 m 878 910 l 821 949 l 821 979 q 913 997 881 981 q 960 1047 946 1013 q 974 1136 974 1082 l 974 1160 l 1074 1160 l 1074 1121 q 1051 1013 1074 1058 q 984 940 1028 967 q 878 910 940 914 m 458 -260 l 458 -137 l 586 -137 l 586 -260 l 458 -260 z "},"Ừ":{"ha":1014,"x_min":117,"x_max":1074,"o":"m 508 -12 q 213 89 310 -12 q 117 388 117 190 l 117 979 l 231 979 l 231 393 q 297 165 231 242 q 508 89 364 89 q 715 165 644 89 q 786 393 786 242 l 786 979 l 900 979 l 900 388 q 801 89 900 190 q 508 -12 701 -12 m 878 910 l 821 949 l 821 979 q 913 997 881 981 q 960 1047 946 1013 q 974 1136 974 1082 l 974 1160 l 1074 1160 l 1074 1121 q 1051 1013 1074 1058 q 984 940 1028 967 q 878 910 940 914 m 479 1063 l 275 1301 l 401 1301 l 565 1063 l 479 1063 z "},"Ử":{"ha":1014,"x_min":117,"x_max":1074,"o":"m 508 -12 q 213 89 310 -12 q 117 388 117 190 l 117 979 l 231 979 l 231 393 q 297 165 231 242 q 508 89 364 89 q 715 165 644 89 q 786 393 786 242 l 786 979 l 900 979 l 900 388 q 801 89 900 190 q 508 -12 701 -12 m 878 910 l 821 949 l 821 979 q 913 997 881 981 q 960 1047 946 1013 q 974 1136 974 1082 l 974 1160 l 1074 1160 l 1074 1121 q 1051 1013 1074 1058 q 984 940 1028 967 q 878 910 940 914 m 483 1063 l 483 1085 q 497 1130 483 1113 q 527 1160 510 1147 q 558 1183 544 1172 q 571 1211 571 1194 q 555 1235 571 1226 q 507 1243 539 1243 q 465 1239 485 1243 q 418 1222 444 1235 l 400 1282 q 529 1310 451 1310 q 627 1286 592 1310 q 663 1224 663 1263 q 647 1176 663 1194 q 612 1147 632 1158 q 576 1119 592 1135 q 561 1078 561 1104 l 561 1063 l 483 1063 z "},"Ữ":{"ha":1014,"x_min":117,"x_max":1074,"o":"m 508 -12 q 213 89 310 -12 q 117 388 117 190 l 117 979 l 231 979 l 231 393 q 297 165 231 242 q 508 89 364 89 q 715 165 644 89 q 786 393 786 242 l 786 979 l 900 979 l 900 388 q 801 89 900 190 q 508 -12 701 -12 m 878 910 l 821 949 l 821 979 q 913 997 881 981 q 960 1047 946 1013 q 974 1136 974 1082 l 974 1160 l 1074 1160 l 1074 1121 q 1051 1013 1074 1058 q 984 940 1028 967 q 878 910 940 914 m 310 1088 l 246 1092 q 297 1228 254 1181 q 407 1276 340 1276 q 469 1262 440 1276 q 532 1219 499 1247 q 583 1183 563 1194 q 625 1171 604 1171 q 690 1199 667 1171 q 721 1281 713 1228 l 785 1276 q 734 1140 776 1188 q 625 1092 692 1092 q 561 1107 590 1092 q 499 1149 532 1122 q 447 1186 469 1175 q 406 1197 425 1197 q 342 1169 365 1197 q 310 1088 319 1140 z "},"Ű":{"ha":1014,"x_min":117,"x_max":900,"o":"m 508 -12 q 213 89 310 -12 q 117 388 117 190 l 117 979 l 231 979 l 231 393 q 297 165 231 242 q 508 89 364 89 q 715 165 644 89 q 786 393 786 242 l 786 979 l 900 979 l 900 388 q 801 89 900 190 q 508 -12 701 -12 m 388 1063 l 506 1301 l 618 1301 l 453 1063 l 388 1063 m 564 1063 l 688 1301 l 799 1301 l 629 1063 l 564 1063 z "},"Ȗ":{"ha":1014,"x_min":117,"x_max":900,"o":"m 508 -12 q 213 89 310 -12 q 117 388 117 190 l 117 979 l 231 979 l 231 393 q 297 165 231 242 q 508 89 364 89 q 715 165 644 89 q 786 393 786 242 l 786 979 l 900 979 l 900 388 q 801 89 900 190 q 508 -12 701 -12 m 344 1056 l 274 1064 q 346 1236 282 1174 q 508 1299 410 1299 q 671 1236 607 1299 q 743 1064 735 1174 l 672 1056 q 623 1180 667 1136 q 508 1224 579 1224 q 394 1180 438 1224 q 344 1056 351 1136 z "},"Ū":{"ha":1014,"x_min":117,"x_max":900,"o":"m 508 -12 q 213 89 310 -12 q 117 388 117 190 l 117 979 l 231 979 l 231 393 q 297 165 231 242 q 508 89 364 89 q 715 165 644 89 q 786 393 786 242 l 786 979 l 900 979 l 900 388 q 801 89 900 190 q 508 -12 701 -12 m 282 1131 l 282 1207 l 735 1207 l 735 1131 l 282 1131 z "},"Ṻ":{"ha":1014,"x_min":117,"x_max":900,"o":"m 508 -12 q 213 89 310 -12 q 117 388 117 190 l 117 979 l 231 979 l 231 393 q 297 165 231 242 q 508 89 364 89 q 715 165 644 89 q 786 393 786 242 l 786 979 l 900 979 l 900 388 q 801 89 900 190 q 508 -12 701 -12 m 303 1108 l 303 1183 l 714 1183 l 714 1108 l 303 1108 m 328 1261 l 328 1363 l 447 1363 l 447 1261 l 328 1261 m 569 1261 l 569 1363 l 689 1363 l 689 1261 l 569 1261 z "},"Ų":{"ha":1014,"x_min":117,"x_max":900,"o":"m 508 -12 q 213 89 310 -12 q 117 388 117 190 l 117 979 l 231 979 l 231 393 q 297 165 231 242 q 508 89 364 89 q 715 165 644 89 q 786 393 786 242 l 786 979 l 900 979 l 900 388 q 801 89 900 190 q 508 -12 701 -12 m 590 -267 q 483 -231 524 -267 q 443 -132 443 -194 q 479 -27 443 -76 q 576 50 515 22 l 617 0 q 573 -26 594 -8 q 538 -67 551 -43 q 524 -119 524 -90 q 547 -178 524 -158 q 604 -197 571 -197 q 642 -193 624 -197 q 679 -181 660 -189 l 699 -243 q 651 -260 679 -254 q 590 -267 624 -267 z "},"Ů":{"ha":1014,"x_min":117,"x_max":900,"o":"m 508 -12 q 213 89 310 -12 q 117 388 117 190 l 117 979 l 231 979 l 231 393 q 297 165 231 242 q 508 89 364 89 q 715 165 644 89 q 786 393 786 242 l 786 979 l 900 979 l 900 388 q 801 89 900 190 q 508 -12 701 -12 m 508 1053 q 425 1074 463 1053 q 365 1133 388 1096 q 343 1214 343 1169 q 365 1295 343 1260 q 425 1352 388 1331 q 508 1374 463 1374 q 592 1352 556 1374 q 651 1295 629 1331 q 674 1214 674 1260 q 651 1133 674 1169 q 592 1074 629 1096 q 508 1053 556 1053 m 508 1113 q 581 1142 553 1113 q 608 1214 608 1171 q 581 1285 608 1256 q 508 1314 553 1314 q 437 1285 465 1314 q 408 1214 408 1256 q 437 1142 408 1171 q 508 1113 465 1113 z "},"Ũ":{"ha":1014,"x_min":117,"x_max":900,"o":"m 508 -12 q 213 89 310 -12 q 117 388 117 190 l 117 979 l 231 979 l 231 393 q 297 165 231 242 q 508 89 364 89 q 715 165 644 89 q 786 393 786 242 l 786 979 l 900 979 l 900 388 q 801 89 900 190 q 508 -12 701 -12 m 282 1088 l 218 1092 q 272 1228 226 1181 q 385 1276 317 1276 q 449 1263 417 1276 q 528 1219 482 1250 q 593 1182 571 1193 q 636 1171 615 1171 q 701 1199 678 1171 q 735 1281 725 1228 l 799 1276 q 746 1140 790 1188 q 633 1092 701 1092 q 568 1106 601 1092 q 485 1151 535 1119 q 424 1187 447 1176 q 381 1197 400 1197 q 315 1169 339 1197 q 282 1088 292 1140 z "},"Ṹ":{"ha":1014,"x_min":117,"x_max":900,"o":"m 508 -12 q 213 89 310 -12 q 117 388 117 190 l 117 979 l 231 979 l 231 393 q 297 165 231 242 q 508 89 364 89 q 715 165 644 89 q 786 393 786 242 l 786 979 l 900 979 l 900 388 q 801 89 900 190 q 508 -12 701 -12 m 469 1225 l 589 1421 l 707 1421 l 547 1225 l 469 1225 m 599 1067 q 549 1076 574 1067 q 494 1107 525 1086 q 451 1133 467 1128 q 421 1139 435 1139 q 374 1121 390 1139 q 351 1064 358 1103 l 289 1067 q 330 1173 294 1138 q 419 1208 365 1208 q 465 1200 443 1208 q 518 1171 486 1192 q 564 1143 547 1150 q 596 1136 581 1136 q 644 1153 628 1136 q 665 1211 660 1171 l 728 1207 q 688 1101 722 1136 q 599 1067 653 1067 z "},"V":{"ha":969,"x_min":4,"x_max":965,"o":"m 431 0 l 4 979 l 128 979 l 507 92 l 464 92 l 846 979 l 965 979 l 536 0 l 431 0 z "},"W":{"ha":1544,"x_min":47,"x_max":1497,"o":"m 389 0 l 47 979 l 168 979 l 467 97 l 418 97 l 732 979 l 824 979 l 1121 97 l 1076 97 l 1383 979 l 1497 979 l 1153 0 l 1050 0 l 761 849 l 790 849 l 489 0 l 389 0 z "},"Ẃ":{"ha":1544,"x_min":47,"x_max":1497,"o":"m 389 0 l 47 979 l 168 979 l 467 97 l 418 97 l 732 979 l 824 979 l 1121 97 l 1076 97 l 1383 979 l 1497 979 l 1153 0 l 1050 0 l 761 849 l 790 849 l 489 0 l 389 0 m 729 1063 l 893 1301 l 1019 1301 l 815 1063 l 729 1063 z "},"Ŵ":{"ha":1544,"x_min":47,"x_max":1497,"o":"m 389 0 l 47 979 l 168 979 l 467 97 l 418 97 l 732 979 l 824 979 l 1121 97 l 1076 97 l 1383 979 l 1497 979 l 1153 0 l 1050 0 l 761 849 l 790 849 l 489 0 l 389 0 m 549 1063 l 719 1301 l 825 1301 l 996 1063 l 911 1063 l 772 1228 l 633 1063 l 549 1063 z "},"Ẅ":{"ha":1544,"x_min":47,"x_max":1497,"o":"m 389 0 l 47 979 l 168 979 l 467 97 l 418 97 l 732 979 l 824 979 l 1121 97 l 1076 97 l 1383 979 l 1497 979 l 1153 0 l 1050 0 l 761 849 l 790 849 l 489 0 l 389 0 m 833 1119 l 833 1239 l 953 1239 l 953 1119 l 833 1119 m 592 1119 l 592 1239 l 711 1239 l 711 1119 l 592 1119 z "},"Ẁ":{"ha":1544,"x_min":47,"x_max":1497,"o":"m 389 0 l 47 979 l 168 979 l 467 97 l 418 97 l 732 979 l 824 979 l 1121 97 l 1076 97 l 1383 979 l 1497 979 l 1153 0 l 1050 0 l 761 849 l 790 849 l 489 0 l 389 0 m 729 1063 l 525 1301 l 651 1301 l 815 1063 l 729 1063 z "},"X":{"ha":906,"x_min":13,"x_max":893,"o":"m 13 0 l 403 522 l 403 479 l 31 979 l 167 979 l 472 561 l 436 561 l 739 979 l 876 979 l 503 479 l 503 522 l 893 0 l 757 0 l 431 443 l 475 443 l 149 0 l 13 0 z "},"Y":{"ha":843,"x_min":-17,"x_max":858,"o":"m 364 0 l 364 457 l 389 379 l -17 979 l 117 979 l 439 492 l 410 492 l 731 979 l 858 979 l 454 379 l 479 457 l 479 0 l 364 0 z "},"Ý":{"ha":843,"x_min":-17,"x_max":858,"o":"m 364 0 l 364 457 l 389 379 l -17 979 l 117 979 l 439 492 l 410 492 l 731 979 l 858 979 l 454 379 l 479 457 l 479 0 l 364 0 m 379 1063 l 543 1301 l 669 1301 l 465 1063 l 379 1063 z "},"Ŷ":{"ha":843,"x_min":-17,"x_max":858,"o":"m 364 0 l 364 457 l 389 379 l -17 979 l 117 979 l 439 492 l 410 492 l 731 979 l 858 979 l 454 379 l 479 457 l 479 0 l 364 0 m 199 1063 l 369 1301 l 475 1301 l 646 1063 l 561 1063 l 422 1228 l 283 1063 l 199 1063 z "},"Ÿ":{"ha":843,"x_min":-17,"x_max":858,"o":"m 364 0 l 364 457 l 389 379 l -17 979 l 117 979 l 439 492 l 410 492 l 731 979 l 858 979 l 454 379 l 479 457 l 479 0 l 364 0 m 483 1119 l 483 1239 l 603 1239 l 603 1119 l 483 1119 m 242 1119 l 242 1239 l 361 1239 l 361 1119 l 242 1119 z "},"Ẏ":{"ha":843,"x_min":-17,"x_max":858,"o":"m 364 0 l 364 457 l 389 379 l -17 979 l 117 979 l 439 492 l 410 492 l 731 979 l 858 979 l 454 379 l 479 457 l 479 0 l 364 0 m 360 1121 l 360 1243 l 485 1243 l 485 1121 l 360 1121 z "},"Ỵ":{"ha":843,"x_min":-17,"x_max":858,"o":"m 364 0 l 364 457 l 389 379 l -17 979 l 117 979 l 439 492 l 410 492 l 731 979 l 858 979 l 454 379 l 479 457 l 479 0 l 364 0 m 358 -260 l 358 -137 l 486 -137 l 486 -260 l 358 -260 z "},"Ỳ":{"ha":843,"x_min":-17,"x_max":858,"o":"m 364 0 l 364 457 l 389 379 l -17 979 l 117 979 l 439 492 l 410 492 l 731 979 l 858 979 l 454 379 l 479 457 l 479 0 l 364 0 m 379 1063 l 175 1301 l 301 1301 l 465 1063 l 379 1063 z "},"Ƴ":{"ha":843,"x_min":-17,"x_max":938,"o":"m 364 0 l 364 507 l 389 428 l -17 979 l 117 979 l 439 542 l 410 542 l 650 879 q 741 964 690 938 q 856 990 792 990 q 899 988 879 990 q 938 978 919 985 l 938 892 q 907 900 924 897 q 869 903 890 903 q 802 887 833 903 q 743 833 771 871 l 454 428 l 479 507 l 479 0 l 364 0 z "},"Ỷ":{"ha":843,"x_min":-17,"x_max":858,"o":"m 364 0 l 364 457 l 389 379 l -17 979 l 117 979 l 439 492 l 410 492 l 731 979 l 858 979 l 454 379 l 479 457 l 479 0 l 364 0 m 383 1063 l 383 1085 q 397 1130 383 1113 q 427 1160 410 1147 q 458 1183 444 1172 q 471 1211 471 1194 q 455 1235 471 1226 q 407 1243 439 1243 q 365 1239 385 1243 q 318 1222 344 1235 l 300 1282 q 429 1310 351 1310 q 527 1286 492 1310 q 563 1224 563 1263 q 547 1176 563 1194 q 512 1147 532 1158 q 476 1119 492 1135 q 461 1078 461 1104 l 461 1063 l 383 1063 z "},"Ȳ":{"ha":843,"x_min":-17,"x_max":858,"o":"m 364 0 l 364 457 l 389 379 l -17 979 l 117 979 l 439 492 l 410 492 l 731 979 l 858 979 l 454 379 l 479 457 l 479 0 l 364 0 m 196 1131 l 196 1207 l 649 1207 l 649 1131 l 196 1131 z "},"Ỹ":{"ha":843,"x_min":-17,"x_max":858,"o":"m 364 0 l 364 457 l 389 379 l -17 979 l 117 979 l 439 492 l 410 492 l 731 979 l 858 979 l 454 379 l 479 457 l 479 0 l 364 0 m 196 1088 l 132 1092 q 185 1228 140 1181 q 299 1276 231 1276 q 363 1263 331 1276 q 442 1219 396 1250 q 507 1182 485 1193 q 550 1171 529 1171 q 615 1199 592 1171 q 649 1281 639 1228 l 713 1276 q 660 1140 704 1188 q 547 1092 615 1092 q 482 1106 515 1092 q 399 1151 449 1119 q 338 1187 361 1176 q 294 1197 314 1197 q 229 1169 253 1197 q 196 1088 206 1140 z "},"Z":{"ha":828,"x_min":60,"x_max":778,"o":"m 60 0 l 60 85 l 653 925 l 653 881 l 60 881 l 60 979 l 763 979 l 763 894 l 168 56 l 168 99 l 778 99 l 778 0 l 60 0 z "},"Ź":{"ha":828,"x_min":60,"x_max":778,"o":"m 60 0 l 60 85 l 653 925 l 653 881 l 60 881 l 60 979 l 763 979 l 763 894 l 168 56 l 168 99 l 778 99 l 778 0 l 60 0 m 376 1063 l 540 1301 l 667 1301 l 463 1063 l 376 1063 z "},"Ž":{"ha":828,"x_min":60,"x_max":778,"o":"m 60 0 l 60 85 l 653 925 l 653 881 l 60 881 l 60 979 l 763 979 l 763 894 l 168 56 l 168 99 l 778 99 l 778 0 l 60 0 m 367 1063 l 196 1301 l 281 1301 l 419 1136 l 558 1301 l 643 1301 l 472 1063 l 367 1063 z "},"Ż":{"ha":828,"x_min":60,"x_max":778,"o":"m 60 0 l 60 85 l 653 925 l 653 881 l 60 881 l 60 979 l 763 979 l 763 894 l 168 56 l 168 99 l 778 99 l 778 0 l 60 0 m 357 1121 l 357 1243 l 482 1243 l 482 1121 l 357 1121 z "},"Ẓ":{"ha":828,"x_min":60,"x_max":778,"o":"m 60 0 l 60 85 l 653 925 l 653 881 l 60 881 l 60 979 l 763 979 l 763 894 l 168 56 l 168 99 l 778 99 l 778 0 l 60 0 m 356 -260 l 356 -137 l 483 -137 l 483 -260 l 356 -260 z "},"a":{"ha":833,"x_min":67,"x_max":736,"o":"m 375 -12 q 213 31 282 -12 q 105 156 143 75 q 67 349 67 236 q 105 543 67 463 q 213 667 143 624 q 375 710 282 710 q 538 662 469 710 q 629 532 607 614 l 613 532 l 628 697 l 736 697 q 728 616 732 657 q 725 536 725 575 l 725 0 l 613 0 l 613 164 l 628 164 q 536 35 606 82 q 375 -12 467 -12 m 397 79 q 556 148 497 79 q 614 349 614 217 q 556 551 614 482 q 397 619 497 619 q 240 551 299 619 q 181 349 181 482 q 240 148 181 217 q 397 79 299 79 z "},"á":{"ha":833,"x_min":67,"x_max":736,"o":"m 375 -12 q 213 31 282 -12 q 105 156 143 75 q 67 349 67 236 q 105 543 67 463 q 213 667 143 624 q 375 710 282 710 q 538 662 469 710 q 629 532 607 614 l 613 532 l 628 697 l 736 697 q 728 616 732 657 q 725 536 725 575 l 725 0 l 613 0 l 613 164 l 628 164 q 536 35 606 82 q 375 -12 467 -12 m 397 79 q 556 148 497 79 q 614 349 614 217 q 556 551 614 482 q 397 619 497 619 q 240 551 299 619 q 181 349 181 482 q 240 148 181 217 q 397 79 299 79 m 368 765 l 511 1046 l 632 1046 l 449 765 l 368 765 z "},"ă":{"ha":833,"x_min":67,"x_max":736,"o":"m 375 -12 q 213 31 282 -12 q 105 156 143 75 q 67 349 67 236 q 105 543 67 463 q 213 667 143 624 q 375 710 282 710 q 538 662 469 710 q 629 532 607 614 l 613 532 l 628 697 l 736 697 q 728 616 732 657 q 725 536 725 575 l 725 0 l 613 0 l 613 164 l 628 164 q 536 35 606 82 q 375 -12 467 -12 m 397 79 q 556 148 497 79 q 614 349 614 217 q 556 551 614 482 q 397 619 497 619 q 240 551 299 619 q 181 349 181 482 q 240 148 181 217 q 397 79 299 79 m 408 763 q 299 794 346 763 q 225 885 251 826 q 194 1026 199 944 l 265 1033 q 308 890 271 940 q 408 839 344 839 q 509 890 472 839 q 551 1033 546 940 l 622 1026 q 592 885 619 944 q 518 794 565 826 q 408 763 471 763 z "},"ắ":{"ha":833,"x_min":67,"x_max":736,"o":"m 375 -12 q 213 31 282 -12 q 105 156 143 75 q 67 349 67 236 q 105 543 67 463 q 213 667 143 624 q 375 710 282 710 q 538 662 469 710 q 629 532 607 614 l 613 532 l 628 697 l 736 697 q 728 616 732 657 q 725 536 725 575 l 725 0 l 613 0 l 613 164 l 628 164 q 536 35 606 82 q 375 -12 467 -12 m 397 79 q 556 148 497 79 q 614 349 614 217 q 556 551 614 482 q 397 619 497 619 q 240 551 299 619 q 181 349 181 482 q 240 148 181 217 q 397 79 299 79 m 408 760 q 257 815 315 760 q 190 968 199 871 l 254 975 q 301 869 263 907 q 408 832 340 832 q 515 869 476 832 q 563 975 554 907 l 626 968 q 560 815 618 871 q 408 760 503 760 m 361 918 l 481 1115 l 599 1115 l 439 918 l 361 918 z "},"ặ":{"ha":833,"x_min":67,"x_max":736,"o":"m 375 -12 q 213 31 282 -12 q 105 156 143 75 q 67 349 67 236 q 105 543 67 463 q 213 667 143 624 q 375 710 282 710 q 538 662 469 710 q 629 532 607 614 l 613 532 l 628 697 l 736 697 q 728 616 732 657 q 725 536 725 575 l 725 0 l 613 0 l 613 164 l 628 164 q 536 35 606 82 q 375 -12 467 -12 m 397 79 q 556 148 497 79 q 614 349 614 217 q 556 551 614 482 q 397 619 497 619 q 240 551 299 619 q 181 349 181 482 q 240 148 181 217 q 397 79 299 79 m 343 -260 l 343 -137 l 471 -137 l 471 -260 l 343 -260 m 408 763 q 299 794 346 763 q 225 885 251 826 q 194 1026 199 944 l 265 1033 q 308 890 271 940 q 408 839 344 839 q 509 890 472 839 q 551 1033 546 940 l 622 1026 q 592 885 619 944 q 518 794 565 826 q 408 763 471 763 z "},"ằ":{"ha":833,"x_min":67,"x_max":736,"o":"m 375 -12 q 213 31 282 -12 q 105 156 143 75 q 67 349 67 236 q 105 543 67 463 q 213 667 143 624 q 375 710 282 710 q 538 662 469 710 q 629 532 607 614 l 613 532 l 628 697 l 736 697 q 728 616 732 657 q 725 536 725 575 l 725 0 l 613 0 l 613 164 l 628 164 q 536 35 606 82 q 375 -12 467 -12 m 397 79 q 556 148 497 79 q 614 349 614 217 q 556 551 614 482 q 397 619 497 619 q 240 551 299 619 q 181 349 181 482 q 240 148 181 217 q 397 79 299 79 m 408 760 q 257 815 315 760 q 190 968 199 871 l 254 975 q 301 869 263 907 q 408 832 340 832 q 515 869 476 832 q 563 975 554 907 l 626 968 q 560 815 618 871 q 408 760 503 760 m 378 918 l 218 1115 l 336 1115 l 456 918 l 378 918 z "},"ẳ":{"ha":833,"x_min":67,"x_max":736,"o":"m 375 -12 q 213 31 282 -12 q 105 156 143 75 q 67 349 67 236 q 105 543 67 463 q 213 667 143 624 q 375 710 282 710 q 538 662 469 710 q 629 532 607 614 l 613 532 l 628 697 l 736 697 q 728 616 732 657 q 725 536 725 575 l 725 0 l 613 0 l 613 164 l 628 164 q 536 35 606 82 q 375 -12 467 -12 m 397 79 q 556 148 497 79 q 614 349 614 217 q 556 551 614 482 q 397 619 497 619 q 240 551 299 619 q 181 349 181 482 q 240 148 181 217 q 397 79 299 79 m 408 760 q 257 815 315 760 q 190 968 199 871 l 254 975 q 301 869 263 907 q 408 832 340 832 q 515 869 476 832 q 563 975 554 907 l 626 968 q 560 816 618 872 q 408 760 503 760 m 374 918 q 386 965 374 947 q 415 992 399 982 q 443 1013 431 1003 q 456 1039 456 1024 q 440 1061 456 1056 q 394 1067 425 1067 q 355 1063 376 1067 q 310 1050 333 1060 l 293 1103 q 347 1120 318 1114 q 413 1126 376 1126 q 506 1107 474 1126 q 539 1054 539 1088 q 524 1011 539 1026 q 491 984 510 996 q 458 958 472 972 q 443 918 443 943 l 374 918 z "},"ẵ":{"ha":833,"x_min":67,"x_max":736,"o":"m 375 -12 q 213 31 282 -12 q 105 156 143 75 q 67 349 67 236 q 105 543 67 463 q 213 667 143 624 q 375 710 282 710 q 538 662 469 710 q 629 532 607 614 l 613 532 l 628 697 l 736 697 q 728 616 732 657 q 725 536 725 575 l 725 0 l 613 0 l 613 164 l 628 164 q 536 35 606 82 q 375 -12 467 -12 m 397 79 q 556 148 497 79 q 614 349 614 217 q 556 551 614 482 q 397 619 497 619 q 240 551 299 619 q 181 349 181 482 q 240 148 181 217 q 397 79 299 79 m 408 760 q 267 801 325 760 q 190 913 210 842 l 254 926 q 310 857 271 882 q 408 832 349 832 q 507 857 468 832 q 563 926 546 882 l 626 913 q 550 801 608 842 q 408 760 492 760 m 251 981 l 189 983 q 230 1090 194 1054 q 319 1125 265 1125 q 369 1115 346 1125 q 421 1085 392 1104 q 467 1058 451 1065 q 496 1051 482 1051 q 544 1069 528 1051 q 565 1126 560 1088 l 628 1124 q 589 1017 624 1053 q 499 982 554 982 q 448 993 472 982 q 389 1028 424 1004 q 357 1047 374 1038 q 321 1056 340 1056 q 274 1038 290 1056 q 251 981 258 1019 z "},"ǎ":{"ha":833,"x_min":67,"x_max":736,"o":"m 375 -12 q 213 31 282 -12 q 105 156 143 75 q 67 349 67 236 q 105 543 67 463 q 213 667 143 624 q 375 710 282 710 q 538 662 469 710 q 629 532 607 614 l 613 532 l 628 697 l 736 697 q 728 616 732 657 q 725 536 725 575 l 725 0 l 613 0 l 613 164 l 628 164 q 536 35 606 82 q 375 -12 467 -12 m 397 79 q 556 148 497 79 q 614 349 614 217 q 556 551 614 482 q 397 619 497 619 q 240 551 299 619 q 181 349 181 482 q 240 148 181 217 q 397 79 299 79 m 354 765 l 203 1046 l 281 1046 l 408 840 l 536 1046 l 614 1046 l 463 765 l 354 765 z "},"â":{"ha":833,"x_min":67,"x_max":736,"o":"m 375 -12 q 213 31 282 -12 q 105 156 143 75 q 67 349 67 236 q 105 543 67 463 q 213 667 143 624 q 375 710 282 710 q 538 662 469 710 q 629 532 607 614 l 613 532 l 628 697 l 736 697 q 728 616 732 657 q 725 536 725 575 l 725 0 l 613 0 l 613 164 l 628 164 q 536 35 606 82 q 375 -12 467 -12 m 397 79 q 556 148 497 79 q 614 349 614 217 q 556 551 614 482 q 397 619 497 619 q 240 551 299 619 q 181 349 181 482 q 240 148 181 217 q 397 79 299 79 m 203 765 l 354 1046 l 463 1046 l 614 765 l 536 765 l 408 971 l 281 765 l 203 765 z "},"ấ":{"ha":833,"x_min":67,"x_max":767,"o":"m 375 -12 q 213 31 282 -12 q 105 156 143 75 q 67 349 67 236 q 105 543 67 463 q 213 667 143 624 q 375 710 282 710 q 538 662 469 710 q 629 532 607 614 l 613 532 l 628 697 l 736 697 q 728 616 732 657 q 725 536 725 575 l 725 0 l 613 0 l 613 164 l 628 164 q 536 35 606 82 q 375 -12 467 -12 m 397 79 q 556 148 497 79 q 614 349 614 217 q 556 551 614 482 q 397 619 497 619 q 240 551 299 619 q 181 349 181 482 q 240 148 181 217 q 397 79 299 79 m 203 763 l 354 988 l 463 988 l 614 763 l 538 763 l 408 915 l 279 763 l 203 763 m 539 907 l 658 1115 l 767 1115 l 613 907 l 539 907 z "},"ậ":{"ha":833,"x_min":67,"x_max":736,"o":"m 375 -12 q 213 31 282 -12 q 105 156 143 75 q 67 349 67 236 q 105 543 67 463 q 213 667 143 624 q 375 710 282 710 q 538 662 469 710 q 629 532 607 614 l 613 532 l 628 697 l 736 697 q 728 616 732 657 q 725 536 725 575 l 725 0 l 613 0 l 613 164 l 628 164 q 536 35 606 82 q 375 -12 467 -12 m 397 79 q 556 148 497 79 q 614 349 614 217 q 556 551 614 482 q 397 619 497 619 q 240 551 299 619 q 181 349 181 482 q 240 148 181 217 q 397 79 299 79 m 343 -260 l 343 -137 l 471 -137 l 471 -260 l 343 -260 m 203 765 l 354 1046 l 463 1046 l 614 765 l 536 765 l 408 971 l 281 765 l 203 765 z "},"ầ":{"ha":833,"x_min":67,"x_max":736,"o":"m 375 -12 q 213 31 282 -12 q 105 156 143 75 q 67 349 67 236 q 105 543 67 463 q 213 667 143 624 q 375 710 282 710 q 538 662 469 710 q 629 532 607 614 l 613 532 l 628 697 l 736 697 q 728 616 732 657 q 725 536 725 575 l 725 0 l 613 0 l 613 164 l 628 164 q 536 35 606 82 q 375 -12 467 -12 m 397 79 q 556 148 497 79 q 614 349 614 217 q 556 551 614 482 q 397 619 497 619 q 240 551 299 619 q 181 349 181 482 q 240 148 181 217 q 397 79 299 79 m 203 763 l 354 988 l 463 988 l 614 763 l 538 763 l 408 915 l 279 763 l 203 763 m 594 907 l 440 1115 l 549 1115 l 668 907 l 594 907 z "},"ẩ":{"ha":833,"x_min":67,"x_max":736,"o":"m 375 -12 q 213 31 282 -12 q 105 156 143 75 q 67 349 67 236 q 105 543 67 463 q 213 667 143 624 q 375 710 282 710 q 538 662 469 710 q 629 532 607 614 l 613 532 l 628 697 l 736 697 q 728 616 732 657 q 725 536 725 575 l 725 0 l 613 0 l 613 164 l 628 164 q 536 35 606 82 q 375 -12 467 -12 m 397 79 q 556 148 497 79 q 614 349 614 217 q 556 551 614 482 q 397 619 497 619 q 240 551 299 619 q 181 349 181 482 q 240 148 181 217 q 397 79 299 79 m 203 763 l 354 988 l 463 988 l 614 763 l 538 763 l 408 915 l 279 763 l 203 763 m 549 907 q 561 954 549 936 q 590 984 574 972 q 619 1007 607 996 q 631 1035 631 1018 q 615 1056 631 1050 q 569 1061 600 1061 q 531 1058 551 1061 q 486 1044 510 1054 l 469 1097 q 523 1115 493 1108 q 589 1121 553 1121 q 681 1101 649 1121 q 714 1049 714 1082 q 700 1005 714 1021 q 667 976 686 989 q 633 947 647 963 q 619 907 619 932 l 549 907 z "},"ẫ":{"ha":833,"x_min":67,"x_max":736,"o":"m 375 -12 q 213 31 282 -12 q 105 156 143 75 q 67 349 67 236 q 105 543 67 463 q 213 667 143 624 q 375 710 282 710 q 538 662 469 710 q 629 532 607 614 l 613 532 l 628 697 l 736 697 q 728 616 732 657 q 725 536 725 575 l 725 0 l 613 0 l 613 164 l 628 164 q 536 35 606 82 q 375 -12 467 -12 m 397 79 q 556 148 497 79 q 614 349 614 217 q 556 551 614 482 q 397 619 497 619 q 240 551 299 619 q 181 349 181 482 q 240 148 181 217 q 397 79 299 79 m 203 763 l 354 946 l 463 946 l 614 763 l 539 763 l 408 881 l 278 763 l 203 763 m 251 981 l 189 983 q 230 1090 194 1054 q 319 1125 265 1125 q 369 1115 346 1125 q 421 1085 392 1104 q 467 1058 451 1065 q 496 1051 482 1051 q 544 1069 528 1051 q 565 1126 560 1088 l 628 1124 q 589 1017 624 1053 q 499 982 554 982 q 448 993 472 982 q 389 1028 424 1004 q 357 1047 374 1038 q 321 1056 340 1056 q 274 1038 290 1056 q 251 981 258 1019 z "},"ȁ":{"ha":833,"x_min":67,"x_max":736,"o":"m 375 -12 q 213 31 282 -12 q 105 156 143 75 q 67 349 67 236 q 105 543 67 463 q 213 667 143 624 q 375 710 282 710 q 538 662 469 710 q 629 532 607 614 l 613 532 l 628 697 l 736 697 q 728 616 732 657 q 725 536 725 575 l 725 0 l 613 0 l 613 164 l 628 164 q 536 35 606 82 q 375 -12 467 -12 m 397 79 q 556 148 497 79 q 614 349 614 217 q 556 551 614 482 q 397 619 497 619 q 240 551 299 619 q 181 349 181 482 q 240 148 181 217 q 397 79 299 79 m 467 765 l 350 1046 l 454 1046 l 529 765 l 467 765 m 289 765 l 174 1046 l 278 1046 l 351 765 l 289 765 z "},"ä":{"ha":833,"x_min":67,"x_max":736,"o":"m 375 -12 q 213 31 282 -12 q 105 156 143 75 q 67 349 67 236 q 105 543 67 463 q 213 667 143 624 q 375 710 282 710 q 538 662 469 710 q 629 532 607 614 l 613 532 l 628 697 l 736 697 q 728 616 732 657 q 725 536 725 575 l 725 0 l 613 0 l 613 164 l 628 164 q 536 35 606 82 q 375 -12 467 -12 m 397 79 q 556 148 497 79 q 614 349 614 217 q 556 551 614 482 q 397 619 497 619 q 240 551 299 619 q 181 349 181 482 q 240 148 181 217 q 397 79 299 79 m 469 846 l 469 965 l 589 965 l 589 846 l 469 846 m 228 846 l 228 965 l 347 965 l 347 846 l 228 846 z "},"ȧ":{"ha":833,"x_min":67,"x_max":736,"o":"m 375 -12 q 213 31 282 -12 q 105 156 143 75 q 67 349 67 236 q 105 543 67 463 q 213 667 143 624 q 375 710 282 710 q 538 662 469 710 q 629 532 607 614 l 613 532 l 628 697 l 736 697 q 728 616 732 657 q 725 536 725 575 l 725 0 l 613 0 l 613 164 l 628 164 q 536 35 606 82 q 375 -12 467 -12 m 397 79 q 556 148 497 79 q 614 349 614 217 q 556 551 614 482 q 397 619 497 619 q 240 551 299 619 q 181 349 181 482 q 240 148 181 217 q 397 79 299 79 m 344 846 l 344 968 l 472 968 l 472 846 l 344 846 z "},"ạ":{"ha":833,"x_min":67,"x_max":736,"o":"m 375 -12 q 213 31 282 -12 q 105 156 143 75 q 67 349 67 236 q 105 543 67 463 q 213 667 143 624 q 375 710 282 710 q 538 662 469 710 q 629 532 607 614 l 613 532 l 628 697 l 736 697 q 728 616 732 657 q 725 536 725 575 l 725 0 l 613 0 l 613 164 l 628 164 q 536 35 606 82 q 375 -12 467 -12 m 397 79 q 556 148 497 79 q 614 349 614 217 q 556 551 614 482 q 397 619 497 619 q 240 551 299 619 q 181 349 181 482 q 240 148 181 217 q 397 79 299 79 m 343 -260 l 343 -137 l 471 -137 l 471 -260 l 343 -260 z "},"à":{"ha":833,"x_min":67,"x_max":736,"o":"m 375 -12 q 213 31 282 -12 q 105 156 143 75 q 67 349 67 236 q 105 543 67 463 q 213 667 143 624 q 375 710 282 710 q 538 662 469 710 q 629 532 607 614 l 613 532 l 628 697 l 736 697 q 728 616 732 657 q 725 536 725 575 l 725 0 l 613 0 l 613 164 l 628 164 q 536 35 606 82 q 375 -12 467 -12 m 397 79 q 556 148 497 79 q 614 349 614 217 q 556 551 614 482 q 397 619 497 619 q 240 551 299 619 q 181 349 181 482 q 240 148 181 217 q 397 79 299 79 m 368 765 l 185 1046 l 306 1046 l 449 765 l 368 765 z "},"ả":{"ha":833,"x_min":67,"x_max":736,"o":"m 375 -12 q 213 31 282 -12 q 105 156 143 75 q 67 349 67 236 q 105 543 67 463 q 213 667 143 624 q 375 710 282 710 q 538 662 469 710 q 629 532 607 614 l 613 532 l 628 697 l 736 697 q 728 616 732 657 q 725 536 725 575 l 725 0 l 613 0 l 613 164 l 628 164 q 536 35 606 82 q 375 -12 467 -12 m 397 79 q 556 148 497 79 q 614 349 614 217 q 556 551 614 482 q 397 619 497 619 q 240 551 299 619 q 181 349 181 482 q 240 148 181 217 q 397 79 299 79 m 371 765 l 371 794 q 384 847 371 826 q 414 883 397 868 q 444 913 431 897 q 457 947 457 928 q 441 976 457 967 q 393 986 425 986 q 351 981 371 986 q 304 965 331 976 l 286 1024 q 344 1047 311 1040 q 414 1054 376 1054 q 513 1030 478 1054 q 549 960 549 1006 q 533 904 549 925 q 498 868 518 883 q 462 835 478 853 q 446 788 446 817 l 446 765 l 371 765 z "},"ȃ":{"ha":833,"x_min":67,"x_max":736,"o":"m 375 -12 q 213 31 282 -12 q 105 156 143 75 q 67 349 67 236 q 105 543 67 463 q 213 667 143 624 q 375 710 282 710 q 538 662 469 710 q 629 532 607 614 l 613 532 l 628 697 l 736 697 q 728 616 732 657 q 725 536 725 575 l 725 0 l 613 0 l 613 164 l 628 164 q 536 35 606 82 q 375 -12 467 -12 m 397 79 q 556 148 497 79 q 614 349 614 217 q 556 551 614 482 q 397 619 497 619 q 240 551 299 619 q 181 349 181 482 q 240 148 181 217 q 397 79 299 79 m 265 756 l 194 763 q 225 903 199 844 q 299 994 251 963 q 408 1026 346 1026 q 518 994 471 1026 q 592 903 565 963 q 622 763 619 844 l 551 756 q 509 899 546 849 q 408 950 472 950 q 308 899 344 950 q 265 756 271 849 z "},"ā":{"ha":833,"x_min":67,"x_max":736,"o":"m 375 -12 q 213 31 282 -12 q 105 156 143 75 q 67 349 67 236 q 105 543 67 463 q 213 667 143 624 q 375 710 282 710 q 538 662 469 710 q 629 532 607 614 l 613 532 l 628 697 l 736 697 q 728 616 732 657 q 725 536 725 575 l 725 0 l 613 0 l 613 164 l 628 164 q 536 35 606 82 q 375 -12 467 -12 m 397 79 q 556 148 497 79 q 614 349 614 217 q 556 551 614 482 q 397 619 497 619 q 240 551 299 619 q 181 349 181 482 q 240 148 181 217 q 397 79 299 79 m 203 868 l 203 944 l 614 944 l 614 868 l 203 868 z "},"ą":{"ha":833,"x_min":67,"x_max":793,"o":"m 375 -12 q 213 31 282 -12 q 105 156 143 75 q 67 349 67 236 q 105 543 67 463 q 213 667 143 624 q 375 710 282 710 q 538 662 469 710 q 629 532 607 614 l 613 532 l 628 697 l 736 697 q 728 616 732 657 q 725 536 725 575 l 725 0 l 613 0 l 613 164 l 628 164 q 536 35 606 82 q 375 -12 467 -12 m 397 79 q 556 148 497 79 q 614 349 614 217 q 556 551 614 482 q 397 619 497 619 q 240 551 299 619 q 181 349 181 482 q 240 148 181 217 q 397 79 299 79 m 685 -267 q 578 -231 618 -267 q 538 -132 538 -194 q 574 -27 538 -76 q 671 50 610 22 l 711 0 q 667 -26 689 -8 q 632 -67 646 -43 q 618 -119 618 -90 q 642 -178 618 -158 q 699 -197 665 -197 q 736 -193 718 -197 q 774 -181 754 -189 l 793 -243 q 746 -260 774 -254 q 685 -267 718 -267 z "},"å":{"ha":833,"x_min":67,"x_max":736,"o":"m 375 -12 q 213 31 282 -12 q 105 156 143 75 q 67 349 67 236 q 105 543 67 463 q 213 667 143 624 q 375 710 282 710 q 538 662 469 710 q 629 532 607 614 l 613 532 l 628 697 l 736 697 q 728 616 732 657 q 725 536 725 575 l 725 0 l 613 0 l 613 164 l 628 164 q 536 35 606 82 q 375 -12 467 -12 m 397 79 q 556 148 497 79 q 614 349 614 217 q 556 551 614 482 q 397 619 497 619 q 240 551 299 619 q 181 349 181 482 q 240 148 181 217 q 397 79 299 79 m 408 760 q 325 781 363 760 q 265 838 288 801 q 243 919 243 875 q 265 1001 243 965 q 325 1059 288 1038 q 408 1081 363 1081 q 492 1059 456 1081 q 551 1001 529 1038 q 574 919 574 965 q 551 838 574 875 q 492 781 529 801 q 408 760 456 760 m 408 819 q 481 849 453 819 q 508 919 508 878 q 481 991 508 963 q 408 1019 453 1019 q 337 991 365 1019 q 308 919 308 963 q 337 849 308 878 q 408 819 365 819 z "},"ǻ":{"ha":833,"x_min":67,"x_max":736,"o":"m 375 -12 q 213 31 282 -12 q 105 156 143 75 q 67 349 67 236 q 105 543 67 463 q 213 667 143 624 q 375 710 282 710 q 538 662 469 710 q 629 532 607 614 l 613 532 l 628 697 l 736 697 q 728 616 732 657 q 725 536 725 575 l 725 0 l 613 0 l 613 164 l 628 164 q 536 35 606 82 q 375 -12 467 -12 m 397 79 q 556 148 497 79 q 614 349 614 217 q 556 551 614 482 q 397 619 497 619 q 240 551 299 619 q 181 349 181 482 q 240 148 181 217 q 397 79 299 79 m 408 756 q 327 777 364 756 q 269 834 290 799 q 247 913 247 869 q 269 993 247 957 q 327 1050 290 1029 q 408 1071 364 1071 q 458 1064 435 1071 q 500 1043 481 1057 l 599 1135 l 708 1135 l 546 997 q 569 913 569 960 q 548 834 569 869 q 490 777 526 799 q 408 756 454 756 m 408 814 q 481 842 453 814 q 508 913 508 871 q 481 985 508 957 q 408 1013 453 1013 q 337 985 365 1013 q 308 913 308 957 q 337 842 308 871 q 408 814 365 814 z "},"ã":{"ha":833,"x_min":67,"x_max":736,"o":"m 375 -12 q 213 31 282 -12 q 105 156 143 75 q 67 349 67 236 q 105 543 67 463 q 213 667 143 624 q 375 710 282 710 q 538 662 469 710 q 629 532 607 614 l 613 532 l 628 697 l 736 697 q 728 616 732 657 q 725 536 725 575 l 725 0 l 613 0 l 613 164 l 628 164 q 536 35 606 82 q 375 -12 467 -12 m 397 79 q 556 148 497 79 q 614 349 614 217 q 556 551 614 482 q 397 619 497 619 q 240 551 299 619 q 181 349 181 482 q 240 148 181 217 q 397 79 299 79 m 222 819 l 158 824 q 206 960 165 913 q 307 1008 246 1008 q 363 994 338 1008 q 422 951 389 981 q 472 913 453 924 q 508 903 490 903 q 594 1013 579 903 l 658 1008 q 612 872 651 919 q 511 824 572 824 q 456 838 482 824 q 394 882 429 851 q 347 919 365 908 q 308 929 328 929 q 251 901 272 929 q 222 819 229 872 z "},"æ":{"ha":1225,"x_min":82,"x_max":1163,"o":"m 333 -12 q 203 16 260 -12 q 114 93 146 44 q 82 201 82 142 q 119 328 82 282 q 245 394 157 375 q 488 414 333 414 l 558 414 l 558 343 l 489 343 q 307 331 372 343 q 215 289 242 318 q 189 207 189 260 q 231 110 189 147 q 347 72 274 72 q 450 99 406 72 q 520 174 494 126 q 546 286 546 222 l 546 453 q 506 581 546 542 q 385 619 467 619 q 265 603 321 619 q 150 547 208 586 l 111 631 q 238 689 165 668 q 386 710 311 710 q 553 666 493 710 q 633 536 614 622 l 599 536 q 709 665 640 621 q 872 710 778 710 q 1085 622 1007 710 q 1163 381 1163 535 l 1163 343 l 639 343 l 639 414 l 1088 414 l 1064 393 q 1014 565 1064 503 q 869 626 964 626 q 713 561 771 626 q 656 372 656 496 l 656 361 q 716 153 656 226 q 893 79 776 79 q 1008 99 953 79 q 1113 160 1063 118 l 1153 81 q 1035 12 1106 36 q 890 -12 964 -12 q 687 44 767 -12 q 576 206 607 100 l 606 206 q 513 46 585 104 q 333 -12 440 -12 z "},"ǽ":{"ha":1225,"x_min":82,"x_max":1163,"o":"m 333 -12 q 203 16 260 -12 q 114 93 146 44 q 82 201 82 142 q 119 328 82 282 q 245 394 157 375 q 488 414 333 414 l 558 414 l 558 343 l 489 343 q 307 331 372 343 q 215 289 242 318 q 189 207 189 260 q 231 110 189 147 q 347 72 274 72 q 450 99 406 72 q 520 174 494 126 q 546 286 546 222 l 546 453 q 506 581 546 542 q 385 619 467 619 q 265 603 321 619 q 150 547 208 586 l 111 631 q 238 689 165 668 q 386 710 311 710 q 553 666 493 710 q 633 536 614 622 l 599 536 q 709 665 640 621 q 872 710 778 710 q 1085 622 1007 710 q 1163 381 1163 535 l 1163 343 l 639 343 l 639 414 l 1088 414 l 1064 393 q 1014 565 1064 503 q 869 626 964 626 q 713 561 771 626 q 656 372 656 496 l 656 361 q 716 153 656 226 q 893 79 776 79 q 1008 99 953 79 q 1113 160 1063 118 l 1153 81 q 1035 12 1106 36 q 890 -12 964 -12 q 687 44 767 -12 q 576 206 607 100 l 606 206 q 513 46 585 104 q 333 -12 440 -12 m 564 765 l 707 1046 l 828 1046 l 644 765 l 564 765 z "},"b":{"ha":833,"x_min":110,"x_max":768,"o":"m 460 -12 q 297 35 365 -12 q 206 167 229 83 l 221 167 l 221 0 l 110 0 l 110 1022 l 222 1022 l 222 535 l 206 535 q 297 663 229 615 q 460 710 365 710 q 623 666 554 710 q 730 542 692 622 q 768 349 768 461 q 729 156 768 236 q 622 31 690 75 q 460 -12 553 -12 m 436 79 q 594 147 535 79 q 654 349 654 215 q 594 551 654 482 q 436 619 535 619 q 278 551 338 619 q 219 349 219 482 q 278 148 219 217 q 436 79 338 79 z "},"ɓ":{"ha":833,"x_min":110,"x_max":768,"o":"m 461 -12 q 298 35 367 -12 q 206 167 229 83 l 221 167 l 221 0 l 110 0 l 110 799 q 171 974 110 913 q 347 1035 232 1035 q 388 1032 368 1035 q 426 1024 408 1029 l 413 935 q 383 942 394 940 q 357 943 372 943 q 256 906 290 943 q 222 799 222 869 l 222 535 l 206 535 q 298 663 229 615 q 461 710 367 710 q 623 667 554 710 q 730 543 692 624 q 768 349 768 463 q 730 156 768 236 q 623 31 692 75 q 461 -12 554 -12 m 438 79 q 595 148 536 79 q 654 349 654 217 q 595 551 654 482 q 438 619 536 619 q 279 551 339 619 q 219 349 219 482 q 279 148 219 217 q 438 79 339 79 z "},"c":{"ha":688,"x_min":67,"x_max":638,"o":"m 403 -12 q 224 32 300 -12 q 108 158 149 76 q 67 353 67 240 q 108 547 67 467 q 226 668 150 626 q 403 710 301 710 q 533 686 469 710 q 638 619 596 663 l 597 539 q 506 599 556 579 q 410 618 457 618 q 242 550 301 618 q 182 351 182 482 q 242 151 182 222 q 410 81 301 81 q 505 99 456 81 q 597 158 554 117 l 638 79 q 531 11 594 35 q 403 -12 467 -12 z "},"ć":{"ha":688,"x_min":67,"x_max":638,"o":"m 403 -12 q 224 32 300 -12 q 108 158 149 76 q 67 353 67 240 q 108 547 67 467 q 226 668 150 626 q 403 710 301 710 q 533 686 469 710 q 638 619 596 663 l 597 539 q 506 599 556 579 q 410 618 457 618 q 242 550 301 618 q 182 351 182 482 q 242 151 182 222 q 410 81 301 81 q 505 99 456 81 q 597 158 554 117 l 638 79 q 531 11 594 35 q 403 -12 467 -12 m 358 765 l 501 1046 l 622 1046 l 439 765 l 358 765 z "},"č":{"ha":688,"x_min":67,"x_max":638,"o":"m 403 -12 q 224 32 300 -12 q 108 158 149 76 q 67 353 67 240 q 108 547 67 467 q 226 668 150 626 q 403 710 301 710 q 533 686 469 710 q 638 619 596 663 l 597 539 q 506 599 556 579 q 410 618 457 618 q 242 550 301 618 q 182 351 182 482 q 242 151 182 222 q 410 81 301 81 q 505 99 456 81 q 597 158 554 117 l 638 79 q 531 11 594 35 q 403 -12 467 -12 m 344 765 l 193 1046 l 271 1046 l 399 840 l 526 1046 l 604 1046 l 453 765 l 344 765 z "},"ç":{"ha":688,"x_min":67,"x_max":638,"o":"m 403 -12 q 224 32 300 -12 q 108 158 149 76 q 67 353 67 240 q 108 547 67 467 q 226 668 150 626 q 403 710 301 710 q 533 686 469 710 q 638 619 596 663 l 597 539 q 506 599 556 579 q 410 618 457 618 q 242 550 301 618 q 182 351 182 482 q 242 151 182 222 q 410 81 301 81 q 505 99 456 81 q 597 158 554 117 l 638 79 q 531 11 594 35 q 403 -12 467 -12 m 403 -267 q 334 -260 367 -267 q 278 -240 301 -253 l 297 -179 q 345 -196 322 -190 q 399 -201 368 -201 q 458 -188 436 -201 q 481 -150 481 -175 q 428 -111 481 -111 q 398 -113 413 -111 q 363 -124 383 -115 l 339 -101 l 360 28 l 431 28 l 413 -76 l 379 -68 q 411 -61 394 -64 q 442 -58 428 -58 q 525 -83 492 -58 q 558 -153 558 -108 q 515 -235 558 -204 q 403 -267 472 -267 z "},"ḉ":{"ha":688,"x_min":67,"x_max":638,"o":"m 403 -12 q 224 32 300 -12 q 108 158 149 76 q 67 353 67 240 q 108 547 67 467 q 226 668 150 626 q 403 710 301 710 q 533 686 469 710 q 638 619 596 663 l 597 539 q 506 599 556 579 q 410 618 457 618 q 242 550 301 618 q 182 351 182 482 q 242 151 182 222 q 410 81 301 81 q 505 99 456 81 q 597 158 554 117 l 638 79 q 531 11 594 35 q 403 -12 467 -12 m 403 -267 q 334 -260 367 -267 q 278 -240 301 -253 l 297 -179 q 345 -196 322 -190 q 399 -201 368 -201 q 458 -188 436 -201 q 481 -150 481 -175 q 428 -111 481 -111 q 398 -113 413 -111 q 363 -124 383 -115 l 339 -101 l 360 28 l 431 28 l 413 -76 l 379 -68 q 411 -61 394 -64 q 442 -58 428 -58 q 525 -83 492 -58 q 558 -153 558 -108 q 515 -235 558 -204 q 403 -267 472 -267 m 358 765 l 501 1046 l 622 1046 l 439 765 l 358 765 z "},"ĉ":{"ha":688,"x_min":67,"x_max":638,"o":"m 403 -12 q 224 32 300 -12 q 108 158 149 76 q 67 353 67 240 q 108 547 67 467 q 226 668 150 626 q 403 710 301 710 q 533 686 469 710 q 638 619 596 663 l 597 539 q 506 599 556 579 q 410 618 457 618 q 242 550 301 618 q 182 351 182 482 q 242 151 182 222 q 410 81 301 81 q 505 99 456 81 q 597 158 554 117 l 638 79 q 531 11 594 35 q 403 -12 467 -12 m 193 765 l 344 1046 l 453 1046 l 604 765 l 526 765 l 399 971 l 271 765 l 193 765 z "},"ċ":{"ha":688,"x_min":67,"x_max":638,"o":"m 403 -12 q 224 32 300 -12 q 108 158 149 76 q 67 353 67 240 q 108 547 67 467 q 226 668 150 626 q 403 710 301 710 q 533 686 469 710 q 638 619 596 663 l 597 539 q 506 599 556 579 q 410 618 457 618 q 242 550 301 618 q 182 351 182 482 q 242 151 182 222 q 410 81 301 81 q 505 99 456 81 q 597 158 554 117 l 638 79 q 531 11 594 35 q 403 -12 467 -12 m 335 846 l 335 968 l 463 968 l 463 846 l 335 846 z "},"d":{"ha":833,"x_min":67,"x_max":725,"o":"m 374 -12 q 213 31 282 -12 q 105 156 143 75 q 67 349 67 236 q 105 543 67 463 q 213 667 143 624 q 374 710 282 710 q 537 663 468 710 q 629 535 606 615 l 613 535 l 613 1022 l 725 1022 l 725 0 l 614 0 l 614 167 l 629 167 q 538 35 607 83 q 374 -12 468 -12 m 397 79 q 556 148 496 79 q 615 349 615 217 q 556 551 615 482 q 397 619 496 619 q 240 551 299 619 q 181 349 181 482 q 240 148 181 217 q 397 79 299 79 z "},"ð":{"ha":800,"x_min":67,"x_max":733,"o":"m 396 -12 q 223 28 297 -12 q 108 142 149 69 q 67 314 67 215 q 107 484 67 411 q 221 597 147 557 q 390 638 294 638 q 563 585 496 638 q 658 424 631 532 l 626 424 q 579 655 628 546 q 435 842 531 764 l 463 838 l 189 722 l 163 785 l 401 885 l 399 867 q 307 919 357 896 q 200 956 257 942 l 224 1032 q 374 983 306 1014 q 497 911 442 951 l 471 915 l 633 983 l 660 922 l 524 864 l 528 886 q 644 746 599 825 q 711 577 689 667 q 733 389 733 488 q 694 170 733 260 q 581 34 656 81 q 396 -12 506 -12 m 397 79 q 557 142 499 79 q 615 313 615 204 q 558 483 615 421 q 397 546 500 546 q 239 484 297 546 q 181 313 181 422 q 238 141 181 203 q 397 79 296 79 z "},"ď":{"ha":833,"x_min":67,"x_max":883,"o":"m 374 -12 q 213 31 282 -12 q 105 156 143 75 q 67 349 67 236 q 105 543 67 463 q 213 667 143 624 q 374 710 282 710 q 537 663 468 710 q 629 535 606 615 l 613 535 l 613 1022 l 725 1022 l 725 0 l 614 0 l 614 167 l 629 167 q 538 35 607 83 q 374 -12 468 -12 m 397 79 q 556 148 496 79 q 615 349 615 217 q 556 551 615 482 q 397 619 496 619 q 240 551 299 619 q 181 349 181 482 q 240 148 181 217 q 397 79 299 79 m 793 758 l 793 1022 l 883 1022 l 851 758 l 793 758 z "},"đ":{"ha":833,"x_min":67,"x_max":856,"o":"m 374 -12 q 213 31 282 -12 q 105 153 143 74 q 67 344 67 233 q 105 535 67 456 q 213 657 143 614 q 374 700 282 700 q 535 653 467 700 q 626 525 604 606 l 611 525 l 611 808 l 343 808 l 343 893 l 611 893 l 611 1022 l 724 1022 l 724 893 l 856 893 l 856 808 l 724 808 l 724 0 l 613 0 l 613 165 l 628 165 q 536 35 604 83 q 374 -12 468 -12 m 397 79 q 554 147 494 79 q 614 344 614 214 q 554 541 614 474 q 397 608 494 608 q 240 541 299 608 q 181 344 181 474 q 240 147 181 214 q 397 79 299 79 z "},"ḍ":{"ha":833,"x_min":67,"x_max":725,"o":"m 374 -12 q 213 31 282 -12 q 105 156 143 75 q 67 349 67 236 q 105 543 67 463 q 213 667 143 624 q 374 710 282 710 q 537 663 468 710 q 629 535 606 615 l 613 535 l 613 1022 l 725 1022 l 725 0 l 614 0 l 614 167 l 629 167 q 538 35 607 83 q 374 -12 468 -12 m 397 79 q 556 148 496 79 q 615 349 615 217 q 556 551 615 482 q 397 619 496 619 q 240 551 299 619 q 181 349 181 482 q 240 148 181 217 q 397 79 299 79 m 356 -260 l 356 -137 l 483 -137 l 483 -260 l 356 -260 z "},"ɗ":{"ha":833,"x_min":67,"x_max":929,"o":"m 374 -12 q 212 31 281 -12 q 105 156 143 75 q 67 349 67 236 q 105 543 67 463 q 212 667 143 624 q 374 710 281 710 q 537 663 468 710 q 628 535 606 615 l 613 535 l 613 800 q 639 927 613 875 q 719 1007 665 979 q 850 1035 772 1035 q 892 1032 872 1035 q 929 1024 913 1029 l 915 935 q 885 942 897 940 q 860 943 874 943 q 760 907 794 943 q 725 799 725 871 l 725 0 l 614 0 l 614 167 l 629 167 q 538 35 606 83 q 374 -12 469 -12 m 397 79 q 555 148 496 79 q 614 349 614 217 q 555 551 614 482 q 397 619 496 619 q 240 551 299 619 q 181 349 181 482 q 240 148 181 217 q 397 79 299 79 z "},"ḏ":{"ha":833,"x_min":67,"x_max":725,"o":"m 374 -12 q 213 31 282 -12 q 105 156 143 75 q 67 349 67 236 q 105 543 67 463 q 213 667 143 624 q 374 710 282 710 q 537 663 468 710 q 629 535 606 615 l 613 535 l 613 1022 l 725 1022 l 725 0 l 614 0 l 614 167 l 629 167 q 538 35 607 83 q 374 -12 468 -12 m 397 79 q 556 148 496 79 q 615 349 615 217 q 556 551 615 482 q 397 619 496 619 q 240 551 299 619 q 181 349 181 482 q 240 148 181 217 q 397 79 299 79 m 214 -217 l 214 -140 l 625 -140 l 625 -217 l 214 -217 z "},"ǆ":{"ha":1554,"x_min":67,"x_max":1494,"o":"m 374 -12 q 213 31 282 -12 q 105 156 143 75 q 67 349 67 236 q 105 543 67 463 q 213 667 143 624 q 374 710 282 710 q 537 663 468 710 q 629 535 606 615 l 613 535 l 613 1022 l 725 1022 l 725 0 l 614 0 l 614 167 l 629 167 q 538 35 607 83 q 374 -12 468 -12 m 397 79 q 556 148 496 79 q 615 349 615 217 q 556 551 615 482 q 397 619 496 619 q 240 551 299 619 q 181 349 181 482 q 240 148 181 217 q 397 79 299 79 m 903 0 l 903 75 l 1372 639 l 1374 610 l 903 610 l 903 697 l 1478 697 l 1478 622 l 1003 56 l 1001 88 l 1493 88 l 1493 0 l 903 0 m 1139 765 l 988 1046 l 1065 1046 l 1193 840 l 1321 1046 l 1399 1046 l 1247 765 l 1139 765 z "},"e":{"ha":756,"x_min":67,"x_max":693,"o":"m 419 -12 q 161 83 256 -12 q 67 347 67 178 q 108 538 67 457 q 225 665 150 619 q 397 710 300 710 q 558 669 493 710 q 658 555 624 629 q 693 379 693 481 l 693 338 l 153 338 l 153 408 l 619 408 l 596 390 q 546 564 596 501 q 397 626 496 626 q 235 553 293 626 q 176 357 176 481 l 176 344 q 241 147 176 214 q 422 79 306 79 q 540 98 485 79 q 644 160 594 117 l 683 81 q 567 12 638 36 q 419 -12 497 -12 z "},"é":{"ha":756,"x_min":67,"x_max":693,"o":"m 419 -12 q 161 83 256 -12 q 67 347 67 178 q 108 538 67 457 q 225 665 150 619 q 397 710 300 710 q 558 669 493 710 q 658 555 624 629 q 693 379 693 481 l 693 338 l 153 338 l 153 408 l 619 408 l 596 390 q 546 564 596 501 q 397 626 496 626 q 235 553 293 626 q 176 357 176 481 l 176 344 q 241 147 176 214 q 422 79 306 79 q 540 98 485 79 q 644 160 594 117 l 683 81 q 567 12 638 36 q 419 -12 497 -12 m 357 765 l 500 1046 l 621 1046 l 438 765 l 357 765 z "},"ĕ":{"ha":756,"x_min":67,"x_max":693,"o":"m 419 -12 q 161 83 256 -12 q 67 347 67 178 q 108 538 67 457 q 225 665 150 619 q 397 710 300 710 q 558 669 493 710 q 658 555 624 629 q 693 379 693 481 l 693 338 l 153 338 l 153 408 l 619 408 l 596 390 q 546 564 596 501 q 397 626 496 626 q 235 553 293 626 q 176 357 176 481 l 176 344 q 241 147 176 214 q 422 79 306 79 q 540 98 485 79 q 644 160 594 117 l 683 81 q 567 12 638 36 q 419 -12 497 -12 m 397 763 q 288 794 335 763 q 214 885 240 826 q 183 1026 188 944 l 254 1033 q 297 890 260 940 q 397 839 333 839 q 498 890 461 839 q 540 1033 535 940 l 611 1026 q 581 885 608 944 q 507 794 554 826 q 397 763 460 763 z "},"ě":{"ha":756,"x_min":67,"x_max":693,"o":"m 419 -12 q 161 83 256 -12 q 67 347 67 178 q 108 538 67 457 q 225 665 150 619 q 397 710 300 710 q 558 669 493 710 q 658 555 624 629 q 693 379 693 481 l 693 338 l 153 338 l 153 408 l 619 408 l 596 390 q 546 564 596 501 q 397 626 496 626 q 235 553 293 626 q 176 357 176 481 l 176 344 q 241 147 176 214 q 422 79 306 79 q 540 98 485 79 q 644 160 594 117 l 683 81 q 567 12 638 36 q 419 -12 497 -12 m 343 765 l 192 1046 l 269 1046 l 397 840 l 525 1046 l 603 1046 l 451 765 l 343 765 z "},"ḝ":{"ha":756,"x_min":67,"x_max":693,"o":"m 419 -12 q 161 83 256 -12 q 67 347 67 178 q 108 538 67 457 q 225 665 150 619 q 397 710 300 710 q 558 669 493 710 q 658 555 624 629 q 693 379 693 481 l 693 338 l 153 338 l 153 408 l 619 408 l 596 390 q 546 564 596 501 q 397 626 496 626 q 235 553 293 626 q 176 357 176 481 l 176 344 q 241 147 176 214 q 422 79 306 79 q 540 98 485 79 q 644 160 594 117 l 683 81 q 567 12 638 36 q 419 -12 497 -12 m 406 -267 q 337 -260 369 -267 q 281 -240 304 -253 l 300 -179 q 348 -196 325 -190 q 401 -201 371 -201 q 461 -188 439 -201 q 483 -150 483 -175 q 431 -111 483 -111 q 401 -113 415 -111 q 365 -124 386 -115 l 342 -101 l 363 28 l 433 28 l 415 -76 l 382 -68 q 414 -61 397 -64 q 444 -58 431 -58 q 528 -83 494 -58 q 561 -153 561 -108 q 518 -235 561 -204 q 406 -267 475 -267 m 397 763 q 288 794 335 763 q 214 885 240 826 q 183 1026 188 944 l 254 1033 q 297 890 260 940 q 397 839 333 839 q 498 890 461 839 q 540 1033 535 940 l 611 1026 q 581 885 608 944 q 507 794 554 826 q 397 763 460 763 z "},"ê":{"ha":756,"x_min":67,"x_max":693,"o":"m 419 -12 q 161 83 256 -12 q 67 347 67 178 q 108 538 67 457 q 225 665 150 619 q 397 710 300 710 q 558 669 493 710 q 658 555 624 629 q 693 379 693 481 l 693 338 l 153 338 l 153 408 l 619 408 l 596 390 q 546 564 596 501 q 397 626 496 626 q 235 553 293 626 q 176 357 176 481 l 176 344 q 241 147 176 214 q 422 79 306 79 q 540 98 485 79 q 644 160 594 117 l 683 81 q 567 12 638 36 q 419 -12 497 -12 m 192 765 l 343 1046 l 451 1046 l 603 765 l 525 765 l 397 971 l 269 765 l 192 765 z "},"ế":{"ha":756,"x_min":67,"x_max":756,"o":"m 419 -12 q 161 83 256 -12 q 67 347 67 178 q 108 538 67 457 q 225 665 150 619 q 397 710 300 710 q 558 669 493 710 q 658 555 624 629 q 693 379 693 481 l 693 338 l 153 338 l 153 408 l 619 408 l 596 390 q 546 564 596 501 q 397 626 496 626 q 235 553 293 626 q 176 357 176 481 l 176 344 q 241 147 176 214 q 422 79 306 79 q 540 98 485 79 q 644 160 594 117 l 683 81 q 567 12 638 36 q 419 -12 497 -12 m 192 763 l 343 988 l 451 988 l 603 763 l 526 763 l 397 915 l 268 763 l 192 763 m 528 907 l 647 1115 l 756 1115 l 601 907 l 528 907 z "},"ệ":{"ha":756,"x_min":67,"x_max":693,"o":"m 419 -12 q 161 83 256 -12 q 67 347 67 178 q 108 538 67 457 q 225 665 150 619 q 397 710 300 710 q 558 669 493 710 q 658 555 624 629 q 693 379 693 481 l 693 338 l 153 338 l 153 408 l 619 408 l 596 390 q 546 564 596 501 q 397 626 496 626 q 235 553 293 626 q 176 357 176 481 l 176 344 q 241 147 176 214 q 422 79 306 79 q 540 98 485 79 q 644 160 594 117 l 683 81 q 567 12 638 36 q 419 -12 497 -12 m 338 -260 l 338 -137 l 465 -137 l 465 -260 l 338 -260 m 192 765 l 343 1046 l 451 1046 l 603 765 l 525 765 l 397 971 l 269 765 l 192 765 z "},"ề":{"ha":756,"x_min":67,"x_max":693,"o":"m 419 -12 q 161 83 256 -12 q 67 347 67 178 q 108 538 67 457 q 225 665 150 619 q 397 710 300 710 q 558 669 493 710 q 658 555 624 629 q 693 379 693 481 l 693 338 l 153 338 l 153 408 l 619 408 l 596 390 q 546 564 596 501 q 397 626 496 626 q 235 553 293 626 q 176 357 176 481 l 176 344 q 241 147 176 214 q 422 79 306 79 q 540 98 485 79 q 644 160 594 117 l 683 81 q 567 12 638 36 q 419 -12 497 -12 m 192 763 l 343 988 l 451 988 l 603 763 l 526 763 l 397 915 l 268 763 l 192 763 m 583 907 l 429 1115 l 538 1115 l 657 907 l 583 907 z "},"ể":{"ha":756,"x_min":67,"x_max":704,"o":"m 419 -12 q 161 83 256 -12 q 67 347 67 178 q 108 538 67 457 q 225 665 150 619 q 397 710 300 710 q 558 669 493 710 q 658 555 624 629 q 693 379 693 481 l 693 338 l 153 338 l 153 408 l 619 408 l 596 390 q 546 564 596 501 q 397 626 496 626 q 235 553 293 626 q 176 357 176 481 l 176 344 q 241 147 176 214 q 422 79 306 79 q 540 98 485 79 q 644 160 594 117 l 683 81 q 567 12 638 36 q 419 -12 497 -12 m 192 763 l 343 988 l 451 988 l 603 763 l 526 763 l 397 915 l 268 763 l 192 763 m 538 907 q 550 954 538 936 q 579 984 563 972 q 608 1007 596 996 q 619 1035 619 1018 q 604 1056 619 1050 q 558 1061 589 1061 q 519 1058 540 1061 q 475 1044 499 1054 l 458 1097 q 512 1115 482 1108 q 578 1121 542 1121 q 670 1101 638 1121 q 703 1049 703 1082 q 689 1005 703 1021 q 656 976 675 989 q 622 947 636 963 q 608 907 608 932 l 538 907 z "},"ễ":{"ha":756,"x_min":67,"x_max":693,"o":"m 419 -12 q 161 83 256 -12 q 67 347 67 178 q 108 538 67 457 q 225 665 150 619 q 397 710 300 710 q 558 669 493 710 q 658 555 624 629 q 693 379 693 481 l 693 338 l 153 338 l 153 408 l 619 408 l 596 390 q 546 564 596 501 q 397 626 496 626 q 235 553 293 626 q 176 357 176 481 l 176 344 q 241 147 176 214 q 422 79 306 79 q 540 98 485 79 q 644 160 594 117 l 683 81 q 567 12 638 36 q 419 -12 497 -12 m 192 763 l 343 946 l 451 946 l 603 763 l 528 763 l 397 881 l 267 763 l 192 763 m 240 981 l 178 983 q 219 1090 183 1054 q 308 1125 254 1125 q 358 1115 335 1125 q 410 1085 381 1104 q 456 1058 440 1065 q 485 1051 471 1051 q 533 1069 517 1051 q 554 1126 549 1088 l 617 1124 q 578 1017 613 1053 q 488 982 543 982 q 437 993 461 982 q 378 1028 413 1004 q 346 1047 363 1038 q 310 1056 329 1056 q 263 1038 279 1056 q 240 981 247 1019 z "},"ȅ":{"ha":756,"x_min":67,"x_max":693,"o":"m 419 -12 q 161 83 256 -12 q 67 347 67 178 q 108 538 67 457 q 225 665 150 619 q 397 710 300 710 q 558 669 493 710 q 658 555 624 629 q 693 379 693 481 l 693 338 l 153 338 l 153 408 l 619 408 l 596 390 q 546 564 596 501 q 397 626 496 626 q 235 553 293 626 q 176 357 176 481 l 176 344 q 241 147 176 214 q 422 79 306 79 q 540 98 485 79 q 644 160 594 117 l 683 81 q 567 12 638 36 q 419 -12 497 -12 m 456 765 l 339 1046 l 443 1046 l 518 765 l 456 765 m 278 765 l 163 1046 l 267 1046 l 340 765 l 278 765 z "},"ë":{"ha":756,"x_min":67,"x_max":693,"o":"m 419 -12 q 161 83 256 -12 q 67 347 67 178 q 108 538 67 457 q 225 665 150 619 q 397 710 300 710 q 558 669 493 710 q 658 555 624 629 q 693 379 693 481 l 693 338 l 153 338 l 153 408 l 619 408 l 596 390 q 546 564 596 501 q 397 626 496 626 q 235 553 293 626 q 176 357 176 481 l 176 344 q 241 147 176 214 q 422 79 306 79 q 540 98 485 79 q 644 160 594 117 l 683 81 q 567 12 638 36 q 419 -12 497 -12 m 458 846 l 458 965 l 578 965 l 578 846 l 458 846 m 217 846 l 217 965 l 336 965 l 336 846 l 217 846 z "},"ė":{"ha":756,"x_min":67,"x_max":693,"o":"m 419 -12 q 161 83 256 -12 q 67 347 67 178 q 108 538 67 457 q 225 665 150 619 q 397 710 300 710 q 558 669 493 710 q 658 555 624 629 q 693 379 693 481 l 693 338 l 153 338 l 153 408 l 619 408 l 596 390 q 546 564 596 501 q 397 626 496 626 q 235 553 293 626 q 176 357 176 481 l 176 344 q 241 147 176 214 q 422 79 306 79 q 540 98 485 79 q 644 160 594 117 l 683 81 q 567 12 638 36 q 419 -12 497 -12 m 333 846 l 333 968 l 461 968 l 461 846 l 333 846 z "},"ẹ":{"ha":756,"x_min":67,"x_max":693,"o":"m 419 -12 q 161 83 256 -12 q 67 347 67 178 q 108 538 67 457 q 225 665 150 619 q 397 710 300 710 q 558 669 493 710 q 658 555 624 629 q 693 379 693 481 l 693 338 l 153 338 l 153 408 l 619 408 l 596 390 q 546 564 596 501 q 397 626 496 626 q 235 553 293 626 q 176 357 176 481 l 176 344 q 241 147 176 214 q 422 79 306 79 q 540 98 485 79 q 644 160 594 117 l 683 81 q 567 12 638 36 q 419 -12 497 -12 m 338 -260 l 338 -137 l 465 -137 l 465 -260 l 338 -260 z "},"è":{"ha":756,"x_min":67,"x_max":693,"o":"m 419 -12 q 161 83 256 -12 q 67 347 67 178 q 108 538 67 457 q 225 665 150 619 q 397 710 300 710 q 558 669 493 710 q 658 555 624 629 q 693 379 693 481 l 693 338 l 153 338 l 153 408 l 619 408 l 596 390 q 546 564 596 501 q 397 626 496 626 q 235 553 293 626 q 176 357 176 481 l 176 344 q 241 147 176 214 q 422 79 306 79 q 540 98 485 79 q 644 160 594 117 l 683 81 q 567 12 638 36 q 419 -12 497 -12 m 357 765 l 174 1046 l 294 1046 l 438 765 l 357 765 z "},"ẻ":{"ha":756,"x_min":67,"x_max":693,"o":"m 419 -12 q 161 83 256 -12 q 67 347 67 178 q 108 538 67 457 q 225 665 150 619 q 397 710 300 710 q 558 669 493 710 q 658 555 624 629 q 693 379 693 481 l 693 338 l 153 338 l 153 408 l 619 408 l 596 390 q 546 564 596 501 q 397 626 496 626 q 235 553 293 626 q 176 357 176 481 l 176 344 q 241 147 176 214 q 422 79 306 79 q 540 98 485 79 q 644 160 594 117 l 683 81 q 567 12 638 36 q 419 -12 497 -12 m 360 765 l 360 794 q 373 847 360 826 q 403 883 386 868 q 433 913 419 897 q 446 947 446 928 q 430 976 446 967 q 382 986 414 986 q 340 981 360 986 q 293 965 319 976 l 275 1024 q 333 1047 300 1040 q 403 1054 365 1054 q 502 1030 467 1054 q 538 960 538 1006 q 522 904 538 925 q 487 868 507 883 q 451 835 467 853 q 435 788 435 817 l 435 765 l 360 765 z "},"ȇ":{"ha":756,"x_min":67,"x_max":693,"o":"m 419 -12 q 161 83 256 -12 q 67 347 67 178 q 108 538 67 457 q 225 665 150 619 q 397 710 300 710 q 558 669 493 710 q 658 555 624 629 q 693 379 693 481 l 693 338 l 153 338 l 153 408 l 619 408 l 596 390 q 546 564 596 501 q 397 626 496 626 q 235 553 293 626 q 176 357 176 481 l 176 344 q 241 147 176 214 q 422 79 306 79 q 540 98 485 79 q 644 160 594 117 l 683 81 q 567 12 638 36 q 419 -12 497 -12 m 254 756 l 183 763 q 214 903 188 844 q 288 994 240 963 q 397 1026 335 1026 q 507 994 460 1026 q 581 903 554 963 q 611 763 608 844 l 540 756 q 498 899 535 849 q 397 950 461 950 q 297 899 333 950 q 254 756 260 849 z "},"ē":{"ha":756,"x_min":67,"x_max":693,"o":"m 419 -12 q 161 83 256 -12 q 67 347 67 178 q 108 538 67 457 q 225 665 150 619 q 397 710 300 710 q 558 669 493 710 q 658 555 624 629 q 693 379 693 481 l 693 338 l 153 338 l 153 408 l 619 408 l 596 390 q 546 564 596 501 q 397 626 496 626 q 235 553 293 626 q 176 357 176 481 l 176 344 q 241 147 176 214 q 422 79 306 79 q 540 98 485 79 q 644 160 594 117 l 683 81 q 567 12 638 36 q 419 -12 497 -12 m 192 868 l 192 944 l 603 944 l 603 868 l 192 868 z "},"ḗ":{"ha":756,"x_min":67,"x_max":693,"o":"m 419 -12 q 161 83 256 -12 q 67 347 67 178 q 108 538 67 457 q 225 665 150 619 q 397 710 300 710 q 558 669 493 710 q 658 555 624 629 q 693 379 693 481 l 693 338 l 153 338 l 153 408 l 619 408 l 596 390 q 546 564 596 501 q 397 626 496 626 q 235 553 293 626 q 176 357 176 481 l 176 344 q 241 147 176 214 q 422 79 306 79 q 540 98 485 79 q 644 160 594 117 l 683 81 q 567 12 638 36 q 419 -12 497 -12 m 192 793 l 192 869 l 603 869 l 603 793 l 192 793 m 358 921 l 478 1118 l 596 1118 l 436 921 l 358 921 z "},"ḕ":{"ha":756,"x_min":67,"x_max":693,"o":"m 419 -12 q 161 83 256 -12 q 67 347 67 178 q 108 538 67 457 q 225 665 150 619 q 397 710 300 710 q 558 669 493 710 q 658 555 624 629 q 693 379 693 481 l 693 338 l 153 338 l 153 408 l 619 408 l 596 390 q 546 564 596 501 q 397 626 496 626 q 235 553 293 626 q 176 357 176 481 l 176 344 q 241 147 176 214 q 422 79 306 79 q 540 98 485 79 q 644 160 594 117 l 683 81 q 567 12 638 36 q 419 -12 497 -12 m 192 793 l 192 869 l 603 869 l 603 793 l 192 793 m 358 921 l 199 1118 l 317 1118 l 436 921 l 358 921 z "},"ę":{"ha":756,"x_min":67,"x_max":693,"o":"m 419 -12 q 161 83 256 -12 q 67 347 67 178 q 108 538 67 457 q 225 665 150 619 q 397 710 300 710 q 558 669 493 710 q 658 555 624 629 q 693 379 693 481 l 693 338 l 153 338 l 153 408 l 619 408 l 596 390 q 546 564 596 501 q 397 626 496 626 q 235 553 293 626 q 176 357 176 481 l 176 344 q 241 147 176 214 q 422 79 306 79 q 540 98 485 79 q 644 160 594 117 l 683 81 q 567 12 638 36 q 419 -12 497 -12 m 486 -267 q 379 -231 419 -267 q 339 -132 339 -194 q 375 -27 339 -76 q 472 50 411 22 l 513 0 q 469 -26 490 -8 q 433 -67 447 -43 q 419 -119 419 -90 q 443 -178 419 -158 q 500 -197 467 -197 q 538 -193 519 -197 q 575 -181 556 -189 l 594 -243 q 547 -260 575 -254 q 486 -267 519 -267 z "},"ẽ":{"ha":756,"x_min":67,"x_max":693,"o":"m 419 -12 q 161 83 256 -12 q 67 347 67 178 q 108 538 67 457 q 225 665 150 619 q 397 710 300 710 q 558 669 493 710 q 658 555 624 629 q 693 379 693 481 l 693 338 l 153 338 l 153 408 l 619 408 l 596 390 q 546 564 596 501 q 397 626 496 626 q 235 553 293 626 q 176 357 176 481 l 176 344 q 241 147 176 214 q 422 79 306 79 q 540 98 485 79 q 644 160 594 117 l 683 81 q 567 12 638 36 q 419 -12 497 -12 m 211 819 l 147 824 q 194 960 154 913 q 296 1008 235 1008 q 352 994 326 1008 q 411 951 378 981 q 460 913 442 924 q 497 903 479 903 q 583 1013 568 903 l 647 1008 q 601 872 640 919 q 500 824 561 824 q 444 838 471 824 q 383 882 418 851 q 335 919 354 908 q 297 929 317 929 q 240 901 261 929 q 211 819 218 872 z "},"ə":{"ha":756,"x_min":63,"x_max":690,"o":"m 358 -12 q 141 74 219 -12 q 63 313 63 161 l 63 358 l 604 358 l 604 288 l 136 288 l 160 308 q 211 134 160 196 q 358 72 263 72 q 523 144 465 72 q 581 333 581 217 l 581 350 q 516 551 581 483 q 331 619 451 619 q 217 601 272 619 q 111 538 163 582 l 76 619 q 193 687 122 664 q 343 710 264 710 q 528 667 450 710 q 648 544 606 625 q 690 350 690 464 q 649 160 690 242 q 533 33 607 78 q 358 -12 458 -12 z "},"f":{"ha":469,"x_min":10,"x_max":483,"o":"m 146 0 l 146 610 l 10 610 l 10 697 l 176 697 l 146 668 l 146 785 q 206 965 146 903 q 376 1028 265 1028 q 434 1023 404 1028 q 483 1010 464 1018 l 483 917 q 442 928 467 924 q 393 933 418 933 q 319 916 350 933 q 274 864 289 899 q 258 775 258 829 l 258 674 l 240 697 l 453 697 l 453 610 l 258 610 l 258 0 l 146 0 z "},"g":{"ha":838,"x_min":67,"x_max":742,"o":"m 417 -310 q 250 -287 326 -310 q 113 -219 174 -265 l 146 -135 q 231 -183 189 -165 q 317 -210 272 -201 q 411 -219 361 -219 q 567 -165 514 -219 q 619 -11 619 -111 l 619 193 l 633 193 q 542 63 611 111 q 379 15 472 15 q 213 58 283 15 q 105 178 143 100 q 67 364 67 257 q 105 547 67 469 q 213 667 143 625 q 379 710 283 710 q 542 663 474 710 q 633 532 611 615 l 619 546 l 632 697 l 742 697 q 733 616 736 657 q 731 536 731 575 l 731 4 q 651 -231 731 -151 q 417 -310 571 -310 m 400 107 q 560 174 501 107 q 618 364 618 242 q 560 553 618 486 q 400 619 501 619 q 240 553 300 619 q 181 364 181 486 q 240 174 181 242 q 400 107 300 107 z "},"ğ":{"ha":838,"x_min":67,"x_max":742,"o":"m 417 -310 q 250 -287 326 -310 q 113 -219 174 -265 l 146 -135 q 231 -183 189 -165 q 317 -210 272 -201 q 411 -219 361 -219 q 567 -165 514 -219 q 619 -11 619 -111 l 619 193 l 633 193 q 542 63 611 111 q 379 15 472 15 q 213 58 283 15 q 105 178 143 100 q 67 364 67 257 q 105 547 67 469 q 213 667 143 625 q 379 710 283 710 q 542 663 474 710 q 633 532 611 615 l 619 546 l 632 697 l 742 697 q 733 616 736 657 q 731 536 731 575 l 731 4 q 651 -231 731 -151 q 417 -310 571 -310 m 400 107 q 560 174 501 107 q 618 364 618 242 q 560 553 618 486 q 400 619 501 619 q 240 553 300 619 q 181 364 181 486 q 240 174 181 242 q 400 107 300 107 m 424 763 q 314 794 361 763 q 240 885 267 826 q 210 1026 214 944 l 281 1033 q 323 890 286 940 q 424 839 360 839 q 524 890 488 839 q 567 1033 561 940 l 638 1026 q 608 885 635 944 q 533 794 581 826 q 424 763 486 763 z "},"ǧ":{"ha":838,"x_min":67,"x_max":742,"o":"m 417 -310 q 250 -287 326 -310 q 113 -219 174 -265 l 146 -135 q 231 -183 189 -165 q 317 -210 272 -201 q 411 -219 361 -219 q 567 -165 514 -219 q 619 -11 619 -111 l 619 193 l 633 193 q 542 63 611 111 q 379 15 472 15 q 213 58 283 15 q 105 178 143 100 q 67 364 67 257 q 105 547 67 469 q 213 667 143 625 q 379 710 283 710 q 542 663 474 710 q 633 532 611 615 l 619 546 l 632 697 l 742 697 q 733 616 736 657 q 731 536 731 575 l 731 4 q 651 -231 731 -151 q 417 -310 571 -310 m 400 107 q 560 174 501 107 q 618 364 618 242 q 560 553 618 486 q 400 619 501 619 q 240 553 300 619 q 181 364 181 486 q 240 174 181 242 q 400 107 300 107 m 369 765 l 218 1046 l 296 1046 l 424 840 l 551 1046 l 629 1046 l 478 765 l 369 765 z "},"ĝ":{"ha":838,"x_min":67,"x_max":742,"o":"m 417 -310 q 250 -287 326 -310 q 113 -219 174 -265 l 146 -135 q 231 -183 189 -165 q 317 -210 272 -201 q 411 -219 361 -219 q 567 -165 514 -219 q 619 -11 619 -111 l 619 193 l 633 193 q 542 63 611 111 q 379 15 472 15 q 213 58 283 15 q 105 178 143 100 q 67 364 67 257 q 105 547 67 469 q 213 667 143 625 q 379 710 283 710 q 542 663 474 710 q 633 532 611 615 l 619 546 l 632 697 l 742 697 q 733 616 736 657 q 731 536 731 575 l 731 4 q 651 -231 731 -151 q 417 -310 571 -310 m 400 107 q 560 174 501 107 q 618 364 618 242 q 560 553 618 486 q 400 619 501 619 q 240 553 300 619 q 181 364 181 486 q 240 174 181 242 q 400 107 300 107 m 218 765 l 369 1046 l 478 1046 l 629 765 l 551 765 l 424 971 l 296 765 l 218 765 z "},"ģ":{"ha":838,"x_min":67,"x_max":742,"o":"m 417 -310 q 250 -287 326 -310 q 113 -219 174 -265 l 146 -135 q 231 -183 189 -165 q 317 -210 272 -201 q 411 -219 361 -219 q 567 -165 514 -219 q 619 -11 619 -111 l 619 193 l 633 193 q 542 63 611 111 q 379 15 472 15 q 213 58 283 15 q 105 178 143 100 q 67 364 67 257 q 105 547 67 469 q 213 667 143 625 q 379 710 283 710 q 542 663 474 710 q 633 532 611 615 l 619 546 l 632 697 l 742 697 q 733 616 736 657 q 731 536 731 575 l 731 4 q 651 -231 731 -151 q 417 -310 571 -310 m 400 107 q 560 174 501 107 q 618 364 618 242 q 560 553 618 486 q 400 619 501 619 q 240 553 300 619 q 181 364 181 486 q 240 174 181 242 q 400 107 300 107 m 354 788 l 354 871 q 372 968 354 924 q 428 1049 390 1013 l 476 1014 q 435 950 446 979 q 424 888 424 921 l 394 903 l 492 903 l 492 788 l 354 788 z "},"ġ":{"ha":838,"x_min":67,"x_max":742,"o":"m 417 -310 q 250 -287 326 -310 q 113 -219 174 -265 l 146 -135 q 231 -183 189 -165 q 317 -210 272 -201 q 411 -219 361 -219 q 567 -165 514 -219 q 619 -11 619 -111 l 619 193 l 633 193 q 542 63 611 111 q 379 15 472 15 q 213 58 283 15 q 105 178 143 100 q 67 364 67 257 q 105 547 67 469 q 213 667 143 625 q 379 710 283 710 q 542 663 474 710 q 633 532 611 615 l 619 546 l 632 697 l 742 697 q 733 616 736 657 q 731 536 731 575 l 731 4 q 651 -231 731 -151 q 417 -310 571 -310 m 400 107 q 560 174 501 107 q 618 364 618 242 q 560 553 618 486 q 400 619 501 619 q 240 553 300 619 q 181 364 181 486 q 240 174 181 242 q 400 107 300 107 m 360 846 l 360 968 l 488 968 l 488 846 l 360 846 z "},"ḡ":{"ha":838,"x_min":67,"x_max":742,"o":"m 417 -310 q 250 -287 326 -310 q 113 -219 174 -265 l 146 -135 q 231 -183 189 -165 q 317 -210 272 -201 q 411 -219 361 -219 q 567 -165 514 -219 q 619 -11 619 -111 l 619 193 l 633 193 q 542 63 611 111 q 379 15 472 15 q 213 58 283 15 q 105 178 143 100 q 67 364 67 257 q 105 547 67 469 q 213 667 143 625 q 379 710 283 710 q 542 663 474 710 q 633 532 611 615 l 619 546 l 632 697 l 742 697 q 733 616 736 657 q 731 536 731 575 l 731 4 q 651 -231 731 -151 q 417 -310 571 -310 m 400 107 q 560 174 501 107 q 618 364 618 242 q 560 553 618 486 q 400 619 501 619 q 240 553 300 619 q 181 364 181 486 q 240 174 181 242 q 400 107 300 107 m 218 868 l 218 944 l 629 944 l 629 868 l 218 868 z "},"ǥ":{"ha":839,"x_min":67,"x_max":826,"o":"m 415 -310 q 249 -287 325 -310 q 113 -219 174 -265 l 144 -133 q 229 -185 188 -165 q 316 -213 271 -204 q 411 -222 361 -222 q 608 -93 572 -222 l 619 -107 l 436 -107 l 436 -43 l 633 -43 l 617 -61 q 619 -40 618 -50 q 619 -17 619 -29 l 619 207 l 633 207 q 542 78 611 125 q 379 32 472 32 q 213 73 283 32 q 105 190 143 114 q 67 371 67 267 q 105 551 67 475 q 213 669 143 628 q 379 710 283 710 q 542 663 472 710 q 633 533 611 617 l 613 532 l 628 697 l 736 697 q 728 616 732 657 q 725 536 725 575 l 729 4 q 728 -26 729 -11 q 725 -57 728 -42 l 713 -43 l 826 -43 l 826 -107 l 704 -107 l 721 -93 q 622 -255 699 -200 q 415 -310 544 -310 m 400 122 q 559 188 500 122 q 618 371 618 253 q 559 554 618 489 q 400 619 500 619 q 240 554 299 619 q 181 371 181 489 q 240 187 181 251 q 400 122 299 122 z "},"h":{"ha":814,"x_min":110,"x_max":708,"o":"m 110 0 l 110 1022 l 222 1022 l 222 543 l 204 543 q 302 667 233 625 q 461 710 371 710 q 647 642 586 710 q 708 439 708 575 l 708 0 l 596 0 l 596 432 q 558 574 596 529 q 435 618 519 618 q 280 558 338 618 q 222 401 222 499 l 222 0 l 110 0 z "},"ħ":{"ha":814,"x_min":-24,"x_max":708,"o":"m 110 0 l 110 808 l -24 808 l -24 893 l 110 893 l 110 1022 l 222 1022 l 222 893 l 499 893 l 499 808 l 222 808 l 222 538 l 204 538 q 302 660 233 618 q 461 703 371 703 q 647 635 585 703 q 708 432 708 568 l 708 0 l 596 0 l 596 425 q 557 566 596 522 q 435 610 518 610 q 280 551 338 610 q 222 394 222 493 l 222 0 l 110 0 z "},"ḫ":{"ha":814,"x_min":110,"x_max":708,"o":"m 110 0 l 110 1022 l 222 1022 l 222 543 l 204 543 q 302 667 233 625 q 461 710 371 710 q 647 642 586 710 q 708 439 708 575 l 708 0 l 596 0 l 596 432 q 558 574 596 529 q 435 618 519 618 q 280 558 338 618 q 222 401 222 499 l 222 0 l 110 0 m 408 -299 q 257 -243 315 -299 q 194 -90 199 -187 l 265 -83 q 308 -187 271 -150 q 408 -224 344 -224 q 509 -187 472 -224 q 551 -83 546 -150 l 622 -90 q 560 -243 618 -187 q 408 -299 503 -299 z "},"ȟ":{"ha":814,"x_min":110,"x_max":708,"o":"m 110 0 l 110 1022 l 222 1022 l 222 543 l 204 543 q 302 667 233 625 q 461 710 371 710 q 647 642 586 710 q 708 439 708 575 l 708 0 l 596 0 l 596 432 q 558 574 596 529 q 435 618 519 618 q 280 558 338 618 q 222 401 222 499 l 222 0 l 110 0 m 360 1074 l 189 1313 l 274 1313 l 413 1147 l 551 1313 l 636 1313 l 465 1074 l 360 1074 z "},"ĥ":{"ha":814,"x_min":110,"x_max":708,"o":"m 110 0 l 110 1022 l 222 1022 l 222 543 l 204 543 q 302 667 233 625 q 461 710 371 710 q 647 642 586 710 q 708 439 708 575 l 708 0 l 596 0 l 596 432 q 558 574 596 529 q 435 618 519 618 q 280 558 338 618 q 222 401 222 499 l 222 0 l 110 0 m 189 1074 l 360 1313 l 465 1313 l 636 1074 l 551 1074 l 413 1239 l 274 1074 l 189 1074 z "},"ḥ":{"ha":814,"x_min":110,"x_max":708,"o":"m 110 0 l 110 1022 l 222 1022 l 222 543 l 204 543 q 302 667 233 625 q 461 710 371 710 q 647 642 586 710 q 708 439 708 575 l 708 0 l 596 0 l 596 432 q 558 574 596 529 q 435 618 519 618 q 280 558 338 618 q 222 401 222 499 l 222 0 l 110 0 m 344 -260 l 344 -137 l 472 -137 l 472 -260 l 344 -260 z "},"i":{"ha":331,"x_min":96,"x_max":235,"o":"m 110 0 l 110 697 l 222 697 l 222 0 l 110 0 m 96 856 l 96 982 l 235 982 l 235 856 l 96 856 z "},"ı":{"ha":331,"x_min":110,"x_max":222,"o":"m 110 0 l 110 697 l 222 697 l 222 0 l 110 0 z "},"í":{"ha":331,"x_min":110,"x_max":389,"o":"m 110 0 l 110 697 l 222 697 l 222 0 l 110 0 m 125 765 l 268 1046 l 389 1046 l 206 765 l 125 765 z "},"ĭ":{"ha":331,"x_min":-49,"x_max":381,"o":"m 110 0 l 110 697 l 222 697 l 222 0 l 110 0 m 165 763 q 56 794 103 763 q -18 885 8 826 q -49 1026 -44 944 l 22 1033 q 65 890 28 940 q 165 839 101 839 q 266 890 229 839 q 308 1033 303 940 l 379 1026 q 349 885 376 944 q 275 794 322 826 q 165 763 228 763 z "},"î":{"ha":331,"x_min":-40,"x_max":371,"o":"m 110 0 l 110 697 l 222 697 l 222 0 l 110 0 m -40 765 l 111 1046 l 219 1046 l 371 765 l 293 765 l 165 971 l 38 765 l -40 765 z "},"ȉ":{"ha":331,"x_min":-69,"x_max":288,"o":"m 110 0 l 110 697 l 222 697 l 222 0 l 110 0 m 224 765 l 107 1046 l 211 1046 l 286 765 l 224 765 m 46 765 l -69 1046 l 35 1046 l 108 765 l 46 765 z "},"ï":{"ha":331,"x_min":-15,"x_max":347,"o":"m 110 0 l 110 697 l 222 697 l 222 0 l 110 0 m 226 846 l 226 965 l 346 965 l 346 846 l 226 846 m -15 846 l -15 965 l 104 965 l 104 846 l -15 846 z "},"ḯ":{"ha":331,"x_min":-15,"x_max":365,"o":"m 110 0 l 110 697 l 222 697 l 222 0 l 110 0 m 126 921 l 246 1118 l 364 1118 l 204 921 l 126 921 m -15 767 l -15 868 l 104 868 l 104 767 l -15 767 m 226 767 l 226 868 l 346 868 l 346 767 l 226 767 z "},"ị":{"ha":331,"x_min":96,"x_max":236,"o":"m 110 0 l 110 697 l 222 697 l 222 0 l 110 0 m 96 856 l 96 982 l 235 982 l 235 856 l 96 856 m 108 -260 l 108 -137 l 236 -137 l 236 -260 l 108 -260 z "},"ì":{"ha":331,"x_min":-57,"x_max":222,"o":"m 110 0 l 110 697 l 222 697 l 222 0 l 110 0 m 125 765 l -58 1046 l 63 1046 l 206 765 l 125 765 z "},"ỉ":{"ha":331,"x_min":43,"x_max":307,"o":"m 110 0 l 110 697 l 222 697 l 222 0 l 110 0 m 128 765 l 128 794 q 141 847 128 826 q 171 883 154 868 q 201 913 188 897 q 214 947 214 928 q 198 976 214 967 q 150 986 182 986 q 108 981 128 986 q 61 965 88 976 l 43 1024 q 101 1047 68 1040 q 171 1054 133 1054 q 270 1030 235 1054 q 306 960 306 1006 q 290 904 306 925 q 255 868 275 883 q 219 835 235 853 q 203 788 203 817 l 203 765 l 128 765 z "},"ȋ":{"ha":331,"x_min":-49,"x_max":381,"o":"m 110 0 l 110 697 l 222 697 l 222 0 l 110 0 m 22 756 l -49 763 q -18 903 -44 844 q 56 994 8 963 q 165 1026 103 1026 q 275 994 228 1026 q 349 903 322 963 q 379 763 376 844 l 308 756 q 266 899 303 849 q 165 950 229 950 q 65 899 101 950 q 22 756 28 849 z "},"ī":{"ha":331,"x_min":-40,"x_max":372,"o":"m 110 0 l 110 697 l 222 697 l 222 0 l 110 0 m -40 868 l -40 944 l 371 944 l 371 868 l -40 868 z "},"į":{"ha":331,"x_min":33,"x_max":289,"o":"m 110 0 l 110 697 l 222 697 l 222 0 l 110 0 m 96 843 l 96 969 l 235 969 l 235 843 l 96 843 m 179 -267 q 72 -231 113 -267 q 32 -132 32 -194 q 68 -27 32 -76 q 165 50 104 22 l 206 0 q 162 -26 183 -8 q 126 -67 140 -43 q 113 -119 113 -90 q 136 -178 113 -158 q 193 -197 160 -197 q 231 -193 213 -197 q 268 -181 249 -189 l 288 -243 q 240 -260 268 -254 q 179 -267 213 -267 z "},"ĩ":{"ha":331,"x_min":-85,"x_max":417,"o":"m 110 0 l 110 697 l 222 697 l 222 0 l 110 0 m -21 819 l -85 824 q -37 960 -78 913 q 64 1008 3 1008 q 120 994 94 1008 q 179 951 146 981 q 228 913 210 924 q 265 903 247 903 q 351 1013 336 903 l 415 1008 q 369 872 408 919 q 268 824 329 824 q 213 838 239 824 q 151 882 186 851 q 103 919 122 908 q 65 929 85 929 q 8 901 29 929 q -21 819 -14 872 z "},"j":{"ha":331,"x_min":-79,"x_max":242,"o":"m 18 -306 q -31 -301 -1 -306 q -79 -289 -60 -296 l -79 -194 q -40 -205 -62 -200 q 1 -210 -18 -210 q 88 -173 60 -210 q 117 -53 117 -136 l 117 697 l 229 697 l 229 -64 q 177 -244 229 -183 q 18 -306 125 -306 m 104 856 l 104 982 l 242 982 l 242 856 l 104 856 z "},"ȷ":{"ha":331,"x_min":-78,"x_max":231,"o":"m 19 -306 q -30 -301 -1 -306 q -78 -289 -58 -296 l -78 -194 q -39 -205 -61 -200 q 1 -210 -17 -210 q 89 -173 60 -210 q 118 -53 118 -136 l 118 697 l 231 697 l 231 -64 q 178 -244 231 -183 q 19 -306 125 -306 z "},"ĵ":{"ha":331,"x_min":-78,"x_max":379,"o":"m 19 -306 q -30 -301 -1 -306 q -78 -289 -58 -296 l -78 -194 q -39 -205 -61 -200 q 1 -210 -17 -210 q 89 -173 60 -210 q 118 -53 118 -136 l 118 697 l 231 697 l 231 -64 q 178 -244 231 -183 q 19 -306 125 -306 m -32 765 l 119 1046 l 228 1046 l 379 765 l 301 765 l 174 971 l 46 765 l -32 765 z "},"k":{"ha":715,"x_min":110,"x_max":726,"o":"m 110 0 l 110 1022 l 222 1022 l 222 388 l 225 388 l 549 697 l 690 697 l 308 333 l 311 390 l 726 0 l 581 0 l 225 328 l 222 328 l 222 0 l 110 0 z "},"ǩ":{"ha":715,"x_min":110,"x_max":726,"o":"m 110 0 l 110 1022 l 222 1022 l 222 388 l 225 388 l 549 697 l 690 697 l 308 333 l 311 390 l 726 0 l 581 0 l 225 328 l 222 328 l 222 0 l 110 0 m 313 1074 l 142 1313 l 226 1313 l 365 1147 l 504 1313 l 589 1313 l 418 1074 l 313 1074 z "},"ķ":{"ha":715,"x_min":110,"x_max":726,"o":"m 110 0 l 110 1022 l 222 1022 l 222 388 l 225 388 l 549 697 l 690 697 l 308 333 l 311 390 l 726 0 l 581 0 l 225 328 l 222 328 l 222 0 l 110 0 m 353 -372 l 303 -336 q 345 -274 335 -303 q 356 -211 356 -244 l 385 -225 l 288 -225 l 288 -111 l 425 -111 l 425 -194 q 408 -291 425 -246 q 353 -372 390 -336 z "},"ĸ":{"ha":715,"x_min":110,"x_max":726,"o":"m 110 0 l 110 697 l 222 697 l 222 388 l 225 388 l 549 697 l 690 697 l 308 333 l 311 390 l 726 0 l 581 0 l 225 328 l 222 328 l 222 0 l 110 0 z "},"l":{"ha":331,"x_min":110,"x_max":222,"o":"m 110 0 l 110 1022 l 222 1022 l 222 0 l 110 0 z "},"ĺ":{"ha":331,"x_min":110,"x_max":413,"o":"m 110 0 l 110 1022 l 222 1022 l 222 0 l 110 0 m 122 1074 l 286 1313 l 413 1313 l 208 1074 l 122 1074 z "},"ľ":{"ha":331,"x_min":110,"x_max":378,"o":"m 110 0 l 110 1022 l 222 1022 l 222 0 l 110 0 m 288 758 l 288 1022 l 378 1022 l 346 758 l 288 758 z "},"ļ":{"ha":331,"x_min":97,"x_max":233,"o":"m 110 0 l 110 1022 l 222 1022 l 222 0 l 110 0 m 161 -372 l 111 -336 q 153 -274 143 -303 q 164 -211 164 -244 l 193 -225 l 96 -225 l 96 -111 l 233 -111 l 233 -194 q 216 -291 233 -246 q 161 -372 199 -336 z "},"ŀ":{"ha":331,"x_min":110,"x_max":439,"o":"m 110 0 l 110 1022 l 222 1022 l 222 0 l 110 0 m 297 428 l 297 558 l 439 558 l 439 428 l 297 428 z "},"ḷ":{"ha":331,"x_min":103,"x_max":229,"o":"m 110 0 l 110 1022 l 222 1022 l 222 0 l 110 0 m 101 -260 l 101 -137 l 229 -137 l 229 -260 l 101 -260 z "},"ǉ":{"ha":661,"x_min":110,"x_max":572,"o":"m 110 0 l 110 1022 l 222 1022 l 222 0 l 110 0 m 349 -306 q 300 -301 329 -306 q 251 -289 271 -296 l 251 -194 q 290 -205 268 -200 q 332 -210 313 -210 q 419 -173 390 -210 q 447 -53 447 -136 l 447 697 l 560 697 l 560 -64 q 508 -244 560 -183 q 349 -306 456 -306 m 435 856 l 435 982 l 572 982 l 572 856 l 435 856 z "},"ḻ":{"ha":331,"x_min":-40,"x_max":372,"o":"m 110 0 l 110 1022 l 222 1022 l 222 0 l 110 0 m -40 -217 l -40 -140 l 371 -140 l 371 -217 l -40 -217 z "},"ł":{"ha":331,"x_min":-40,"x_max":372,"o":"m 110 0 l 110 1022 l 222 1022 l 222 0 l 110 0 m 6 357 l -40 436 l 325 650 l 371 571 l 6 357 z "},"m":{"ha":1219,"x_min":99,"x_max":1115,"o":"m 110 0 l 110 536 q 106 616 110 575 q 99 697 103 657 l 207 697 l 221 544 l 204 544 q 292 667 232 624 q 439 710 353 710 q 581 668 526 710 q 656 539 636 626 l 635 539 q 728 664 661 618 q 883 710 794 710 q 1057 644 999 710 q 1115 436 1115 578 l 1115 0 l 1003 0 l 1003 429 q 968 573 1003 528 q 857 618 933 618 q 719 558 769 618 q 668 396 668 497 l 668 0 l 556 0 l 556 429 q 521 573 556 528 q 410 618 486 618 q 272 558 322 618 q 222 396 222 497 l 222 0 l 110 0 z "},"ṃ":{"ha":1219,"x_min":99,"x_max":1115,"o":"m 110 0 l 110 536 q 106 616 110 575 q 99 697 103 657 l 207 697 l 221 544 l 204 544 q 292 667 232 624 q 439 710 353 710 q 581 668 526 710 q 656 539 636 626 l 635 539 q 728 664 661 618 q 883 710 794 710 q 1057 644 999 710 q 1115 436 1115 578 l 1115 0 l 1003 0 l 1003 429 q 968 573 1003 528 q 857 618 933 618 q 719 558 769 618 q 668 396 668 497 l 668 0 l 556 0 l 556 429 q 521 573 556 528 q 410 618 486 618 q 272 558 322 618 q 222 396 222 497 l 222 0 l 110 0 m 546 -260 l 546 -137 l 674 -137 l 674 -260 l 546 -260 z "},"n":{"ha":814,"x_min":99,"x_max":708,"o":"m 110 0 l 110 536 q 106 616 110 575 q 99 697 103 657 l 207 697 l 221 544 l 204 544 q 302 667 235 625 q 458 710 369 710 q 645 644 582 710 q 708 436 708 578 l 708 0 l 596 0 l 596 429 q 556 573 596 528 q 433 618 517 618 q 279 558 336 618 q 222 399 222 499 l 222 0 l 110 0 z "},"ń":{"ha":814,"x_min":99,"x_max":708,"o":"m 110 0 l 110 536 q 106 616 110 575 q 99 697 103 657 l 207 697 l 221 544 l 204 544 q 302 667 235 625 q 458 710 369 710 q 645 644 582 710 q 708 436 708 578 l 708 0 l 596 0 l 596 429 q 556 573 596 528 q 433 618 517 618 q 279 558 336 618 q 222 399 222 499 l 222 0 l 110 0 m 365 765 l 508 1046 l 629 1046 l 446 765 l 365 765 z "},"ŉ":{"ha":938,"x_min":99,"x_max":832,"o":"m 165 793 l 115 829 q 155 888 146 860 q 164 943 164 917 l 196 929 l 99 929 l 99 1049 l 235 1049 l 235 965 q 220 873 235 915 q 165 793 206 831 m 233 0 l 233 536 q 230 616 233 575 q 222 697 226 657 l 331 697 l 344 544 l 328 544 q 426 667 358 625 q 582 710 493 710 q 769 644 706 710 q 832 436 832 578 l 832 0 l 719 0 l 719 429 q 680 573 719 528 q 557 618 640 618 q 403 558 460 618 q 346 399 346 499 l 346 0 l 233 0 z "},"ň":{"ha":814,"x_min":99,"x_max":708,"o":"m 110 0 l 110 536 q 106 616 110 575 q 99 697 103 657 l 207 697 l 221 544 l 204 544 q 302 667 235 625 q 458 710 369 710 q 645 644 582 710 q 708 436 708 578 l 708 0 l 596 0 l 596 429 q 556 573 596 528 q 433 618 517 618 q 279 558 336 618 q 222 399 222 499 l 222 0 l 110 0 m 351 765 l 200 1046 l 278 1046 l 406 840 l 533 1046 l 611 1046 l 460 765 l 351 765 z "},"ņ":{"ha":814,"x_min":99,"x_max":708,"o":"m 110 0 l 110 536 q 106 616 110 575 q 99 697 103 657 l 207 697 l 221 544 l 204 544 q 302 667 235 625 q 458 710 369 710 q 645 644 582 710 q 708 436 708 578 l 708 0 l 596 0 l 596 429 q 556 573 596 528 q 433 618 517 618 q 279 558 336 618 q 222 399 222 499 l 222 0 l 110 0 m 401 -372 l 351 -336 q 394 -274 383 -303 q 404 -211 404 -244 l 433 -225 l 336 -225 l 336 -111 l 474 -111 l 474 -194 q 456 -291 474 -246 q 401 -372 439 -336 z "},"ṅ":{"ha":814,"x_min":99,"x_max":708,"o":"m 110 0 l 110 536 q 106 616 110 575 q 99 697 103 657 l 207 697 l 221 544 l 204 544 q 302 667 235 625 q 458 710 369 710 q 645 644 582 710 q 708 436 708 578 l 708 0 l 596 0 l 596 429 q 556 573 596 528 q 433 618 517 618 q 279 558 336 618 q 222 399 222 499 l 222 0 l 110 0 m 342 846 l 342 968 l 469 968 l 469 846 l 342 846 z "},"ṇ":{"ha":814,"x_min":99,"x_max":708,"o":"m 110 0 l 110 536 q 106 616 110 575 q 99 697 103 657 l 207 697 l 221 544 l 204 544 q 302 667 235 625 q 458 710 369 710 q 645 644 582 710 q 708 436 708 578 l 708 0 l 596 0 l 596 429 q 556 573 596 528 q 433 618 517 618 q 279 558 336 618 q 222 399 222 499 l 222 0 l 110 0 m 342 -260 l 342 -137 l 469 -137 l 469 -260 l 342 -260 z "},"ŋ":{"ha":814,"x_min":99,"x_max":708,"o":"m 110 0 l 110 536 q 106 616 110 575 q 99 697 103 657 l 207 697 l 221 544 l 204 544 q 303 667 235 625 q 460 710 371 710 q 646 644 583 710 q 708 436 708 578 l 708 -58 q 651 -241 708 -176 q 482 -306 594 -306 q 431 -301 456 -306 q 385 -289 406 -296 l 385 -194 q 421 -205 403 -200 q 464 -210 439 -210 q 563 -169 529 -210 q 596 -47 596 -129 l 596 429 q 557 573 596 528 q 435 618 518 618 q 280 558 338 618 q 222 399 222 499 l 222 0 l 110 0 z "},"ǌ":{"ha":1143,"x_min":99,"x_max":1054,"o":"m 110 0 l 110 536 q 106 616 110 575 q 99 697 103 657 l 207 697 l 221 544 l 204 544 q 302 667 235 625 q 458 710 369 710 q 645 644 582 710 q 708 436 708 578 l 708 0 l 596 0 l 596 429 q 556 573 596 528 q 433 618 517 618 q 279 558 336 618 q 222 399 222 499 l 222 0 l 110 0 m 832 -306 q 783 -301 813 -306 q 735 -289 754 -296 l 735 -194 q 774 -205 751 -200 q 815 -210 796 -210 q 902 -173 874 -210 q 931 -53 931 -136 l 931 697 l 1043 697 l 1043 -64 q 991 -244 1043 -183 q 832 -306 939 -306 m 918 856 l 918 982 l 1056 982 l 1056 856 l 918 856 z "},"ṉ":{"ha":814,"x_min":99,"x_max":708,"o":"m 110 0 l 110 536 q 106 616 110 575 q 99 697 103 657 l 207 697 l 221 544 l 204 544 q 302 667 235 625 q 458 710 369 710 q 645 644 582 710 q 708 436 708 578 l 708 0 l 596 0 l 596 429 q 556 573 596 528 q 433 618 517 618 q 279 558 336 618 q 222 399 222 499 l 222 0 l 110 0 m 200 -217 l 200 -140 l 611 -140 l 611 -217 l 200 -217 z "},"ñ":{"ha":814,"x_min":99,"x_max":708,"o":"m 110 0 l 110 536 q 106 616 110 575 q 99 697 103 657 l 207 697 l 221 544 l 204 544 q 302 667 235 625 q 458 710 369 710 q 645 644 582 710 q 708 436 708 578 l 708 0 l 596 0 l 596 429 q 556 573 596 528 q 433 618 517 618 q 279 558 336 618 q 222 399 222 499 l 222 0 l 110 0 m 219 819 l 156 824 q 203 960 163 913 q 304 1008 243 1008 q 360 994 335 1008 q 419 951 386 981 q 469 913 450 924 q 506 903 488 903 q 592 1013 576 903 l 656 1008 q 609 872 649 919 q 508 824 569 824 q 453 838 479 824 q 392 882 426 851 q 344 919 363 908 q 306 929 325 929 q 248 901 269 929 q 219 819 226 872 z "},"o":{"ha":793,"x_min":67,"x_max":728,"o":"m 396 -12 q 222 31 296 -12 q 107 156 147 75 q 67 349 67 238 q 107 542 67 461 q 222 666 147 622 q 396 710 296 710 q 572 666 497 710 q 687 542 646 622 q 728 349 728 461 q 687 156 728 238 q 572 31 646 75 q 396 -12 497 -12 m 396 79 q 554 148 496 79 q 613 349 613 217 q 553 551 613 482 q 396 619 494 619 q 239 551 297 619 q 181 349 181 482 q 239 148 181 217 q 396 79 297 79 z "},"ó":{"ha":793,"x_min":67,"x_max":728,"o":"m 396 -12 q 222 31 296 -12 q 107 156 147 75 q 67 349 67 238 q 107 542 67 461 q 222 666 147 622 q 396 710 296 710 q 572 666 497 710 q 687 542 646 622 q 728 349 728 461 q 687 156 728 238 q 572 31 646 75 q 396 -12 497 -12 m 396 79 q 554 148 496 79 q 613 349 613 217 q 553 551 613 482 q 396 619 494 619 q 239 551 297 619 q 181 349 181 482 q 239 148 181 217 q 396 79 297 79 m 357 765 l 500 1046 l 621 1046 l 438 765 l 357 765 z "},"ŏ":{"ha":793,"x_min":67,"x_max":728,"o":"m 396 -12 q 222 31 296 -12 q 107 156 147 75 q 67 349 67 238 q 107 542 67 461 q 222 666 147 622 q 396 710 296 710 q 572 666 497 710 q 687 542 646 622 q 728 349 728 461 q 687 156 728 238 q 572 31 646 75 q 396 -12 497 -12 m 396 79 q 554 148 496 79 q 613 349 613 217 q 553 551 613 482 q 396 619 494 619 q 239 551 297 619 q 181 349 181 482 q 239 148 181 217 q 396 79 297 79 m 397 763 q 288 794 335 763 q 214 885 240 826 q 183 1026 188 944 l 254 1033 q 297 890 260 940 q 397 839 333 839 q 498 890 461 839 q 540 1033 535 940 l 611 1026 q 581 885 608 944 q 507 794 554 826 q 397 763 460 763 z "},"ô":{"ha":793,"x_min":67,"x_max":728,"o":"m 396 -12 q 222 31 296 -12 q 107 156 147 75 q 67 349 67 238 q 107 542 67 461 q 222 666 147 622 q 396 710 296 710 q 572 666 497 710 q 687 542 646 622 q 728 349 728 461 q 687 156 728 238 q 572 31 646 75 q 396 -12 497 -12 m 396 79 q 554 148 496 79 q 613 349 613 217 q 553 551 613 482 q 396 619 494 619 q 239 551 297 619 q 181 349 181 482 q 239 148 181 217 q 396 79 297 79 m 192 765 l 343 1046 l 451 1046 l 603 765 l 525 765 l 397 971 l 269 765 l 192 765 z "},"ố":{"ha":793,"x_min":67,"x_max":756,"o":"m 396 -12 q 222 31 296 -12 q 107 156 147 75 q 67 349 67 238 q 107 542 67 461 q 222 666 147 622 q 396 710 296 710 q 572 666 497 710 q 687 542 646 622 q 728 349 728 461 q 687 156 728 238 q 572 31 646 75 q 396 -12 497 -12 m 396 79 q 554 148 496 79 q 613 349 613 217 q 553 551 613 482 q 396 619 494 619 q 239 551 297 619 q 181 349 181 482 q 239 148 181 217 q 396 79 297 79 m 192 763 l 343 988 l 451 988 l 603 763 l 526 763 l 397 915 l 268 763 l 192 763 m 528 907 l 647 1115 l 756 1115 l 601 907 l 528 907 z "},"ộ":{"ha":793,"x_min":67,"x_max":728,"o":"m 396 -12 q 222 31 296 -12 q 107 156 147 75 q 67 349 67 238 q 107 542 67 461 q 222 666 147 622 q 396 710 296 710 q 572 666 497 710 q 687 542 646 622 q 728 349 728 461 q 687 156 728 238 q 572 31 646 75 q 396 -12 497 -12 m 396 79 q 554 148 496 79 q 613 349 613 217 q 553 551 613 482 q 396 619 494 619 q 239 551 297 619 q 181 349 181 482 q 239 148 181 217 q 396 79 297 79 m 333 -260 l 333 -137 l 461 -137 l 461 -260 l 333 -260 m 192 765 l 343 1046 l 451 1046 l 603 765 l 525 765 l 397 971 l 269 765 l 192 765 z "},"ồ":{"ha":793,"x_min":67,"x_max":728,"o":"m 396 -12 q 222 31 296 -12 q 107 156 147 75 q 67 349 67 238 q 107 542 67 461 q 222 666 147 622 q 396 710 296 710 q 572 666 497 710 q 687 542 646 622 q 728 349 728 461 q 687 156 728 238 q 572 31 646 75 q 396 -12 497 -12 m 396 79 q 554 148 496 79 q 613 349 613 217 q 553 551 613 482 q 396 619 494 619 q 239 551 297 619 q 181 349 181 482 q 239 148 181 217 q 396 79 297 79 m 192 763 l 343 988 l 451 988 l 603 763 l 526 763 l 397 915 l 268 763 l 192 763 m 583 907 l 429 1115 l 538 1115 l 657 907 l 583 907 z "},"ổ":{"ha":793,"x_min":67,"x_max":728,"o":"m 396 -12 q 222 31 296 -12 q 107 156 147 75 q 67 349 67 238 q 107 542 67 461 q 222 666 147 622 q 396 710 296 710 q 572 666 497 710 q 687 542 646 622 q 728 349 728 461 q 687 156 728 238 q 572 31 646 75 q 396 -12 497 -12 m 396 79 q 554 148 496 79 q 613 349 613 217 q 553 551 613 482 q 396 619 494 619 q 239 551 297 619 q 181 349 181 482 q 239 148 181 217 q 396 79 297 79 m 192 763 l 343 988 l 451 988 l 603 763 l 526 763 l 397 915 l 268 763 l 192 763 m 538 907 q 550 954 538 936 q 579 984 563 972 q 608 1007 596 996 q 619 1035 619 1018 q 604 1056 619 1050 q 558 1061 589 1061 q 519 1058 540 1061 q 475 1044 499 1054 l 458 1097 q 512 1115 482 1108 q 578 1121 542 1121 q 670 1101 638 1121 q 703 1049 703 1082 q 689 1005 703 1021 q 656 976 675 989 q 622 947 636 963 q 608 907 608 932 l 538 907 z "},"ỗ":{"ha":793,"x_min":67,"x_max":728,"o":"m 396 -12 q 222 31 296 -12 q 107 156 147 75 q 67 349 67 238 q 107 542 67 461 q 222 666 147 622 q 396 710 296 710 q 572 666 497 710 q 687 542 646 622 q 728 349 728 461 q 687 156 728 238 q 572 31 646 75 q 396 -12 497 -12 m 396 79 q 554 148 496 79 q 613 349 613 217 q 553 551 613 482 q 396 619 494 619 q 239 551 297 619 q 181 349 181 482 q 239 148 181 217 q 396 79 297 79 m 192 763 l 343 946 l 451 946 l 603 763 l 528 763 l 397 881 l 267 763 l 192 763 m 240 981 l 178 983 q 219 1090 183 1054 q 308 1125 254 1125 q 358 1115 335 1125 q 410 1085 381 1104 q 456 1058 440 1065 q 485 1051 471 1051 q 533 1069 517 1051 q 554 1126 549 1088 l 617 1124 q 578 1017 613 1053 q 488 982 543 982 q 437 993 461 982 q 378 1028 413 1004 q 346 1047 363 1038 q 310 1056 329 1056 q 263 1038 279 1056 q 240 981 247 1019 z "},"ȍ":{"ha":793,"x_min":67,"x_max":728,"o":"m 396 -12 q 222 31 296 -12 q 107 156 147 75 q 67 349 67 238 q 107 542 67 461 q 222 666 147 622 q 396 710 296 710 q 572 666 497 710 q 687 542 646 622 q 728 349 728 461 q 687 156 728 238 q 572 31 646 75 q 396 -12 497 -12 m 396 79 q 554 148 496 79 q 613 349 613 217 q 553 551 613 482 q 396 619 494 619 q 239 551 297 619 q 181 349 181 482 q 239 148 181 217 q 396 79 297 79 m 456 765 l 339 1046 l 443 1046 l 518 765 l 456 765 m 278 765 l 163 1046 l 267 1046 l 340 765 l 278 765 z "},"ö":{"ha":793,"x_min":67,"x_max":728,"o":"m 396 -12 q 222 31 296 -12 q 107 156 147 75 q 67 349 67 238 q 107 542 67 461 q 222 666 147 622 q 396 710 296 710 q 572 666 497 710 q 687 542 646 622 q 728 349 728 461 q 687 156 728 238 q 572 31 646 75 q 396 -12 497 -12 m 396 79 q 554 148 496 79 q 613 349 613 217 q 553 551 613 482 q 396 619 494 619 q 239 551 297 619 q 181 349 181 482 q 239 148 181 217 q 396 79 297 79 m 458 846 l 458 965 l 578 965 l 578 846 l 458 846 m 217 846 l 217 965 l 336 965 l 336 846 l 217 846 z "},"ȫ":{"ha":793,"x_min":67,"x_max":728,"o":"m 396 -12 q 222 31 296 -12 q 107 156 147 75 q 67 349 67 238 q 107 542 67 461 q 222 666 147 622 q 396 710 296 710 q 572 666 497 710 q 687 542 646 622 q 728 349 728 461 q 687 156 728 238 q 572 31 646 75 q 396 -12 497 -12 m 396 79 q 554 148 496 79 q 613 349 613 217 q 553 551 613 482 q 396 619 494 619 q 239 551 297 619 q 181 349 181 482 q 239 148 181 217 q 396 79 297 79 m 192 982 l 192 1058 l 603 1058 l 603 982 l 192 982 m 217 804 l 217 906 l 336 906 l 336 804 l 217 804 m 458 804 l 458 906 l 578 906 l 578 804 l 458 804 z "},"ȱ":{"ha":793,"x_min":67,"x_max":728,"o":"m 396 -12 q 222 31 296 -12 q 107 156 147 75 q 67 349 67 238 q 107 542 67 461 q 222 666 147 622 q 396 710 296 710 q 572 666 497 710 q 687 542 646 622 q 728 349 728 461 q 687 156 728 238 q 572 31 646 75 q 396 -12 497 -12 m 396 79 q 554 148 496 79 q 613 349 613 217 q 553 551 613 482 q 396 619 494 619 q 239 551 297 619 q 181 349 181 482 q 239 148 181 217 q 396 79 297 79 m 192 982 l 192 1058 l 603 1058 l 603 982 l 192 982 m 338 804 l 338 906 l 458 906 l 458 804 l 338 804 z "},"ọ":{"ha":793,"x_min":67,"x_max":728,"o":"m 396 -12 q 222 31 296 -12 q 107 156 147 75 q 67 349 67 238 q 107 542 67 461 q 222 666 147 622 q 396 710 296 710 q 572 666 497 710 q 687 542 646 622 q 728 349 728 461 q 687 156 728 238 q 572 31 646 75 q 396 -12 497 -12 m 396 79 q 554 148 496 79 q 613 349 613 217 q 553 551 613 482 q 396 619 494 619 q 239 551 297 619 q 181 349 181 482 q 239 148 181 217 q 396 79 297 79 m 333 -260 l 333 -137 l 461 -137 l 461 -260 l 333 -260 z "},"ò":{"ha":793,"x_min":67,"x_max":728,"o":"m 396 -12 q 222 31 296 -12 q 107 156 147 75 q 67 349 67 238 q 107 542 67 461 q 222 666 147 622 q 396 710 296 710 q 572 666 497 710 q 687 542 646 622 q 728 349 728 461 q 687 156 728 238 q 572 31 646 75 q 396 -12 497 -12 m 396 79 q 554 148 496 79 q 613 349 613 217 q 553 551 613 482 q 396 619 494 619 q 239 551 297 619 q 181 349 181 482 q 239 148 181 217 q 396 79 297 79 m 357 765 l 174 1046 l 294 1046 l 438 765 l 357 765 z "},"ỏ":{"ha":793,"x_min":67,"x_max":728,"o":"m 396 -12 q 222 31 296 -12 q 107 156 147 75 q 67 349 67 238 q 107 542 67 461 q 222 666 147 622 q 396 710 296 710 q 572 666 497 710 q 687 542 646 622 q 728 349 728 461 q 687 156 728 238 q 572 31 646 75 q 396 -12 497 -12 m 396 79 q 554 148 496 79 q 613 349 613 217 q 553 551 613 482 q 396 619 494 619 q 239 551 297 619 q 181 349 181 482 q 239 148 181 217 q 396 79 297 79 m 360 765 l 360 794 q 373 847 360 826 q 403 883 386 868 q 433 913 419 897 q 446 947 446 928 q 430 976 446 967 q 382 986 414 986 q 340 981 360 986 q 293 965 319 976 l 275 1024 q 333 1047 300 1040 q 403 1054 365 1054 q 502 1030 467 1054 q 538 960 538 1006 q 522 904 538 925 q 487 868 507 883 q 451 835 467 853 q 435 788 435 817 l 435 765 l 360 765 z "},"ơ":{"ha":793,"x_min":67,"x_max":728,"o":"m 396 -12 q 222 31 296 -12 q 107 156 147 75 q 67 349 67 238 q 107 542 67 461 q 222 666 147 622 q 396 710 296 710 q 572 666 497 710 q 687 542 646 622 q 728 349 728 461 q 687 156 728 238 q 572 31 646 75 q 396 -12 497 -12 m 396 79 q 554 148 496 79 q 613 349 613 217 q 553 551 613 482 q 396 619 494 619 q 239 551 297 619 q 181 349 181 482 q 239 148 181 217 q 396 79 297 79 m 526 628 l 468 667 l 468 697 q 560 715 526 699 q 607 767 593 732 q 621 856 621 801 l 621 878 l 721 878 l 721 839 q 698 731 721 776 q 631 658 675 685 q 526 628 588 632 z "},"ớ":{"ha":793,"x_min":67,"x_max":728,"o":"m 396 -12 q 222 31 296 -12 q 107 156 147 75 q 67 349 67 238 q 107 542 67 461 q 222 666 147 622 q 396 710 296 710 q 572 666 497 710 q 687 542 646 622 q 728 349 728 461 q 687 156 728 238 q 572 31 646 75 q 396 -12 497 -12 m 396 79 q 554 148 496 79 q 613 349 613 217 q 553 551 613 482 q 396 619 494 619 q 239 551 297 619 q 181 349 181 482 q 239 148 181 217 q 396 79 297 79 m 526 628 l 468 667 l 468 697 q 560 715 526 699 q 607 767 593 732 q 621 856 621 801 l 621 878 l 721 878 l 721 839 q 698 731 721 776 q 631 658 675 685 q 526 628 588 632 m 350 765 l 493 1046 l 614 1046 l 431 765 l 350 765 z "},"ợ":{"ha":793,"x_min":67,"x_max":728,"o":"m 396 -12 q 222 31 296 -12 q 107 156 147 75 q 67 349 67 238 q 107 542 67 461 q 222 666 147 622 q 396 710 296 710 q 572 666 497 710 q 687 542 646 622 q 728 349 728 461 q 687 156 728 238 q 572 31 646 75 q 396 -12 497 -12 m 396 79 q 554 148 496 79 q 613 349 613 217 q 553 551 613 482 q 396 619 494 619 q 239 551 297 619 q 181 349 181 482 q 239 148 181 217 q 396 79 297 79 m 526 628 l 468 667 l 468 697 q 560 715 526 699 q 607 767 593 732 q 621 856 621 801 l 621 878 l 721 878 l 721 839 q 698 731 721 776 q 631 658 675 685 q 526 628 588 632 m 332 -260 l 332 -137 l 460 -137 l 460 -260 l 332 -260 z "},"ờ":{"ha":793,"x_min":67,"x_max":728,"o":"m 396 -12 q 222 31 296 -12 q 107 156 147 75 q 67 349 67 238 q 107 542 67 461 q 222 666 147 622 q 396 710 296 710 q 572 666 497 710 q 687 542 646 622 q 728 349 728 461 q 687 156 728 238 q 572 31 646 75 q 396 -12 497 -12 m 396 79 q 554 148 496 79 q 613 349 613 217 q 553 551 613 482 q 396 619 494 619 q 239 551 297 619 q 181 349 181 482 q 239 148 181 217 q 396 79 297 79 m 526 628 l 468 667 l 468 697 q 560 715 526 699 q 607 767 593 732 q 621 856 621 801 l 621 878 l 721 878 l 721 839 q 698 731 721 776 q 631 658 675 685 q 526 628 588 632 m 350 765 l 167 1046 l 288 1046 l 431 765 l 350 765 z "},"ở":{"ha":793,"x_min":67,"x_max":728,"o":"m 396 -12 q 222 31 296 -12 q 107 156 147 75 q 67 349 67 238 q 107 542 67 461 q 222 666 147 622 q 396 710 296 710 q 572 666 497 710 q 687 542 646 622 q 728 349 728 461 q 687 156 728 238 q 572 31 646 75 q 396 -12 497 -12 m 396 79 q 554 148 496 79 q 613 349 613 217 q 553 551 613 482 q 396 619 494 619 q 239 551 297 619 q 181 349 181 482 q 239 148 181 217 q 396 79 297 79 m 526 628 l 468 667 l 468 697 q 560 715 526 699 q 607 767 593 732 q 621 856 621 801 l 621 878 l 721 878 l 721 839 q 698 731 721 776 q 631 658 675 685 q 526 628 588 632 m 353 765 l 353 794 q 366 847 353 826 q 396 883 379 868 q 426 913 413 897 q 439 947 439 928 q 423 976 439 967 q 375 986 407 986 q 333 981 353 986 q 286 965 313 976 l 268 1024 q 326 1047 293 1040 q 396 1054 358 1054 q 495 1030 460 1054 q 531 960 531 1006 q 515 904 531 925 q 480 868 500 883 q 444 835 460 853 q 428 788 428 817 l 428 765 l 353 765 z "},"ỡ":{"ha":793,"x_min":67,"x_max":728,"o":"m 396 -12 q 222 31 296 -12 q 107 156 147 75 q 67 349 67 238 q 107 542 67 461 q 222 666 147 622 q 396 710 296 710 q 572 666 497 710 q 687 542 646 622 q 728 349 728 461 q 687 156 728 238 q 572 31 646 75 q 396 -12 497 -12 m 396 79 q 554 148 496 79 q 613 349 613 217 q 553 551 613 482 q 396 619 494 619 q 239 551 297 619 q 181 349 181 482 q 239 148 181 217 q 396 79 297 79 m 526 628 l 468 667 l 468 697 q 560 715 526 699 q 607 767 593 732 q 621 856 621 801 l 621 878 l 721 878 l 721 839 q 698 731 721 776 q 631 658 675 685 q 526 628 588 632 m 204 819 l 140 824 q 186 960 149 913 q 283 1008 224 1008 q 335 996 311 1008 q 396 950 360 983 q 444 913 426 924 q 479 903 461 903 q 564 1013 549 903 l 628 1008 q 583 872 621 919 q 486 824 544 824 q 430 838 456 824 q 372 882 404 853 q 325 919 343 908 q 290 929 307 929 q 204 819 221 929 z "},"ő":{"ha":793,"x_min":67,"x_max":728,"o":"m 396 -12 q 222 31 296 -12 q 107 156 147 75 q 67 349 67 238 q 107 542 67 461 q 222 666 147 622 q 396 710 296 710 q 572 666 497 710 q 687 542 646 622 q 728 349 728 461 q 687 156 728 238 q 572 31 646 75 q 396 -12 497 -12 m 396 79 q 554 148 496 79 q 613 349 613 217 q 553 551 613 482 q 396 619 494 619 q 239 551 297 619 q 181 349 181 482 q 239 148 181 217 q 396 79 297 79 m 454 765 l 528 1046 l 632 1046 l 517 765 l 454 765 m 276 765 l 351 1046 l 456 1046 l 339 765 l 276 765 z "},"ȏ":{"ha":793,"x_min":67,"x_max":728,"o":"m 396 -12 q 222 31 296 -12 q 107 156 147 75 q 67 349 67 238 q 107 542 67 461 q 222 666 147 622 q 396 710 296 710 q 572 666 497 710 q 687 542 646 622 q 728 349 728 461 q 687 156 728 238 q 572 31 646 75 q 396 -12 497 -12 m 396 79 q 554 148 496 79 q 613 349 613 217 q 553 551 613 482 q 396 619 494 619 q 239 551 297 619 q 181 349 181 482 q 239 148 181 217 q 396 79 297 79 m 254 756 l 183 763 q 214 903 188 844 q 288 994 240 963 q 397 1026 335 1026 q 507 994 460 1026 q 581 903 554 963 q 611 763 608 844 l 540 756 q 498 899 535 849 q 397 950 461 950 q 297 899 333 950 q 254 756 260 849 z "},"ō":{"ha":793,"x_min":67,"x_max":728,"o":"m 396 -12 q 222 31 296 -12 q 107 156 147 75 q 67 349 67 238 q 107 542 67 461 q 222 666 147 622 q 396 710 296 710 q 572 666 497 710 q 687 542 646 622 q 728 349 728 461 q 687 156 728 238 q 572 31 646 75 q 396 -12 497 -12 m 396 79 q 554 148 496 79 q 613 349 613 217 q 553 551 613 482 q 396 619 494 619 q 239 551 297 619 q 181 349 181 482 q 239 148 181 217 q 396 79 297 79 m 192 868 l 192 944 l 603 944 l 603 868 l 192 868 z "},"ṓ":{"ha":793,"x_min":67,"x_max":728,"o":"m 396 -12 q 222 31 296 -12 q 107 156 147 75 q 67 349 67 238 q 107 542 67 461 q 222 666 147 622 q 396 710 296 710 q 572 666 497 710 q 687 542 646 622 q 728 349 728 461 q 687 156 728 238 q 572 31 646 75 q 396 -12 497 -12 m 396 79 q 554 148 496 79 q 613 349 613 217 q 553 551 613 482 q 396 619 494 619 q 239 551 297 619 q 181 349 181 482 q 239 148 181 217 q 396 79 297 79 m 192 793 l 192 869 l 603 869 l 603 793 l 192 793 m 358 921 l 478 1118 l 596 1118 l 436 921 l 358 921 z "},"ṑ":{"ha":793,"x_min":67,"x_max":728,"o":"m 396 -12 q 222 31 296 -12 q 107 156 147 75 q 67 349 67 238 q 107 542 67 461 q 222 666 147 622 q 396 710 296 710 q 572 666 497 710 q 687 542 646 622 q 728 349 728 461 q 687 156 728 238 q 572 31 646 75 q 396 -12 497 -12 m 396 79 q 554 148 496 79 q 613 349 613 217 q 553 551 613 482 q 396 619 494 619 q 239 551 297 619 q 181 349 181 482 q 239 148 181 217 q 396 79 297 79 m 192 793 l 192 869 l 603 869 l 603 793 l 192 793 m 358 921 l 199 1118 l 317 1118 l 436 921 l 358 921 z "},"ǫ":{"ha":793,"x_min":67,"x_max":728,"o":"m 396 -12 q 222 31 296 -12 q 107 156 147 75 q 67 349 67 238 q 107 542 67 461 q 222 666 147 622 q 396 710 296 710 q 572 666 497 710 q 687 542 646 622 q 728 349 728 461 q 687 156 728 238 q 572 31 646 75 q 396 -12 497 -12 m 396 79 q 554 148 496 79 q 613 349 613 217 q 553 551 613 482 q 396 619 494 619 q 239 551 297 619 q 181 349 181 482 q 239 148 181 217 q 396 79 297 79 m 449 -267 q 342 -231 382 -267 q 301 -132 301 -194 q 338 -27 301 -76 q 435 50 374 22 l 475 0 q 431 -26 453 -8 q 396 -67 410 -43 q 382 -119 382 -90 q 406 -178 382 -158 q 463 -197 429 -197 q 500 -193 482 -197 q 538 -181 518 -189 l 557 -243 q 510 -260 538 -254 q 449 -267 482 -267 z "},"ø":{"ha":793,"x_min":67,"x_max":728,"o":"m 396 -12 q 222 31 296 -12 q 107 156 147 75 q 67 349 67 238 q 107 542 67 461 q 222 666 147 622 q 396 710 296 710 q 572 666 497 710 q 687 542 646 622 q 728 349 728 461 q 687 156 728 238 q 572 31 646 75 q 396 -12 497 -12 m 396 79 q 560 149 500 79 q 619 350 619 219 q 560 549 619 479 q 396 619 500 619 q 233 549 292 619 q 174 350 174 479 q 233 149 174 219 q 396 79 292 79 m 204 -54 l 144 -17 l 592 753 l 653 715 l 204 -54 z "},"ǿ":{"ha":793,"x_min":67,"x_max":728,"o":"m 396 -12 q 222 31 296 -12 q 107 156 147 75 q 67 349 67 238 q 107 542 67 461 q 222 666 147 622 q 396 710 296 710 q 572 666 497 710 q 687 542 646 622 q 728 349 728 461 q 687 156 728 238 q 572 31 646 75 q 396 -12 497 -12 m 396 79 q 560 149 500 79 q 619 350 619 219 q 560 549 619 479 q 396 619 500 619 q 233 549 292 619 q 174 350 174 479 q 233 149 174 219 q 396 79 292 79 m 204 -54 l 144 -17 l 592 753 l 653 715 l 204 -54 m 357 765 l 500 1046 l 621 1046 l 438 765 l 357 765 z "},"õ":{"ha":793,"x_min":67,"x_max":728,"o":"m 396 -12 q 222 31 296 -12 q 107 156 147 75 q 67 349 67 238 q 107 542 67 461 q 222 666 147 622 q 396 710 296 710 q 572 666 497 710 q 687 542 646 622 q 728 349 728 461 q 687 156 728 238 q 572 31 646 75 q 396 -12 497 -12 m 396 79 q 554 148 496 79 q 613 349 613 217 q 553 551 613 482 q 396 619 494 619 q 239 551 297 619 q 181 349 181 482 q 239 148 181 217 q 396 79 297 79 m 211 819 l 147 824 q 194 960 154 913 q 296 1008 235 1008 q 352 994 326 1008 q 411 951 378 981 q 460 913 442 924 q 497 903 479 903 q 583 1013 568 903 l 647 1008 q 601 872 640 919 q 500 824 561 824 q 444 838 471 824 q 383 882 418 851 q 335 919 354 908 q 297 929 317 929 q 240 901 261 929 q 211 819 218 872 z "},"ṍ":{"ha":793,"x_min":67,"x_max":728,"o":"m 396 -12 q 222 31 296 -12 q 107 156 147 75 q 67 349 67 238 q 107 542 67 461 q 222 666 147 622 q 396 710 296 710 q 572 666 497 710 q 687 542 646 622 q 728 349 728 461 q 687 156 728 238 q 572 31 646 75 q 396 -12 497 -12 m 396 79 q 554 148 496 79 q 613 349 613 217 q 553 551 613 482 q 396 619 494 619 q 239 551 297 619 q 181 349 181 482 q 239 148 181 217 q 396 79 297 79 m 240 760 l 178 764 q 219 869 183 835 q 308 904 254 904 q 356 895 333 904 q 410 865 379 886 q 451 840 435 847 q 485 832 468 832 q 533 850 517 832 q 554 907 549 868 l 617 904 q 576 798 611 833 q 488 763 542 763 q 438 772 463 763 q 383 803 413 782 q 343 827 360 819 q 310 835 326 835 q 263 817 279 835 q 240 760 247 800 m 358 921 l 478 1118 l 596 1118 l 436 921 l 358 921 z "},"ṏ":{"ha":793,"x_min":67,"x_max":728,"o":"m 396 -12 q 222 31 296 -12 q 107 156 147 75 q 67 349 67 238 q 107 542 67 461 q 222 666 147 622 q 396 710 296 710 q 572 666 497 710 q 687 542 646 622 q 728 349 728 461 q 687 156 728 238 q 572 31 646 75 q 396 -12 497 -12 m 396 79 q 554 148 496 79 q 613 349 613 217 q 553 551 613 482 q 396 619 494 619 q 239 551 297 619 q 181 349 181 482 q 239 148 181 217 q 396 79 297 79 m 240 760 l 178 764 q 219 869 183 835 q 308 904 254 904 q 356 895 333 904 q 410 865 379 886 q 451 840 435 847 q 485 832 468 832 q 533 850 517 832 q 554 907 549 868 l 617 904 q 576 798 611 833 q 488 763 542 763 q 438 772 463 763 q 383 803 413 782 q 343 827 360 819 q 310 835 326 835 q 263 817 279 835 q 240 760 247 800 m 217 963 l 217 1064 l 336 1064 l 336 963 l 217 963 m 458 963 l 458 1064 l 578 1064 l 578 963 l 458 963 z "},"ȭ":{"ha":793,"x_min":67,"x_max":728,"o":"m 396 -12 q 222 31 296 -12 q 107 156 147 75 q 67 349 67 238 q 107 542 67 461 q 222 666 147 622 q 396 710 296 710 q 572 666 497 710 q 687 542 646 622 q 728 349 728 461 q 687 156 728 238 q 572 31 646 75 q 396 -12 497 -12 m 396 79 q 554 148 496 79 q 613 349 613 217 q 553 551 613 482 q 396 619 494 619 q 239 551 297 619 q 181 349 181 482 q 239 148 181 217 q 396 79 297 79 m 192 982 l 192 1058 l 603 1058 l 603 982 l 192 982 m 240 760 l 178 764 q 219 869 183 835 q 308 904 254 904 q 356 895 333 904 q 410 865 379 886 q 451 840 435 847 q 485 832 468 832 q 533 850 517 832 q 554 907 549 868 l 617 904 q 576 798 611 833 q 488 763 542 763 q 438 772 463 763 q 383 803 413 782 q 343 827 360 819 q 310 835 326 835 q 263 817 279 835 q 240 760 247 800 z "},"œ":{"ha":1297,"x_min":67,"x_max":1235,"o":"m 396 -12 q 222 31 296 -12 q 107 156 147 75 q 67 350 67 238 q 107 542 67 461 q 222 667 147 624 q 396 710 296 710 q 580 655 504 710 q 688 496 656 600 l 653 496 q 764 654 688 599 q 944 710 840 710 q 1158 622 1081 710 q 1235 381 1235 535 l 1235 339 l 700 339 l 700 410 l 1161 410 l 1136 393 q 1086 565 1136 503 q 942 626 1036 626 q 783 553 840 626 q 726 358 726 481 l 726 350 q 789 147 726 215 q 969 79 851 79 q 1081 99 1028 79 q 1185 160 1135 118 l 1225 81 q 1152 29 1194 50 q 1063 -2 1110 8 q 972 -12 1017 -12 q 767 43 849 -12 q 653 203 686 99 l 686 203 q 579 43 654 99 q 396 -12 504 -12 m 397 79 q 556 148 497 79 q 614 349 614 217 q 556 551 614 482 q 397 619 497 619 q 240 551 299 619 q 181 349 181 482 q 240 148 181 217 q 397 79 299 79 z "},"p":{"ha":833,"x_min":99,"x_max":768,"o":"m 110 -300 l 110 536 q 106 616 110 575 q 99 697 103 657 l 207 697 l 222 532 l 206 532 q 296 662 228 614 q 458 710 364 710 q 622 667 553 710 q 729 543 690 624 q 768 349 768 463 q 730 156 768 236 q 622 31 692 75 q 458 -12 553 -12 q 297 35 365 -12 q 207 164 229 82 l 222 164 l 222 -300 l 110 -300 m 436 79 q 595 148 536 79 q 654 349 654 217 q 595 551 654 482 q 436 619 536 619 q 278 551 338 619 q 219 349 219 482 q 278 148 219 217 q 436 79 338 79 z "},"þ":{"ha":833,"x_min":110,"x_max":768,"o":"m 110 -300 l 110 1022 l 222 1022 l 222 532 l 206 532 q 297 662 228 614 q 460 710 365 710 q 623 667 554 710 q 730 543 692 624 q 768 349 768 463 q 730 156 768 236 q 623 31 692 75 q 460 -12 554 -12 q 297 35 365 -12 q 207 164 229 82 l 222 164 l 222 -300 l 110 -300 m 438 79 q 595 148 536 79 q 654 349 654 217 q 595 551 654 482 q 438 619 536 619 q 279 551 339 619 q 219 349 219 482 q 279 148 219 217 q 438 79 339 79 z "},"q":{"ha":833,"x_min":67,"x_max":736,"o":"m 613 -300 l 613 164 l 628 164 q 536 35 606 82 q 375 -12 467 -12 q 213 31 282 -12 q 105 156 143 75 q 67 349 67 236 q 105 543 67 463 q 213 667 143 624 q 375 710 282 710 q 538 662 469 710 q 629 532 607 614 l 613 532 l 628 697 l 736 697 q 728 616 732 657 q 725 536 725 575 l 725 -300 l 613 -300 m 397 79 q 556 148 497 79 q 614 349 614 217 q 556 551 614 482 q 397 619 497 619 q 240 551 299 619 q 181 349 181 482 q 240 148 181 217 q 397 79 299 79 z "},"r":{"ha":504,"x_min":99,"x_max":497,"o":"m 107 0 l 107 529 q 105 614 107 571 q 99 697 103 657 l 207 697 l 221 528 l 201 526 q 250 629 215 589 q 332 690 285 669 q 431 710 379 710 q 467 708 451 710 q 497 701 483 707 l 496 601 q 458 610 475 608 q 418 613 440 613 q 312 583 357 613 q 244 508 267 554 q 221 411 221 463 l 221 0 l 107 0 z "},"ŕ":{"ha":504,"x_min":99,"x_max":532,"o":"m 107 0 l 107 529 q 105 614 107 571 q 99 697 103 657 l 207 697 l 221 528 l 201 526 q 250 629 215 589 q 332 690 285 669 q 431 710 379 710 q 467 708 451 710 q 497 701 483 707 l 496 601 q 458 610 475 608 q 418 613 440 613 q 312 583 357 613 q 244 508 267 554 q 221 411 221 463 l 221 0 l 107 0 m 269 765 l 413 1046 l 533 1046 l 350 765 l 269 765 z "},"ř":{"ha":504,"x_min":99,"x_max":515,"o":"m 107 0 l 107 529 q 105 614 107 571 q 99 697 103 657 l 207 697 l 221 528 l 201 526 q 250 629 215 589 q 332 690 285 669 q 431 710 379 710 q 467 708 451 710 q 497 701 483 707 l 496 601 q 458 610 475 608 q 418 613 440 613 q 312 583 357 613 q 244 508 267 554 q 221 411 221 463 l 221 0 l 107 0 m 256 765 l 104 1046 l 182 1046 l 310 840 l 438 1046 l 515 1046 l 364 765 l 256 765 z "},"ŗ":{"ha":504,"x_min":94,"x_max":497,"o":"m 107 0 l 107 529 q 105 614 107 571 q 99 697 103 657 l 207 697 l 221 528 l 201 526 q 250 629 215 589 q 332 690 285 669 q 431 710 379 710 q 467 708 451 710 q 497 701 483 707 l 496 601 q 458 610 475 608 q 418 613 440 613 q 312 583 357 613 q 244 508 267 554 q 221 411 221 463 l 221 0 l 107 0 m 160 -372 l 110 -336 q 152 -274 142 -303 q 163 -211 163 -244 l 192 -225 l 94 -225 l 94 -111 l 232 -111 l 232 -194 q 215 -291 232 -246 q 160 -372 197 -336 z "},"ȑ":{"ha":504,"x_min":74,"x_max":497,"o":"m 107 0 l 107 529 q 105 614 107 571 q 99 697 103 657 l 207 697 l 221 528 l 201 526 q 250 629 215 589 q 332 690 285 669 q 431 710 379 710 q 467 708 451 710 q 497 701 483 707 l 496 601 q 458 610 475 608 q 418 613 440 613 q 312 583 357 613 q 244 508 267 554 q 221 411 221 463 l 221 0 l 107 0 m 368 765 l 251 1046 l 356 1046 l 431 765 l 368 765 m 190 765 l 75 1046 l 179 1046 l 253 765 l 190 765 z "},"ṛ":{"ha":504,"x_min":99,"x_max":497,"o":"m 107 0 l 107 529 q 105 614 107 571 q 99 697 103 657 l 207 697 l 221 528 l 201 526 q 250 629 215 589 q 332 690 285 669 q 431 710 379 710 q 467 708 451 710 q 497 701 483 707 l 496 601 q 458 610 475 608 q 418 613 440 613 q 312 583 357 613 q 244 508 267 554 q 221 411 221 463 l 221 0 l 107 0 m 100 -260 l 100 -137 l 228 -137 l 228 -260 l 100 -260 z "},"ȓ":{"ha":504,"x_min":94,"x_max":524,"o":"m 107 0 l 107 529 q 105 614 107 571 q 99 697 103 657 l 207 697 l 221 528 l 201 526 q 250 629 215 589 q 332 690 285 669 q 431 710 379 710 q 467 708 451 710 q 497 701 483 707 l 496 601 q 458 610 475 608 q 418 613 440 613 q 312 583 357 613 q 244 508 267 554 q 221 411 221 463 l 221 0 l 107 0 m 167 756 l 96 763 q 126 903 100 844 q 200 994 153 963 q 310 1026 247 1026 q 419 994 372 1026 q 494 903 467 963 q 524 763 521 844 l 453 756 q 410 899 447 849 q 310 950 374 950 q 209 899 246 950 q 167 756 172 849 z "},"ṟ":{"ha":504,"x_min":-43,"x_max":497,"o":"m 107 0 l 107 529 q 105 614 107 571 q 99 697 103 657 l 207 697 l 221 528 l 201 526 q 250 629 215 589 q 332 690 285 669 q 431 710 379 710 q 467 708 451 710 q 497 701 483 707 l 496 601 q 458 610 475 608 q 418 613 440 613 q 312 583 357 613 q 244 508 267 554 q 221 411 221 463 l 221 0 l 107 0 m -42 -217 l -42 -140 l 369 -140 l 369 -217 l -42 -217 z "},"s":{"ha":689,"x_min":67,"x_max":618,"o":"m 342 -12 q 186 10 258 -12 q 67 75 114 33 l 106 154 q 217 94 157 114 q 343 75 278 75 q 469 105 426 75 q 511 188 511 135 q 484 252 511 228 q 396 290 457 276 l 267 317 q 133 383 178 336 q 89 501 89 429 q 121 609 89 563 q 214 683 153 656 q 357 710 275 710 q 498 687 433 710 q 606 621 563 664 l 565 543 q 470 603 524 583 q 360 624 417 624 q 237 591 278 624 q 196 506 196 558 q 222 440 196 465 q 301 401 247 414 l 431 375 q 572 310 525 354 q 618 193 618 267 q 583 84 618 131 q 487 13 549 38 q 342 -12 425 -12 z "},"ś":{"ha":689,"x_min":67,"x_max":618,"o":"m 342 -12 q 186 10 258 -12 q 67 75 114 33 l 106 154 q 217 94 157 114 q 343 75 278 75 q 469 105 426 75 q 511 188 511 135 q 484 252 511 228 q 396 290 457 276 l 267 317 q 133 383 178 336 q 89 501 89 429 q 121 609 89 563 q 214 683 153 656 q 357 710 275 710 q 498 687 433 710 q 606 621 563 664 l 565 543 q 470 603 524 583 q 360 624 417 624 q 237 591 278 624 q 196 506 196 558 q 222 440 196 465 q 301 401 247 414 l 431 375 q 572 310 525 354 q 618 193 618 267 q 583 84 618 131 q 487 13 549 38 q 342 -12 425 -12 m 313 765 l 456 1046 l 576 1046 l 393 765 l 313 765 z "},"ṥ":{"ha":689,"x_min":67,"x_max":618,"o":"m 342 -12 q 186 10 258 -12 q 67 75 114 33 l 106 154 q 217 94 157 114 q 343 75 278 75 q 469 105 426 75 q 511 188 511 135 q 484 252 511 228 q 396 290 457 276 l 267 317 q 133 383 178 336 q 89 501 89 429 q 121 609 89 563 q 214 683 153 656 q 357 710 275 710 q 498 687 433 710 q 606 621 563 664 l 565 543 q 470 603 524 583 q 360 624 417 624 q 237 591 278 624 q 196 506 196 558 q 222 440 196 465 q 301 401 247 414 l 431 375 q 572 310 525 354 q 618 193 618 267 q 583 84 618 131 q 487 13 549 38 q 342 -12 425 -12 m 313 765 l 460 1046 l 579 1046 l 393 765 l 313 765 m 233 1050 l 233 1151 l 353 1151 l 353 1050 l 233 1050 z "},"š":{"ha":689,"x_min":67,"x_max":618,"o":"m 342 -12 q 186 10 258 -12 q 67 75 114 33 l 106 154 q 217 94 157 114 q 343 75 278 75 q 469 105 426 75 q 511 188 511 135 q 484 252 511 228 q 396 290 457 276 l 267 317 q 133 383 178 336 q 89 501 89 429 q 121 609 89 563 q 214 683 153 656 q 357 710 275 710 q 498 687 433 710 q 606 621 563 664 l 565 543 q 470 603 524 583 q 360 624 417 624 q 237 591 278 624 q 196 506 196 558 q 222 440 196 465 q 301 401 247 414 l 431 375 q 572 310 525 354 q 618 193 618 267 q 583 84 618 131 q 487 13 549 38 q 342 -12 425 -12 m 299 765 l 147 1046 l 225 1046 l 353 840 l 481 1046 l 558 1046 l 407 765 l 299 765 z "}}}
